<svg xmlns="http://www.w3.org/2000/svg" width="28" height="28" viewBox="0 0 28 28">
  <g id="Group_12283" data-name="Group 12283" transform="translate(-791 -384)">
    <circle id="Ellipse_66" data-name="Ellipse 66" cx="14" cy="14" r="14" transform="translate(791 384)" fill="#d0d4db"/>
    <path id="capture" d="M2.8,7.6a.8.8,0,0,0,.8-.8V4.4a.8.8,0,0,1,.8-.8H6.8A.8.8,0,1,0,6.8,2H4.4A2.4,2.4,0,0,0,2,4.4V6.8a.8.8,0,0,0,.8.8Zm4,6.8H4.4a.8.8,0,0,1-.8-.8V11.2a.8.8,0,1,0-1.6,0v2.4A2.4,2.4,0,0,0,4.4,16H6.8a.8.8,0,1,0,0-1.6ZM9,5.8A3.2,3.2,0,1,0,12.2,9,3.2,3.2,0,0,0,9,5.8Zm0,4.8A1.6,1.6,0,1,1,10.6,9,1.6,1.6,0,0,1,9,10.6ZM13.6,2H11.2a.8.8,0,1,0,0,1.6h2.4a.8.8,0,0,1,.8.8V6.8a.8.8,0,1,0,1.6,0V4.4A2.4,2.4,0,0,0,13.6,2Zm1.6,8.4a.8.8,0,0,0-.8.8v2.4a.8.8,0,0,1-.8.8H11.2a.8.8,0,1,0,0,1.6h2.4A2.4,2.4,0,0,0,16,13.6V11.2A.8.8,0,0,0,15.2,10.4Z" transform="translate(796 389)" fill="#fff"/>
  </g>
</svg>
