<svg xmlns="http://www.w3.org/2000/svg" width="28" height="28" viewBox="0 0 28 28">
  <g id="Group_12282" data-name="Group 12282" transform="translate(-606 -390)">
    <circle id="Ellipse_65" data-name="Ellipse 65" cx="14" cy="14" r="14" transform="translate(606 390)" fill="#d0d4db"/>
    <path id="postcard" d="M12.636,9.091h.727a.727.727,0,0,0,.727-.727V7.636a.727.727,0,0,0-.727-.727h-.727a.727.727,0,0,0-.727.727v.727A.727.727,0,0,0,12.636,9.091Zm-8,.727H8.273a.727.727,0,1,0,0-1.455H4.636a.727.727,0,1,0,0,1.455ZM16.273,4H1.727A.727.727,0,0,0,1,4.727V14.909a.727.727,0,0,0,.727.727H16.273A.727.727,0,0,0,17,14.909V4.727A.727.727,0,0,0,16.273,4Zm-.727,10.182H2.455V5.455H15.545ZM4.636,12.727H8.273a.727.727,0,0,0,0-1.455H4.636a.727.727,0,0,0,0,1.455Z" transform="translate(611 394)" fill="#fff"/>
  </g>
</svg>
