<svg xmlns="http://www.w3.org/2000/svg" width="28" height="28" viewBox="0 0 28 28">
  <g id="Group_12162" data-name="Group 12162" transform="translate(-371 -1026)">
    <path id="Path_28644" data-name="Path 28644" d="M399,1054H371v-28h28Zm-1.172-11.643h-9.31c0,.358,0,.694,0,1.031a1.165,1.165,0,0,1-1.274,1.272q-2.224,0-4.449,0a1.164,1.164,0,0,1-1.264-1.281c0-.343,0-.686,0-1.02h-9.322v.293q0,3.282,0,6.565a3.507,3.507,0,0,0,3.621,3.622q9.2,0,18.4,0a3.953,3.953,0,0,0,.759-.066,3.494,3.494,0,0,0,2.852-3.508c.007-2.216,0-4.431,0-6.647C397.839,1042.536,397.832,1042.455,397.828,1042.357Zm-5.816-10.526c0-.29,0-.552,0-.814a3.777,3.777,0,0,0-3.85-3.863q-3.139-.01-6.278,0a3.775,3.775,0,0,0-3.847,3.864c0,.261,0,.523,0,.812-.447,0-.863,0-1.28,0a11.207,11.207,0,0,0-1.58.044,3.464,3.464,0,0,0-2.966,3.487c-.01,1.468,0,2.936,0,4.4,0,.07.012.14.019.212h9.3c0-.343,0-.67,0-1a1.188,1.188,0,0,1,1.311-1.325q2.184,0,4.367,0a1.188,1.188,0,0,1,1.31,1.326c0,.333,0,.667,0,.991h9.3a.688.688,0,0,0,.018-.1c0-1.541.026-3.082-.007-4.622a3.421,3.421,0,0,0-2.667-3.316,8,8,0,0,0-1.518-.1C393.111,1031.819,392.576,1031.831,392.012,1031.831Zm-5.839,8.188h-2.295v2.3h2.295Z" transform="translate(0)" fill="#1e5fee" opacity="0"/>
    <path id="Path_28645" data-name="Path 28645" d="M413.187,1250.329c0,.1.012.178.012.259,0,2.216.006,4.431,0,6.647a3.494,3.494,0,0,1-2.852,3.508,3.973,3.973,0,0,1-.759.066q-9.2.005-18.4,0a3.507,3.507,0,0,1-3.621-3.622q-.005-3.282,0-6.565v-.293h9.322c0,.333,0,.677,0,1.02a1.164,1.164,0,0,0,1.264,1.281q2.224,0,4.449,0a1.165,1.165,0,0,0,1.274-1.272c0-.336,0-.673,0-1.031Z" transform="translate(-15.359 -207.972)" fill="#1e5fee"/>
    <path id="Path_28646" data-name="Path 28646" d="M407.348,1046.451c.564,0,1.1-.012,1.633,0a8,8,0,0,1,1.518.1,3.421,3.421,0,0,1,2.667,3.316c.033,1.54.008,3.082.007,4.623a.687.687,0,0,1-.018.1h-9.3c0-.324,0-.658,0-.991a1.188,1.188,0,0,0-1.31-1.326q-2.184,0-4.367,0a1.188,1.188,0,0,0-1.311,1.325c0,.327,0,.653,0,1h-9.3c-.007-.072-.019-.142-.019-.212,0-1.468-.008-2.936,0-4.4a3.464,3.464,0,0,1,2.966-3.487,11.207,11.207,0,0,1,1.58-.044c.416-.005.833,0,1.28,0,0-.289,0-.551,0-.812a3.775,3.775,0,0,1,3.847-3.864q3.139-.01,6.278,0a3.777,3.777,0,0,1,3.85,3.863C407.349,1045.9,407.348,1046.161,407.348,1046.451Zm-2.339-.017c0-.343.012-.662,0-.979a1.394,1.394,0,0,0-1.365-1.337q-3.288-.018-6.576,0a1.365,1.365,0,0,0-1.324,1.133,8.315,8.315,0,0,0-.01,1.183Z" transform="translate(-15.336 -14.62)" fill="#1e5fee"/>
    <path id="Path_28647" data-name="Path 28647" d="M549.922,1218.265v2.3h-2.295v-2.3Z" transform="translate(-163.748 -178.246)" fill="#1e5fee"/>
  </g>
</svg>
