<svg xmlns="http://www.w3.org/2000/svg" width="16" height="16" viewBox="0 0 16 16">
  <path id="user-circle" d="M10.019,2A8.008,8.008,0,0,0,4.128,15.422h0a8.02,8.02,0,0,0,11.782,0h0A8.008,8.008,0,0,0,10.019,2Zm0,14.415a6.415,6.415,0,0,1-4.448-1.8,4.811,4.811,0,0,1,8.9,0A6.415,6.415,0,0,1,10.019,16.415Zm-1.6-8.008a1.6,1.6,0,1,1,1.6,1.6A1.6,1.6,0,0,1,8.416,8.407Zm7.141,4.8A6.41,6.41,0,0,0,12.423,10.5a3.2,3.2,0,1,0-4.809,0A6.41,6.41,0,0,0,4.48,13.212a6.338,6.338,0,0,1-.874-3.2,6.412,6.412,0,0,1,12.824,0A6.338,6.338,0,0,1,15.557,13.212Z" transform="translate(-2.019 -2)" fill="#5c6a82"/>
</svg>
