<svg xmlns="http://www.w3.org/2000/svg" width="24" height="24" viewBox="0 0 24 24">
  <g id="Group_12186" data-name="Group 12186" transform="translate(-1260 -117)">
    <rect id="Rectangle_8458" data-name="Rectangle 8458" width="24" height="24" transform="translate(1260 117)" fill="#5c6a82" opacity="0"/>
    <path id="phone-alt" d="M16,10.84a2.526,2.526,0,0,1-.538-.1,7.579,7.579,0,0,1-1.052-.313,1.606,1.606,0,0,0-1.991.8l-.177.361a9.779,9.779,0,0,1-2.136-1.606A9.779,9.779,0,0,1,8.5,7.853l.337-.225a1.606,1.606,0,0,0,.8-1.991,8.294,8.294,0,0,1-.313-1.052c-.04-.177-.072-.361-.1-.546a2.409,2.409,0,0,0-2.409-2H4.413A2.409,2.409,0,0,0,2,4.778,15.255,15.255,0,0,0,15.268,17.993h.305a2.4,2.4,0,0,0,2.409-2.417V13.168A2.409,2.409,0,0,0,16,10.84Zm.4,4.817a.8.8,0,0,1-.273.6.851.851,0,0,1-.658.2A13.649,13.649,0,0,1,3.658,4.593a.875.875,0,0,1,.2-.658.8.8,0,0,1,.6-.273H6.87a.8.8,0,0,1,.8.634q.048.329.12.65a8.928,8.928,0,0,0,.369,1.244l-1.124.522a.8.8,0,0,0-.393,1.068,11.634,11.634,0,0,0,5.62,5.62.851.851,0,0,0,1.068-.418l.5-1.124a10.992,10.992,0,0,0,1.269.369q.321.072.65.12a.8.8,0,0,1,.634.8Z" transform="translate(1262.018 118.984)" fill="#5c6a82"/>
  </g>
</svg>
