<svg xmlns="http://www.w3.org/2000/svg" width="16" height="16" viewBox="0 0 16 16">
  <path id="icon-chat" d="M15.188,16a.867.867,0,0,1-.205-.025.809.809,0,0,1-.368-.246l-.641-.641-.1-.1-.041-.041c-.641-.64-1.3-1.3-1.95-1.956a.554.554,0,0,0-.434-.181h0c-1.936,0-3.844,0-5.632,0H2.577a3.168,3.168,0,0,1-.935-.125,2.175,2.175,0,0,1-.824-.458,2.5,2.5,0,0,1-.589-.744,2.035,2.035,0,0,1-.218-.912C0,7.779,0,4.972.01,2.232a2.027,2.027,0,0,1,.178-.815A2.321,2.321,0,0,1,.66.729,2.416,2.416,0,0,1,1.345.24,2.216,2.216,0,0,1,2.161.025C2.518,0,2.866,0,3.159,0H13.375a3.707,3.707,0,0,1,.8.074,2.089,2.089,0,0,1,.744.314A2.3,2.3,0,0,1,16,2.364c0,1.5,0,3.023,0,4.5v.011c0,.535,0,1.2,0,1.835q0,.863,0,1.726v.035c0,1.538,0,3.129,0,4.708a.824.824,0,0,1-.24.589A.8.8,0,0,1,15.188,16ZM6.651,7.193l-1.841,0H4.336c-.124,0-.25.01-.371.02h0l-.1.008a.674.674,0,0,0-.569.39.794.794,0,0,0,0,.79.81.81,0,0,0,.313.3,1.031,1.031,0,0,0,.48.118c.327,0,.648.005.918.005h3.6c.053,0,.107,0,.16-.009h.006c.043,0,.088-.007.133-.008a.666.666,0,0,0,.361-.113A.731.731,0,0,0,9.5,8.42a.9.9,0,0,0-.033-.884.688.688,0,0,0-.389-.29A1.674,1.674,0,0,0,8.6,7.2C7.976,7.194,7.337,7.193,6.651,7.193Zm3.482-1.575h1.013c.271,0,.5,0,.709,0a.9.9,0,0,0,.732-.246.853.853,0,0,0,.209-.421.871.871,0,0,0-.056-.463.71.71,0,0,0-.731-.46H4.084a1.871,1.871,0,0,0-.236.012.737.737,0,0,0-.441.219.722.722,0,0,0-.2.443.916.916,0,0,0,.107.539.687.687,0,0,0,.388.32,1.667,1.667,0,0,0,.517.062Z" fill="#133fa2"/>
</svg>
