<svg id="Group_12183" data-name="Group 12183" xmlns="http://www.w3.org/2000/svg" width="16" height="16" viewBox="0 0 16 16">
  <rect id="Rectangle_8455" data-name="Rectangle 8455" width="16" height="16" fill="#fff" opacity="0"/>
  <path id="Path_28654" data-name="Path 28654" d="M551.53,1200h.937a.821.821,0,0,0,.121.026,7.428,7.428,0,0,1,3.152.909,7.86,7.86,0,0,1,4.245,6.73,7.215,7.215,0,0,1-.742,3.71,7.841,7.841,0,0,1-6.909,4.608,7.367,7.367,0,0,1-4.087-.925,7.88,7.88,0,0,1-4.121-5.667c-.058-.3-.084-.616-.126-.924v-.937a1.029,1.029,0,0,0,.026-.135,7.616,7.616,0,0,1,1.1-3.476,7.882,7.882,0,0,1,5.5-3.795C550.921,1200.069,551.227,1200.041,551.53,1200Zm.472,8.97c-.5,0-1.01,0-1.515,0a2.671,2.671,0,0,0-2.7,2.4,1.189,1.189,0,0,0,.394,1.128,5.885,5.885,0,0,0,7.194.327,3.065,3.065,0,0,0,.625-.557,1.293,1.293,0,0,0,.167-1.106,2.667,2.667,0,0,0-2.655-2.2C553.012,1208.965,552.507,1208.97,552,1208.97Zm2.644-3.938a2.647,2.647,0,1,0-2.638,2.651A2.648,2.648,0,0,0,554.645,1205.032Z" transform="translate(-544 -1200)" fill="#5c6a82"/>
</svg>
