<svg id="Group_12183" data-name="Group 12183" xmlns="http://www.w3.org/2000/svg" width="16" height="16" viewBox="0 0 16 16">
  <rect id="Rectangle_8455" data-name="Rectangle 8455" width="16" height="16" fill="#fff" opacity="0"/>
  <path id="padlock_1_" data-name="padlock (1)" d="M13.75,7.25V5.75a3.75,3.75,0,0,0-7.5,0v1.5A2.21,2.21,0,0,0,4,9.5v5.25A2.21,2.21,0,0,0,6.25,17h7.5A2.21,2.21,0,0,0,16,14.75V9.5A2.21,2.21,0,0,0,13.75,7.25Zm-6-1.5a2.25,2.25,0,0,1,4.5,0v1.5H7.75Zm3.075,6.375-.075.075v1.05a.75.75,0,0,1-1.5,0V12.2a1.115,1.115,0,1,1,1.575-.075Z" transform="translate(-2 -2)" fill="#5c6a82"/>
</svg>
