<svg xmlns="http://www.w3.org/2000/svg" width="28" height="28" viewBox="0 0 28 28">
  <g id="Group_12161" data-name="Group 12161" transform="translate(-358 -1013)">
    <path id="Path_28637" data-name="Path 28637" d="M386,1036.688V1041H358v-28h28v18.5a.672.672,0,0,1-.047-.124,3.941,3.941,0,0,0-2.672-3.231,11.621,11.621,0,0,0-3.446-.244.894.894,0,0,0,.018.166,6.623,6.623,0,0,1,.3,2.2c0,2.018,0,4.037,0,6.055,0,.823-.029,1.646-.044,2.452,1.253,0,2.57.03,3.884-.014a2.035,2.035,0,0,0,1.417-.787A2.9,2.9,0,0,0,386,1036.688Zm-13.984,2.134h5.565c.65,0,.946-.3.946-.951q0-3.955,0-7.911a4.424,4.424,0,0,0-.1-.973,3.992,3.992,0,0,0-3.948-3.164c-1.637-.013-3.273-.007-4.91,0a4.034,4.034,0,0,0-4.041,4.084c-.008,2.646,0,5.292,0,7.938,0,.686.289.974.978.974Zm.012-23.7a4.849,4.849,0,1,0,4.851,4.812A4.862,4.862,0,0,0,372.028,1015.125Zm-8.025,23.7c-.035-.344-.094-.666-.1-.988-.008-2.61-.021-5.22.008-7.831a13.9,13.9,0,0,1,.259-1.854c.01-.069.032-.136.056-.235-.734,0-1.442-.021-2.148,0a4.033,4.033,0,0,0-4.029,4.168c0,1.4,0,2.8,0,4.2a2.427,2.427,0,0,0,2.519,2.533c.6,0,1.2,0,1.8,0Zm-4.123-15.544a3.625,3.625,0,1,0,3.619-3.629A3.641,3.641,0,0,0,359.881,1023.278Zm24.292.028a3.624,3.624,0,1,0-3.662,3.592A3.625,3.625,0,0,0,384.173,1023.306Z" transform="translate(0 0)" fill="#1e5fee" opacity="0"/>
    <path id="Path_28638" data-name="Path 28638" d="M683.575,1239.724a2.9,2.9,0,0,1-.595,1.291,2.034,2.034,0,0,1-1.417.788c-1.314.044-2.631.014-3.884.014.015-.806.041-1.629.044-2.452.007-2.018,0-4.036,0-6.055a6.624,6.624,0,0,0-.3-2.2.894.894,0,0,1-.018-.166,11.625,11.625,0,0,1,3.446.244,3.941,3.941,0,0,1,2.672,3.231.676.676,0,0,0,.047.124Z" transform="translate(-297.575 -203.036)" fill="#1e5fee"/>
    <path id="Path_28639" data-name="Path 28639" d="M474.57,1213.48h-5.51c-.69,0-.978-.287-.978-.974,0-2.646-.006-5.292,0-7.938a4.034,4.034,0,0,1,4.041-4.085c1.637-.009,3.273-.015,4.91,0a3.992,3.992,0,0,1,3.948,3.164,4.424,4.424,0,0,1,.1.973q.011,3.955,0,7.911c0,.652-.3.95-.946.95Q477.352,1213.481,474.57,1213.48Z" transform="translate(-102.554 -174.658)" fill="#1e5fee"/>
    <path id="Path_28640" data-name="Path 28640" d="M497.072,1044.086a4.849,4.849,0,1,1-4.853,4.811A4.862,4.862,0,0,1,497.072,1044.086Z" transform="translate(-125.044 -28.961)" fill="#1e5fee"/>
    <path id="Path_28641" data-name="Path 28641" d="M364.722,1241.971h-1.628c-.6,0-1.2,0-1.8,0a2.427,2.427,0,0,1-2.519-2.533c0-1.4,0-2.8,0-4.2a4.033,4.033,0,0,1,4.029-4.168c.706-.024,1.414,0,2.148,0-.024.1-.046.167-.056.235a13.887,13.887,0,0,0-.259,1.854c-.029,2.61-.016,5.22-.008,7.83C364.627,1241.306,364.687,1241.627,364.722,1241.971Z" transform="translate(-0.718 -203.149)" fill="#1e5fee"/>
    <path id="Path_28642" data-name="Path 28642" d="M385.51,1113.888a3.625,3.625,0,1,1,3.635,3.621A3.629,3.629,0,0,1,385.51,1113.888Z" transform="translate(-25.629 -90.61)" fill="#1e5fee"/>
    <path id="Path_28643" data-name="Path 28643" d="M642.087,1113.932a3.624,3.624,0,1,1-3.535-3.655A3.638,3.638,0,0,1,642.087,1113.932Z" transform="translate(-257.914 -90.626)" fill="#1e5fee"/>
  </g>
</svg>
