<svg xmlns="http://www.w3.org/2000/svg" width="16" height="16" viewBox="0 0 16 16">
  <g id="Group_11888" data-name="Group 11888" transform="translate(-16 -12)">
    <rect id="Rectangle_8308" data-name="Rectangle 8308" width="16" height="16" transform="translate(16 12)" fill="#fff" opacity="0"/>
    <path id="Clip_2" data-name="Clip 2" d="M1,.918c-1.9,2.35-.673,5.46.293,7.809a17.97,17.97,0,0,0,1.794,3.128c1.072,1.569,3.513,4.55,6.5,4.1,1.287-.194,2.783-1.713,1.759-2.683L9.286,11.135A1.175,1.175,0,0,0,8,11.047l-1.154.674a.732.732,0,0,1-.88-.3,14.939,14.939,0,0,1-2.84-4.952c-.25-.73.185-.912.185-.912l.845-.495A1.176,1.176,0,0,0,4.729,3.9L4.246.885A1.168,1.168,0,0,0,2.985,0,2.725,2.725,0,0,0,1,.918Z" transform="translate(18 12)" fill="#8a94a5"/>
  </g>
</svg>
