<svg xmlns="http://www.w3.org/2000/svg" width="16" height="16" viewBox="0 0 16 16">
  <path id="_9_dot" data-name="9 dot" d="M13,16a1,1,0,0,1-1-1V13a1,1,0,0,1,1-1h2a1,1,0,0,1,1,1v2a1,1,0,0,1-1,1ZM7,16a1,1,0,0,1-1-1V13a1,1,0,0,1,1-1H9a1,1,0,0,1,1,1v2a1,1,0,0,1-1,1ZM1,16a1,1,0,0,1-1-1V13a1,1,0,0,1,1-1H3a1,1,0,0,1,1,1v2a1,1,0,0,1-1,1Zm12-6a1,1,0,0,1-1-1V7a1,1,0,0,1,1-1h2a1,1,0,0,1,1,1V9a1,1,0,0,1-1,1ZM7,10A1,1,0,0,1,6,9V7A1,1,0,0,1,7,6H9a1,1,0,0,1,1,1V9a1,1,0,0,1-1,1ZM1,10A1,1,0,0,1,0,9V7A1,1,0,0,1,1,6H3A1,1,0,0,1,4,7V9a1,1,0,0,1-1,1ZM13,4a1,1,0,0,1-1-1V1a1,1,0,0,1,1-1h2a1,1,0,0,1,1,1V3a1,1,0,0,1-1,1ZM7,4A1,1,0,0,1,6,3V1A1,1,0,0,1,7,0H9a1,1,0,0,1,1,1V3A1,1,0,0,1,9,4ZM1,4A1,1,0,0,1,0,3V1A1,1,0,0,1,1,0H3A1,1,0,0,1,4,1V3A1,1,0,0,1,3,4Z" fill="#8a94a5"/>
</svg>
