<svg xmlns="http://www.w3.org/2000/svg" width="16" height="16" viewBox="0 0 16 16">
  <g id="Group_11889" data-name="Group 11889" transform="translate(-15 -11)">
    <rect id="Rectangle_8309" data-name="Rectangle 8309" width="16" height="16" transform="translate(15 11)" fill="#fff" opacity="0"/>
    <path id="placeholder" d="M-.688,0A5.568,5.568,0,0,0-6.25,5.562C-6.25,9.416-.683,16-.683,16S4.873,9.226,4.873,5.562A5.568,5.568,0,0,0-.688,0ZM.99,7.19a2.366,2.366,0,0,1-1.678.694A2.366,2.366,0,0,1-2.366,7.19a2.376,2.376,0,0,1,0-3.356,2.357,2.357,0,0,1,1.678-.7,2.358,2.358,0,0,1,1.678.7A2.376,2.376,0,0,1,.99,7.19Zm0,0" transform="translate(23.25 11)" fill="#8a94a5"/>
  </g>
</svg>
