<svg xmlns="http://www.w3.org/2000/svg" width="200.727" height="133.171" viewBox="0 0 200.727 133.171">
  <g id="Group_12145" data-name="Group 12145" transform="translate(-735.318 -1279.99)">
    <path id="Path_17686" data-name="Path 17686" d="M90.065,0A31.6,31.6,0,0,1,109.332,5.79l60.046,38.949s10.752,5.607,10.752,14.454-10.752,14.325-10.752,14.325l-60.046,39.114s-6.627,5.756-19.267,5.756-19.649-5.756-19.649-5.756L10.423,73.518S0,67.569,0,59.193,10.423,44.739,10.423,44.739L70.416,5.79A37.97,37.97,0,0,1,90.065,0Z" transform="translate(744.622 1280)" fill="#093"/>
    <path id="Path_17716" data-name="Path 17716" d="M87.772,0a31.314,31.314,0,0,1,18.683,5.431l54.812,36.517s13.912,5.444,13.7,13.552-13.7,15.647-13.7,15.647L106.456,105.6s-6.427,5.4-18.683,5.4-19.053-5.4-19.053-5.4L11.7,68.929S1.594,63.351,1.594,55.5,11.7,41.946,11.7,41.946L68.719,5.428A37.665,37.665,0,0,1,87.772,0Z" transform="translate(746.875 1283.726)" fill="#fff"/>
    <path id="Path_17717" data-name="Path 17717" d="M82.142,1.821A29.163,29.163,0,0,1,99.365,6.75s41.14,27.745,46.453,31.171,13.294,8.01,13.4,13.713-5.564,10.3-12.19,15.359-46.841,29.789-46.841,29.789-6.777,4.9-18.075,4.9-17.837-4.9-17.837-4.9L14.842,63.347S5.525,58.285,5.525,51.158s9.317-12.3,9.317-12.3L64.579,6.75A35.1,35.1,0,0,1,82.142,1.821Z" transform="translate(752.45 1287.133)" fill="#093"/>
    <path id="Path_17689" data-name="Path 17689" d="M773.95,1343.366v7.3s-4.161-.94-6.229-.463-5.588,2.168-5.588,5.818,4.012,5.825,6.361,6.16,6.274-1,6.274-1v6.738s-4.81,1.774-8.228,1.378a17.994,17.994,0,0,1-9.158-4.491,12.419,12.419,0,0,1-3.692-9.229,10.7,10.7,0,0,1,3.692-8.114,15.229,15.229,0,0,1,7.475-4.1C768.262,1342.592,773.95,1343.366,773.95,1343.366Z" transform="translate(-4.934 -17.25)" fill="#fff"/>
    <path id="Exclusion_3" data-name="Exclusion 3" d="M8.982,26.035H0L11.01,0h9.314L30.7,26.033H21.735l-.8-2.609H9.786l-.8,2.609ZM15.164,7.279l-3.245,9.645h6.723Z" transform="translate(771.668 1325.772)" fill="#fff"/>
    <path id="Path_17692" data-name="Path 17692" d="M851.946,1341.986v9.954s-4.5-1.533-6.316-1.3-3.314,1.444-3.285,3.016.1,2.533,3.285,4.219,7.174,4.2,7.342,11.108-4.234,9.4-6.461,10.736-7.826,1.986-10.451,2.062-6.437,0-6.437,0v-11.064a13.209,13.209,0,0,0,5.074.845c2.156-.262,4.211-1.287,4.3-2.879s-.877-2.853-3.029-4.462-3.9-2.453-5.275-4.565a9.887,9.887,0,0,1-1.728-6.283,10.4,10.4,0,0,1,3.207-7.91,13.453,13.453,0,0,1,7.735-4.022C842.595,1340.92,851.946,1341.986,851.946,1341.986Z" transform="translate(-25.534 -16.778)" fill="#fff"/>
    <path id="Path_17693" data-name="Path 17693" d="M868.551,1341.3h12.11s-.125,26.152,0,26.989a3.717,3.717,0,0,0,3.62,3.348c2.755,0,3.225-2.95,3.265-3.348s0-26.989,0-26.989H899.4s.4,28.661,0,30.337-2.648,11.115-15.12,11.115-15.493-8.758-15.73-11.115S868.551,1341.3,868.551,1341.3Z" transform="translate(-36.34 -16.778)" fill="#fff"/>
    <path id="Path_17694" data-name="Path 17694" d="M773.95,1343.366v7.3s-4.161-.94-6.229-.463-5.588,2.168-5.588,5.818,4.012,5.825,6.361,6.16,6.274-1,6.274-1v6.738s-4.81,1.774-8.228,1.378a17.994,17.994,0,0,1-9.158-4.491,12.419,12.419,0,0,1-3.692-9.229,10.7,10.7,0,0,1,3.692-8.114,15.229,15.229,0,0,1,7.475-4.1C768.262,1342.592,773.95,1343.366,773.95,1343.366Z" transform="translate(112.005 -17.25)" fill="#fff"/>
    <path id="Exclusion_2" data-name="Exclusion 2" d="M15.979,26.148a18.97,18.97,0,0,1-6.22-1.027,16.5,16.5,0,0,1-5.079-2.8,13.231,13.231,0,0,1-3.424-4.156,10.94,10.94,0,0,1,0-10.178A13.231,13.231,0,0,1,4.68,3.829a16.5,16.5,0,0,1,5.079-2.8,19.342,19.342,0,0,1,12.44,0,16.5,16.5,0,0,1,5.079,2.8A13.231,13.231,0,0,1,30.7,7.985a10.94,10.94,0,0,1,0,10.178,13.231,13.231,0,0,1-3.425,4.156,16.5,16.5,0,0,1-5.079,2.8A18.972,18.972,0,0,1,15.979,26.148ZM15.253,7.263c-3.6,0-6.537,2.607-6.537,5.811s2.932,5.811,6.537,5.811,6.537-2.607,6.537-5.811S18.857,7.263,15.253,7.263Z" transform="translate(889.888 1325.756)" fill="#fff"/>
    <path id="Path_17695" data-name="Path 17695" d="M6.26,3.173H8.137a3.553,3.553,0,0,0-.42-1.358A3.3,3.3,0,0,0,6.871.821,3.727,3.727,0,0,0,5.711.21,4.442,4.442,0,0,0,4.334,0,4.453,4.453,0,0,0,2.513.358a3.9,3.9,0,0,0-1.364.988A4.4,4.4,0,0,0,.3,2.821,5.509,5.509,0,0,0,0,4.655a5.325,5.325,0,0,0,.3,1.8A4.291,4.291,0,0,0,1.148,7.9a3.9,3.9,0,0,0,1.364.969,4.521,4.521,0,0,0,1.821.352,4.343,4.343,0,0,0,1.494-.247,3.464,3.464,0,0,0,1.185-.716,3.578,3.578,0,0,0,.815-1.136,4.482,4.482,0,0,0,.383-1.494H6.334a2.512,2.512,0,0,1-.611,1.432,1.794,1.794,0,0,1-1.389.543,2.263,2.263,0,0,1-1.111-.253,2.12,2.12,0,0,1-.741-.673,2.92,2.92,0,0,1-.414-.945,4.488,4.488,0,0,1-.13-1.08,4.824,4.824,0,0,1,.13-1.124,2.976,2.976,0,0,1,.414-.969,2.1,2.1,0,0,1,.741-.679A2.263,2.263,0,0,1,4.334,1.63a2.015,2.015,0,0,1,.685.117,1.993,1.993,0,0,1,.587.327,1.949,1.949,0,0,1,.432.488A1.583,1.583,0,0,1,6.26,3.173Z" transform="matrix(0.875, 0.485, -0.485, 0.875, 740.13, 1349.455)" fill="red" stroke="#ff0001" stroke-width="0.5"/>
    <path id="Path_17696" data-name="Path 17696" d="M1.939,6.989a4.824,4.824,0,0,1,.13-1.124A2.976,2.976,0,0,1,2.482,4.9a2.1,2.1,0,0,1,.741-.679,2.263,2.263,0,0,1,1.111-.253,2.263,2.263,0,0,1,1.111.253,2.1,2.1,0,0,1,.741.679,2.976,2.976,0,0,1,.414.969,4.824,4.824,0,0,1,.13,1.124,4.488,4.488,0,0,1-.13,1.08,2.92,2.92,0,0,1-.414.945,2.12,2.12,0,0,1-.741.673,2.263,2.263,0,0,1-1.111.253,2.263,2.263,0,0,1-1.111-.253,2.12,2.12,0,0,1-.741-.673,2.92,2.92,0,0,1-.414-.945A4.488,4.488,0,0,1,1.939,6.989ZM0,6.989a5.325,5.325,0,0,0,.3,1.8,4.291,4.291,0,0,0,.852,1.451,3.9,3.9,0,0,0,1.364.969,4.521,4.521,0,0,0,1.821.352,4.509,4.509,0,0,0,1.827-.352,3.916,3.916,0,0,0,1.358-.969,4.291,4.291,0,0,0,.852-1.451,5.325,5.325,0,0,0,.3-1.8,5.509,5.509,0,0,0-.3-1.834A4.4,4.4,0,0,0,7.52,3.68a3.91,3.91,0,0,0-1.358-.988,4.442,4.442,0,0,0-1.827-.358,4.453,4.453,0,0,0-1.821.358,3.9,3.9,0,0,0-1.364.988A4.4,4.4,0,0,0,.3,5.155,5.509,5.509,0,0,0,0,6.989ZM3.531,0,2.173,1.753H3.494l.79-1,.766,1H6.495L5.137,0Z" transform="matrix(0.819, 0.574, -0.574, 0.819, 750.507, 1353.63)" fill="red" stroke="#ff0001" stroke-width="0.5"/>
    <path id="Path_17697" data-name="Path 17697" d="M0,0V8.816H1.815v-5.9H1.84l3.667,5.9H7.446V0H5.631V5.914H5.606L1.926,0Z" transform="translate(759.175 1362.3) rotate(39)" fill="red" stroke="#ff0001" stroke-width="0.5"/>
    <path id="Path_17698" data-name="Path 17698" d="M6.754,8.026l.2,1H8.186V4.26h-3.7V5.7H6.433a2.12,2.12,0,0,1-.611,1.414,2.1,2.1,0,0,1-1.488.488,2.263,2.263,0,0,1-1.111-.253,2.12,2.12,0,0,1-.741-.673,2.92,2.92,0,0,1-.414-.945,4.488,4.488,0,0,1-.13-1.08,4.824,4.824,0,0,1,.13-1.124,2.976,2.976,0,0,1,.414-.969,2.1,2.1,0,0,1,.741-.679A2.263,2.263,0,0,1,4.334,1.63a1.939,1.939,0,0,1,1.2.37A1.855,1.855,0,0,1,6.2,3.112H8.051A3.238,3.238,0,0,0,6.8.8,3.726,3.726,0,0,0,5.649.2,4.284,4.284,0,0,0,4.334,0,4.453,4.453,0,0,0,2.513.358a3.9,3.9,0,0,0-1.364.988A4.4,4.4,0,0,0,.3,2.821,5.509,5.509,0,0,0,0,4.655a5.325,5.325,0,0,0,.3,1.8A4.291,4.291,0,0,0,1.148,7.9a3.9,3.9,0,0,0,1.364.969,4.521,4.521,0,0,0,1.821.352,3.248,3.248,0,0,0,1.272-.265A2.905,2.905,0,0,0,6.754,8.026Z" transform="matrix(0.819, 0.574, -0.574, 0.819, 767.53, 1368.069)" fill="red" stroke="#ff0001" stroke-width="0.5"/>
    <path id="Path_17699" data-name="Path 17699" d="M2.642,1.63V8.816H4.581V1.63H7.223V0H0V1.63Z" transform="matrix(0.799, 0.602, -0.602, 0.799, 780.521, 1376.666)" fill="red" stroke="#ff0001" stroke-width="0.5"/>
    <path id="Path_17700" data-name="Path 17700" d="M3.235,5.384V8.816H5.174V5.433L8.446,0H6.285L4.235,3.482,2.173,0H0Z" transform="translate(788.242 1382.314) rotate(36)" fill="red" stroke="#ff0001" stroke-width="0.5"/>
    <path id="Path_17701" data-name="Path 17701" d="M0,0V8.816H1.815V2.63H1.84L4,8.816H5.495L7.656,2.568H7.68V8.816H9.5V0H6.766L4.816,6.063H4.791L2.729,0Z" transform="matrix(0.799, 0.602, -0.602, 0.799, 801.265, 1390.617)" fill="red" stroke="#ff0001" stroke-width="0.5"/>
    <path id="Path_17702" data-name="Path 17702" d="M1.939,2.976v8.816H0V2.976ZM3.272,0,1.259,2.186H.037L1.346,0Z" transform="translate(813.169 1395.379) rotate(36)" fill="red" stroke="#ff0001" stroke-width="0.5"/>
    <path id="Path_17703" data-name="Path 17703" d="M3.149,5.408,4.3,2.173h.025L5.433,5.408ZM3.334,0,0,8.816H1.951l.691-1.963h3.3l.667,1.963H8.619L5.322,0Z" transform="translate(813.472 1399.174) rotate(22)" fill="red" stroke="#ff0001" stroke-width="0.5"/>
    <path id="Path_17704" data-name="Path 17704" d="M.785-6.78h-.9V-7.99h.9v-3.655h3.8a4.54,4.54,0,0,1,1.587.272,3.444,3.444,0,0,1,1.272.815,3.754,3.754,0,0,1,.84,1.364,5.507,5.507,0,0,1,.3,1.908,6.108,6.108,0,0,1-.247,1.778A3.912,3.912,0,0,1,7.6-4.1a3.5,3.5,0,0,1-1.247.932,4.22,4.22,0,0,1-1.76.34H.785ZM2.724-7.99H4.7v1.222H2.724v2.309H4.453a2.49,2.49,0,0,0,.815-.136,1.794,1.794,0,0,0,.7-.451,2.265,2.265,0,0,0,.494-.821A3.612,3.612,0,0,0,6.65-7.1a5.14,5.14,0,0,0-.13-1.2,2.4,2.4,0,0,0-.426-.92,1.889,1.889,0,0,0-.784-.587,3.13,3.13,0,0,0-1.2-.2H2.724Z" transform="translate(824.55 1415.376)" fill="red" stroke="#ff0001" stroke-width="0.5"/>
    <path id="Path_17705" data-name="Path 17705" d="M8.395-6.856a3.411,3.411,0,0,1-.963,2.661,3.852,3.852,0,0,1-2.679.871,3.842,3.842,0,0,1-2.679-.864,3.432,3.432,0,0,1-.951-2.667v-5.482H3.061v5.482a4,4,0,0,0,.062.7,1.574,1.574,0,0,0,.241.611,1.3,1.3,0,0,0,.512.432,1.969,1.969,0,0,0,.877.167A1.626,1.626,0,0,0,6.086-5.4a2.313,2.313,0,0,0,.37-1.451v-5.482H8.395v1.506a.818.818,0,0,0,.173.012,1.826,1.826,0,0,0,.827-.247l-.531-.9,1.556-.9.938,1.618-1.346.778a2.67,2.67,0,0,1-1.3.42q-.062,0-.154-.006t-.167-.019Z" transform="translate(834.262 1416.235)" fill="red" stroke="#ff0001" stroke-width="0.5"/>
    <path id="Path_17706" data-name="Path 17706" d="M0,7.421A5.422,5.422,0,0,1,.3,5.593a4.42,4.42,0,0,1,.864-1.482,3.943,3.943,0,0,1,1.377-.988A4.561,4.561,0,0,1,4.4,2.766a4.43,4.43,0,0,1,2.074.463A3.941,3.941,0,0,1,7.915,4.495a1.9,1.9,0,0,0,.938-.247l-.519-.9,1.556-.9.926,1.618L9.471,4.84a3.45,3.45,0,0,1-.562.253,2.488,2.488,0,0,1-.562.142,5.265,5.265,0,0,1,.445,2.186,5.226,5.226,0,0,1-.3,1.8,4.318,4.318,0,0,1-.864,1.451,3.952,3.952,0,0,1-1.377.969A4.631,4.631,0,0,1,4.4,11.99a4.631,4.631,0,0,1-1.852-.352,3.952,3.952,0,0,1-1.377-.969A4.318,4.318,0,0,1,.3,9.217,5.226,5.226,0,0,1,0,7.421Zm1.939,0a4.488,4.488,0,0,0,.13,1.08,2.776,2.776,0,0,0,.426.945,2.2,2.2,0,0,0,.766.673,2.363,2.363,0,0,0,1.136.253,2.363,2.363,0,0,0,1.136-.253A2.2,2.2,0,0,0,6.3,9.446,2.776,2.776,0,0,0,6.723,8.5a4.488,4.488,0,0,0,.13-1.08A4.824,4.824,0,0,0,6.723,6.3,2.829,2.829,0,0,0,6.3,5.328a2.176,2.176,0,0,0-.766-.679A2.363,2.363,0,0,0,4.4,4.4a2.363,2.363,0,0,0-1.136.253,2.176,2.176,0,0,0-.766.679,2.829,2.829,0,0,0-.426.969A4.824,4.824,0,0,0,1.939,7.421ZM3.988,0,5.3,2.186H4.075L2.062,0Z" transform="translate(843.725 1400.936) rotate(-24)" fill="red" stroke="#ff0001" stroke-width="0.5"/>
    <path id="Path_17707" data-name="Path 17707" d="M0,0V8.816H1.815v-5.9H1.84l3.667,5.9H7.446V0H5.631V5.914H5.606L1.926,0Z" transform="matrix(0.788, -0.616, 0.616, 0.788, 854.552, 1400.889)" fill="red" stroke="#ff0001" stroke-width="0.5"/>
    <path id="Path_17708" data-name="Path 17708" d="M6.754,8.026l.2,1H8.186V4.26h-3.7V5.7H6.433a2.12,2.12,0,0,1-.611,1.414,2.1,2.1,0,0,1-1.488.488,2.263,2.263,0,0,1-1.111-.253,2.12,2.12,0,0,1-.741-.673,2.92,2.92,0,0,1-.414-.945,4.488,4.488,0,0,1-.13-1.08,4.824,4.824,0,0,1,.13-1.124,2.976,2.976,0,0,1,.414-.969,2.1,2.1,0,0,1,.741-.679A2.263,2.263,0,0,1,4.334,1.63a1.939,1.939,0,0,1,1.2.37A1.855,1.855,0,0,1,6.2,3.112H8.051A3.238,3.238,0,0,0,6.8.8,3.726,3.726,0,0,0,5.649.2,4.284,4.284,0,0,0,4.334,0,4.453,4.453,0,0,0,2.513.358a3.9,3.9,0,0,0-1.364.988A4.4,4.4,0,0,0,.3,2.821,5.509,5.509,0,0,0,0,4.655a5.325,5.325,0,0,0,.3,1.8A4.291,4.291,0,0,0,1.148,7.9a3.9,3.9,0,0,0,1.364.969,4.521,4.521,0,0,0,1.821.352,3.248,3.248,0,0,0,1.272-.265A2.905,2.905,0,0,0,6.754,8.026Z" transform="matrix(0.809, -0.588, 0.588, 0.809, 863.038, 1394.98)" fill="red" stroke="#ff0001" stroke-width="0.5"/>
    <path id="Path_17709" data-name="Path 17709" d="M6.26,3.173H8.137a3.553,3.553,0,0,0-.42-1.358A3.3,3.3,0,0,0,6.871.821,3.727,3.727,0,0,0,5.711.21,4.442,4.442,0,0,0,4.334,0,4.453,4.453,0,0,0,2.513.358a3.9,3.9,0,0,0-1.364.988A4.4,4.4,0,0,0,.3,2.821,5.509,5.509,0,0,0,0,4.655a5.325,5.325,0,0,0,.3,1.8A4.291,4.291,0,0,0,1.148,7.9a3.9,3.9,0,0,0,1.364.969,4.521,4.521,0,0,0,1.821.352,4.343,4.343,0,0,0,1.494-.247,3.464,3.464,0,0,0,1.185-.716,3.578,3.578,0,0,0,.815-1.136,4.482,4.482,0,0,0,.383-1.494H6.334a2.512,2.512,0,0,1-.611,1.432,1.794,1.794,0,0,1-1.389.543,2.263,2.263,0,0,1-1.111-.253,2.12,2.12,0,0,1-.741-.673,2.92,2.92,0,0,1-.414-.945,4.488,4.488,0,0,1-.13-1.08,4.824,4.824,0,0,1,.13-1.124,2.976,2.976,0,0,1,.414-.969,2.1,2.1,0,0,1,.741-.679A2.263,2.263,0,0,1,4.334,1.63a2.015,2.015,0,0,1,.685.117,1.993,1.993,0,0,1,.587.327,1.949,1.949,0,0,1,.432.488A1.583,1.583,0,0,1,6.26,3.173Z" transform="translate(875.495 1386.151) rotate(-31)" fill="red" stroke="#ff0001" stroke-width="0.5"/>
    <path id="Path_17710" data-name="Path 17710" d="M6,10.211H2.581l-.7,1.877H0l3.334-7.94H5.322l3.3,7.94H6.7Zm-2.926-1.3H5.519l-1.21-3.26ZM5.112,1.692,6.47,3.445H5.025l-.766-1-.79,1H2.148L3.507,1.692ZM6.692,0,8,2.186H6.779L4.766,0Z" transform="matrix(0.819, -0.574, 0.574, 0.819, 882.429, 1378.135)" fill="red" stroke="#ff0001" stroke-width="0.5"/>
    <path id="Path_17711" data-name="Path 17711" d="M0,0V8.816H1.815v-5.9H1.84l3.667,5.9H7.446V0H5.631V5.914H5.606L1.926,0Z" transform="matrix(0.799, -0.602, 0.602, 0.799, 893.537, 1374.719)" fill="red" stroke="#ff0001" stroke-width="0.5"/>
    <path id="Path_17712" data-name="Path 17712" d="M2.642,1.63V8.816H4.581V1.63H7.223V0H0V1.63Z" transform="translate(906.755 1366.923) rotate(-37)" fill="red" stroke="#ff0001" stroke-width="0.5"/>
    <path id="Path_17713" data-name="Path 17713" d="M0,0V8.816H1.939v-3.8H5.507v3.8H7.446V0H5.507V3.383H1.939V0Z" transform="translate(914.943 1361.493) rotate(-39)" fill="red" stroke="#ff0001" stroke-width="0.5"/>
    <path id="Path_17714" data-name="Path 17714" d="M0,4.976A5.422,5.422,0,0,1,.3,3.149a4.42,4.42,0,0,1,.864-1.482A3.943,3.943,0,0,1,2.544.679,4.561,4.561,0,0,1,4.4.321,4.43,4.43,0,0,1,6.47.784,3.941,3.941,0,0,1,7.915,2.05,1.9,1.9,0,0,0,8.853,1.8L8.335.9,9.89,0l.926,1.618L9.471,2.4a3.45,3.45,0,0,1-.562.253,2.488,2.488,0,0,1-.562.142,5.265,5.265,0,0,1,.445,2.186,5.226,5.226,0,0,1-.3,1.8,4.318,4.318,0,0,1-.864,1.451,3.952,3.952,0,0,1-1.377.969A4.631,4.631,0,0,1,4.4,9.545a4.631,4.631,0,0,1-1.852-.352,3.952,3.952,0,0,1-1.377-.969A4.318,4.318,0,0,1,.3,6.773,5.226,5.226,0,0,1,0,4.976Zm1.939,0a4.488,4.488,0,0,0,.13,1.08A2.776,2.776,0,0,0,2.494,7a2.2,2.2,0,0,0,.766.673A2.363,2.363,0,0,0,4.4,7.927a2.363,2.363,0,0,0,1.136-.253A2.2,2.2,0,0,0,6.3,7a2.776,2.776,0,0,0,.426-.945,4.488,4.488,0,0,0,.13-1.08,4.824,4.824,0,0,0-.13-1.124A2.829,2.829,0,0,0,6.3,2.883,2.176,2.176,0,0,0,5.532,2.2,2.363,2.363,0,0,0,4.4,1.951,2.363,2.363,0,0,0,3.26,2.2a2.176,2.176,0,0,0-.766.679,2.829,2.829,0,0,0-.426.969A4.824,4.824,0,0,0,1.939,4.976Z" transform="translate(921.984 1357.804) rotate(-60)" fill="red" stroke="#ff0001" stroke-width="0.5"/>
    <path id="Path_17715" data-name="Path 17715" d="M1.824-11.5a5.759,5.759,0,0,1,.787-2.96,5.8,5.8,0,0,1,2.132-2.125,5.772,5.772,0,0,1,2.946-.78,5.735,5.735,0,0,1,2.939.78,5.76,5.76,0,0,1,2.118,2.125,5.8,5.8,0,0,1,.78,2.96,5.8,5.8,0,0,1-.78,2.96,5.813,5.813,0,0,1-2.118,2.132,5.7,5.7,0,0,1-2.939.787,5.733,5.733,0,0,1-2.946-.787A5.85,5.85,0,0,1,2.611-8.541,5.759,5.759,0,0,1,1.824-11.5Zm.911,0A5.147,5.147,0,0,0,3.39-8.948,4.947,4.947,0,0,0,5.177-7.092a4.766,4.766,0,0,0,2.512.683,4.706,4.706,0,0,0,2.5-.69,4.962,4.962,0,0,0,1.78-1.856,5.151,5.151,0,0,0,.649-2.546,5.178,5.178,0,0,0-.649-2.56,4.909,4.909,0,0,0-1.78-1.849,4.741,4.741,0,0,0-2.5-.683,4.766,4.766,0,0,0-2.519.69,4.945,4.945,0,0,0-1.787,1.856A5.151,5.151,0,0,0,2.735-11.5Zm2.8-2.4-.58-.152v-.69H6.171q.331.014.911-.014.414-.028.745-.028a3.127,3.127,0,0,1,1.891.469,1.508,1.508,0,0,1,.621,1.27A2.137,2.137,0,0,1,9.98-11.8a1.666,1.666,0,0,1-1.076.669,1.617,1.617,0,0,1,.7.518,3.982,3.982,0,0,1,.428.835,2.92,2.92,0,0,0,.311.628.55.55,0,0,0,.449.214v.676H9.525a.539.539,0,0,1-.5-.276A4.051,4.051,0,0,1,8.7-9.389a4.621,4.621,0,0,0-.352-.952,1.013,1.013,0,0,0-.573-.483H6.889v1.808l.662.138v.621H4.957v-.621l.58-.166Zm1.352,2.236a4.784,4.784,0,0,0,.925.055.921.921,0,0,0,.738-.359,1.32,1.32,0,0,0,.3-.869,1.191,1.191,0,0,0-.29-.9,1.306,1.306,0,0,0-.911-.269,3.275,3.275,0,0,0-.759.069Z" transform="translate(826.982 1314.529)" fill="#fff"/>
  </g>
</svg>
