<svg xmlns="http://www.w3.org/2000/svg" width="16" height="16" viewBox="0 0 16 16">
  <g id="icon-video-question" transform="translate(-506.948 -1129.449)">
    <rect id="container" width="16" height="16" rx="4" transform="translate(506.948 1129.449)" fill="#fff" opacity="0"/>
    <path id="Path_1" data-name="Path 1" d="M518.96,1134.171l.968-.5c.6-.308,1.211-.594,1.794-.931a.816.816,0,0,1,1.222.665,1.7,1.7,0,0,1,0,.175q0,3.1,0,6.194a.785.785,0,0,1-1.208.752c-.851-.419-1.7-.846-2.546-1.269-.073-.036-.147-.07-.239-.114a2.769,2.769,0,0,1-.59,1.451,2.4,2.4,0,0,1-1.911.865c-.491.007-.982,0-1.474,0a.42.42,0,0,1-.333-.574c.2-.564.726-.825,1.081-1.243a3.519,3.519,0,0,0-.535-5.13,3.628,3.628,0,0,0-4.982.6,2.256,2.256,0,0,0-.662,1.641,1.9,1.9,0,0,0,1.289,1.675c.136.042.167.1.157.245a3.233,3.233,0,0,0,.31,2.221c.083.12-.135.561-.28.559a11.2,11.2,0,0,1-2.265-.077,2.309,2.309,0,0,1-1.806-2.254q-.007-2.473,0-4.946a2.3,2.3,0,0,1,2.235-2.3q3.721-.032,7.443,0a2.356,2.356,0,0,1,2.267,1.959C518.917,1133.94,518.937,1134.044,518.96,1134.171Z" fill="#8a94a5"/>
    <path id="Path_2" data-name="Path 2" d="M547.381,1167.32c0-.1,0-.2,0-.3a.768.768,0,0,1,.813-.889.787.787,0,0,0,.76-1.02.819.819,0,0,0-1.322-.368,1.678,1.678,0,0,0-.21.246.831.831,0,0,1-1.127.231.789.789,0,0,1-.243-1.132,2.356,2.356,0,0,1,3.217-.837,2.4,2.4,0,0,1,.881,3.312,2.122,2.122,0,0,1-1.006.934.246.246,0,0,0-.174.26.744.744,0,0,1-.8.771.767.767,0,0,1-.794-.784C547.377,1167.6,547.381,1167.462,547.381,1167.32Z" transform="translate(-35.069 -27.959)" fill="#8a94a5"/>
    <path id="Path_3" data-name="Path 3" d="M559.79,1229.474a.733.733,0,0,1-.815-.765.8.8,0,0,1,1.607-.021A.724.724,0,0,1,559.79,1229.474Z" transform="translate(-46.826 -86.439)" fill="#8a94a5"/>
  </g>
</svg>
