<svg xmlns="http://www.w3.org/2000/svg" width="16" height="16" viewBox="0 0 16 16">
  <g id="icon-checkmark" transform="translate(-3398 129)">
    <rect id="Rectangle" width="16" height="16" transform="translate(3398 -129)" fill="#133fa2" opacity="0"/>
    <path id="Path" d="M7.8,1.976a6.361,6.361,0,0,0,2.563-.523A6.8,6.8,0,0,0,12.482.014,6.767,6.767,0,0,0,13.918-2.1a6.389,6.389,0,0,0,.52-2.567,6.361,6.361,0,0,0-.523-2.563,6.846,6.846,0,0,0-1.439-2.123,6.68,6.68,0,0,0-2.119-1.436,6.433,6.433,0,0,0-2.563-.516,6.409,6.409,0,0,0-2.56.516A6.732,6.732,0,0,0,3.114-9.355,6.769,6.769,0,0,0,1.675-7.232a6.4,6.4,0,0,0-.52,2.563A6.353,6.353,0,0,0,1.678-2.1,6.816,6.816,0,0,0,3.117.014,6.816,6.816,0,0,0,5.233,1.453,6.353,6.353,0,0,0,7.8,1.976ZM7.082-1.49a.65.65,0,0,1-.328-.082.97.97,0,0,1-.273-.246L4.881-3.78a.691.691,0,0,1-.171-.437.566.566,0,0,1,.161-.407.532.532,0,0,1,.4-.167.567.567,0,0,1,.263.062.716.716,0,0,1,.236.219L7.055-2.871,9.769-7.226a.575.575,0,0,1,.492-.321.629.629,0,0,1,.407.147.473.473,0,0,1,.181.386.534.534,0,0,1-.051.222,1.526,1.526,0,0,1-.12.215L7.649-1.825A.645.645,0,0,1,7.082-1.49Z" transform="translate(3398.204 -116.334)" fill="#133fa2"/>
  </g>
</svg>
