<svg xmlns="http://www.w3.org/2000/svg" width="115.615" height="35.124" viewBox="0 0 115.615 35.124">
  <g id="Group_12296" data-name="Group 12296" transform="translate(-685.976 -72)">
    <g id="Group_9733" data-name="Group 9733" transform="translate(761.1 72)">
      <path id="Path_15" data-name="Path 15" d="M109.669,15.4a5.3,5.3,0,0,0-4.961,3.334c-.051.1-.178.5-.178.5L101.4,31.977h7.2a5.325,5.325,0,0,0,5.165-3.93h0l3.1-12.623h-7.2Z" transform="translate(-77.08 -11.482)" fill="#0db14b"/>
      <path id="Path_16" data-name="Path 16" d="M57.2,0a5.265,5.265,0,0,0-5.089,3.7c-.051.17-.076.316-.127.486L47.1,24.413h7.2a5.245,5.245,0,0,0,5.114-3.842h0L64.4,0Z" transform="translate(-35.828 0)" fill="#f37021"/>
      <path id="Path_17" data-name="Path 17" d="M8.269,15.4a5.3,5.3,0,0,0-5.038,3.549c-.025.048-.025.1-.051.143l-.127.453L0,31.977H7.379a5.151,5.151,0,0,0,4.834-3.287l.28-1.191L15.47,15.424h-7.2Z" transform="translate(0 -11.482)" fill="#0066b3"/>
      <path id="Path_18" data-name="Path 18" d="M15.345,32.725h-.127a2.326,2.326,0,0,0-1.45.534,2.412,2.412,0,0,0-.814,1.12h0L11.3,41.554h.1a2.17,2.17,0,0,0,1.45-.56,2.21,2.21,0,0,0,.84-1.323l.356-1.552H17.33a2.3,2.3,0,0,0,1.45-.56,2.209,2.209,0,0,0,.84-1.323l.025-.1H14.48l.356-1.476h4.453a2.326,2.326,0,0,0,1.45-.534,2.473,2.473,0,0,0,.84-1.323l.025-.1Z" transform="translate(-8.425 -24.944)" fill="#fff"/>
      <path id="Path_19" data-name="Path 19" d="M71.239,33.233a1.517,1.517,0,0,0-1.094-.433h-6.31L61.8,41.654h.1a2.17,2.17,0,0,0,1.45-.56,2.209,2.209,0,0,0,.84-1.323l.356-1.577H68.9a2.119,2.119,0,0,0,1.425-.407,2.8,2.8,0,0,0,.89-1.45l.382-1.628a1.976,1.976,0,0,0,.051-.407,1.438,1.438,0,0,0-.407-1.069m-1.959,3H65.031l.356-1.476h4.249Z" transform="translate(-46.891 -25.021)" fill="#fff"/>
      <path id="Path_20" data-name="Path 20" d="M126.337,33.233a1.475,1.475,0,0,0-1.094-.433h-6.666l-.025.051a1.959,1.959,0,0,0-.051.382,1.438,1.438,0,0,0,.407,1.069,1.475,1.475,0,0,0,1.094.433h1.4l-1.577,6.87h.1a2.17,2.17,0,0,0,1.45-.56,2.21,2.21,0,0,0,.84-1.323l1.17-5.012h3.282l.025-.051a1.977,1.977,0,0,0,.051-.407,1.4,1.4,0,0,0-.407-1.018" transform="translate(-89.87 -25.019)" fill="#fff"/>
      <path id="Path_21" data-name="Path 21" d="M154.3,74.527a1.527,1.527,0,1,1,1.527,1.527,1.531,1.531,0,0,1-1.527-1.527m2.7,0a1.147,1.147,0,1,0-1.145,1.221A1.175,1.175,0,0,0,157,74.527m-1.755-.865h.636c.407,0,.636.153.636.509,0,.305-.178.433-.458.458l.458.763h-.331l-.458-.738h-.2v.738h-.28Zm.331.738h.28c.178,0,.356-.025.356-.254,0-.2-.178-.229-.356-.229h-.28Z" transform="translate(-116.862 -55.361)" fill="#fff"/>
    </g>
    <path id="Path_28677" data-name="Path 28677" d="M1.976,0H13V-3.172H5.486V-17.16H1.976ZM14.222-8.58a8.935,8.935,0,0,0,9.1,8.892A8.979,8.979,0,0,0,32.474-8.58a8.979,8.979,0,0,0-9.152-8.892A8.935,8.935,0,0,0,14.222-8.58Zm14.638,0a5.4,5.4,0,0,1-5.512,5.642A5.389,5.389,0,0,1,17.836-8.58a5.389,5.389,0,0,1,5.512-5.642A5.434,5.434,0,0,1,28.86-8.58Zm5.59,0A8.937,8.937,0,0,0,43.628.312,9.207,9.207,0,0,0,48.464-.962a9.089,9.089,0,0,0,3.354-3.38v-5.07H43.576V-6.37h4.732v1.4a5.4,5.4,0,0,1-4.524,2.132,5.494,5.494,0,0,1-5.72-5.746,5.345,5.345,0,0,1,5.512-5.642A5.624,5.624,0,0,1,48.36-11.7l2.5-2.054a8.6,8.6,0,0,0-7.228-3.718A8.906,8.906,0,0,0,34.45-8.58Zm19.422,0a8.935,8.935,0,0,0,9.1,8.892A8.979,8.979,0,0,0,72.124-8.58a8.979,8.979,0,0,0-9.152-8.892A8.935,8.935,0,0,0,53.872-8.58Zm14.638,0A5.4,5.4,0,0,1,63-2.938,5.389,5.389,0,0,1,57.486-8.58,5.389,5.389,0,0,1,63-14.222,5.434,5.434,0,0,1,68.51-8.58Z" transform="translate(684 106.811)" fill="#fff"/>
  </g>
</svg>
