<svg xmlns="http://www.w3.org/2000/svg" width="80" height="79.999" viewBox="0 0 80 79.999">
  <g id="Group_12196" data-name="Group 12196" transform="translate(-981 -509)">
    <g id="Group_12178" data-name="Group 12178">
      <path id="Subtraction_1" data-name="Subtraction 1" d="M-3018.5-9984h-1.5v-24h24v1.5h-22.5v22.5Z" transform="translate(4001 10517)" fill="#a2aab7"/>
      <path id="Subtraction_3" data-name="Subtraction 3" d="M24,24H0V0H1.5V22.5H24V24Z" transform="translate(981 564.999)" fill="#a2aab7"/>
      <path id="Subtraction_4" data-name="Subtraction 4" d="M1.5,24H0V0H24V1.5H1.5V24Z" transform="translate(1061 588.999) rotate(180)" fill="#a2aab7"/>
      <path id="Subtraction_2" data-name="Subtraction 2" d="M24,24H0V0H1.5V22.5H24V24Z" transform="translate(1061 532.999) rotate(180)" fill="#a2aab7"/>
    </g>
    <g id="Group_12177" data-name="Group 12177" transform="translate(-4 -10)">
      <path id="Path_28651" data-name="Path 28651" d="M440.324,1118H422v-40h40v40H443.832l1.976-.153a25.073,25.073,0,0,0,7.657-1.638,8.317,8.317,0,0,0,3.5-2.383,1.141,1.141,0,0,0,.245-.7c-.1-2.139-.2-4.28-.381-6.413a9.178,9.178,0,0,0-1.131-3.7,7.465,7.465,0,0,0-3.846-3.2,24.952,24.952,0,0,0-5.209-1.417.572.572,0,0,0-.364.119c-.364.246-.7.548-1.077.759a6.65,6.65,0,0,1-3.847.708,5.746,5.746,0,0,1-3.566-1.466.489.489,0,0,0-.362-.12,25.105,25.105,0,0,0-5.1,1.371,7.544,7.544,0,0,0-5.029,6.517,44.271,44.271,0,0,0-.438,6.875,1.145,1.145,0,0,0,.245.66,7.233,7.233,0,0,0,2.653,2,23.508,23.508,0,0,0,8.429,2.021C438.9,1117.9,439.612,1117.948,440.324,1118Zm9.728-31.027a14.694,14.694,0,0,0-.667-4.447,5.92,5.92,0,0,0-4.228-4.045,11.736,11.736,0,0,0-6.236,0,5.619,5.619,0,0,0-3.959,3.4,14.743,14.743,0,0,0-.658,8.5,9.193,9.193,0,0,0,3.763,5.936,6.6,6.6,0,0,0,4.979,1.2,7.6,7.6,0,0,0,5.292-3.627A11.277,11.277,0,0,0,450.052,1086.973Z" transform="translate(583 -539)" fill="#a2aab7" opacity="0"/>
      <path id="Path_28652" data-name="Path 28652" d="M469.506,1240.4c-.711-.052-1.424-.1-2.134-.158a23.526,23.526,0,0,1-8.429-2.021,7.238,7.238,0,0,1-2.653-2,1.147,1.147,0,0,1-.245-.661,44.273,44.273,0,0,1,.438-6.875,7.544,7.544,0,0,1,5.029-6.517,25.1,25.1,0,0,1,5.1-1.371.489.489,0,0,1,.362.121,5.752,5.752,0,0,0,3.566,1.466,6.655,6.655,0,0,0,3.847-.708c.382-.21.713-.513,1.078-.759a.57.57,0,0,1,.364-.119,24.954,24.954,0,0,1,5.209,1.417,7.464,7.464,0,0,1,3.846,3.2,9.181,9.181,0,0,1,1.131,3.7c.185,2.133.276,4.274.381,6.413a1.141,1.141,0,0,1-.245.7,8.322,8.322,0,0,1-3.5,2.383,25.081,25.081,0,0,1-7.657,1.638c-.659.052-1.318.1-1.976.154Z" transform="translate(553.818 -661.396)" fill="#a2aab7"/>
      <path id="Path_28653" data-name="Path 28653" d="M521.882,1087.324a11.277,11.277,0,0,1-1.714,6.909,7.6,7.6,0,0,1-5.292,3.628,6.6,6.6,0,0,1-4.979-1.2,9.194,9.194,0,0,1-3.763-5.936,14.743,14.743,0,0,1,.658-8.5,5.618,5.618,0,0,1,3.959-3.4,11.734,11.734,0,0,1,6.236,0,5.918,5.918,0,0,1,4.228,4.045A14.7,14.7,0,0,1,521.882,1087.324Z" transform="translate(511.17 -539.352)" fill="#a2aab7"/>
    </g>
  </g>
</svg>
