<svg xmlns="http://www.w3.org/2000/svg" width="18.097" height="20" viewBox="0 0 18.097 20">
  <g id="ballot" transform="translate(-2)">
    <path id="Path_17573" data-name="Path 17573" d="M17.857,7.315,13.884,3.288c-2.116.717-9.534,1.1-7.841,6.9,0,.017.009.035.009.052H8.3a.485.485,0,0,1,.052-.141,2.719,2.719,0,0,1,2.22-1.374,2.821,2.821,0,0,1,2.493,1.322.451.451,0,0,1-.035.564l-.441.441L9.637,14a1.182,1.182,0,0,0-.229,1.41,1.147,1.147,0,0,0,1.753.22l2.713-2.758,1.11-1.127Z" transform="translate(-0.632 -0.548)"/>
    <path id="Path_17574" data-name="Path 17574" d="M20.932,6.775c.3,0,.333-.207,1.3-1.128a.437.437,0,0,0,0-.626C17.191.046,17.382,0,17.03,0a.442.442,0,0,0-.308.132c-.863.919-1.092.958-1.092,1.277,0,.257.191.356.3.493.087.052,4.6,4.654,4.687,4.74a.559.559,0,0,0,.318.132Z" transform="translate(-2.272)"/>
    <path id="Path_17575" data-name="Path 17575" d="M8.425,15.05s2.508-2.542,2.5-2.55H2.417A.413.413,0,0,0,2,12.917v8.75a.413.413,0,0,0,.417.417h10.85a.418.418,0,0,0,.417-.417V15.083l-2.642,2.683a1.9,1.9,0,0,1-1.35.558,1.88,1.88,0,0,1-1.53-2.963,2.4,2.4,0,0,1,.263-.312Zm-.262.312a2.136,2.136,0,0,1,.254-.312A2.251,2.251,0,0,0,8.163,15.362Z" transform="translate(0 -2.083)"/>
  </g>
</svg>
