<svg xmlns="http://www.w3.org/2000/svg" width="19.889" height="20" viewBox="0 0 19.889 20">
  <g id="join-files-button" transform="translate(-1.357)">
    <path id="Path_17579" data-name="Path 17579" d="M19.64,0H8.915A1.608,1.608,0,0,0,7.308,1.607V5.95H2.963A1.608,1.608,0,0,0,1.357,7.557V18.283a1.608,1.608,0,0,0,1.606,1.606h8.068c-.01-.049-.022-.1-.028-.146l-.22-1.889H3.393V7.986H7.308v4.345a1.608,1.608,0,0,0,1.607,1.606h1.413L10.09,11.9H9.344V7.986H13.26V9.215l2.036,1V7.556A1.608,1.608,0,0,0,13.69,5.95H9.344V2.036H19.21V11.9h-.469l1.98.971a1.827,1.827,0,0,1,.329.213,1.59,1.59,0,0,0,.2-.755V1.607A1.608,1.608,0,0,0,19.64,0Z"/>
    <path id="Path_17580" data-name="Path 17580" d="M253.364,249.806l-8.149-4a.472.472,0,0,0-.206-.048.467.467,0,0,0-.465.522l1.049,9.017a.468.468,0,0,0,.336.4.454.454,0,0,0,.129.019.468.468,0,0,0,.365-.176l2.742-3.432,4.145-1.439a.468.468,0,0,0,.053-.862Z" transform="translate(-233.243 -235.716)"/>
  </g>
</svg>
