<svg id="coupon" xmlns="http://www.w3.org/2000/svg" width="20" height="18.671" viewBox="0 0 20 18.671">
  <path id="Path_17581" data-name="Path 17581" d="M107.807,222.991a.91.91,0,1,0,.675.879A.808.808,0,0,0,107.807,222.991Z" transform="translate(-102.948 -214.945)"/>
  <path id="Path_17582" data-name="Path 17582" d="M259.171,341.981a.91.91,0,1,0,.675.879A.809.809,0,0,0,259.171,341.981Z" transform="translate(-248.399 -329.287)"/>
  <path id="Path_17583" data-name="Path 17583" d="M14.6,22.583c-5.941-5.466-5.637-5.258-6.109-5.441a1.949,1.949,0,0,0-2.022.38l-5.5,5.061A3.024,3.024,0,0,0,0,24.8v8.961a1.913,1.913,0,0,0,1.905,1.915H13.671a1.913,1.913,0,0,0,1.905-1.915V24.8a3.025,3.025,0,0,0-.973-2.221ZM7.221,20.662a.586.586,0,1,1,.468.632A.585.585,0,0,1,7.221,20.662ZM3.013,25.935a1.959,1.959,0,0,1,1.846-2.051,2.062,2.062,0,0,1,0,4.1,1.959,1.959,0,0,1-1.846-2.051Zm3.359,6.237a.587.587,0,0,1-.54-.813l2.852-6.8a.586.586,0,1,1,1.081.454l-2.853,6.8a.586.586,0,0,1-.541.359Zm4.4.462a2.062,2.062,0,0,1,0-4.1,2.062,2.062,0,0,1,0,4.1Z" transform="translate(0 -17.01)"/>
  <path id="Path_17584" data-name="Path 17584" d="M292.316,47.1c-1.908-5.554-2.967-8.641-2.982-8.677a2.993,2.993,0,0,0-1.768-1.638c-.045-.015.223.05-4.027-.959l4.321,3.976a4.2,4.2,0,0,1,1.352,3.084v7.594l2.108-.9A1.9,1.9,0,0,0,292.316,47.1Z" transform="translate(-272.463 -35.096)"/>
</svg>
