<svg id="vote" xmlns="http://www.w3.org/2000/svg" width="20" height="20" viewBox="0 0 20 20">
  <path id="Path_17576" data-name="Path 17576" d="M98.446,10.586h6.174l6.026-3.479a.586.586,0,0,0,.215-.8L107.344.293a.586.586,0,0,0-.8-.215L96.395,5.862a.587.587,0,0,0-.215.8Zm3.488-4.516a.586.586,0,0,1,.829,0l.5.5.873-2.616a.586.586,0,0,1,1.111.371l-1.172,3.516a.586.586,0,0,1-.97.229L101.934,6.9A.586.586,0,0,1,101.934,6.07Zm0,0" transform="translate(-92.348 0)"/>
  <path id="Path_17577" data-name="Path 17577" d="M19.414,211h-.739l-4.059,2.344h1.244a.586.586,0,1,1,0,1.172H4.141a.586.586,0,0,1,0-1.172h.6L3.391,211H.586a.586.586,0,0,0-.586.586v4.1H20v-4.1A.586.586,0,0,0,19.414,211Zm0,0" transform="translate(0 -202.758)"/>
  <path id="Path_17578" data-name="Path 17578" d="M0,366.313a.586.586,0,0,0,.586.586H19.414a.586.586,0,0,0,.586-.586V361H0Zm0,0" transform="translate(0 -346.898)"/>
</svg>
