<svg xmlns="http://www.w3.org/2000/svg" xmlns:xlink="http://www.w3.org/1999/xlink" width="746.064" height="50.737" viewBox="0 0 746.064 50.737">
  <defs>
    <filter id="Path_17523" x="0" y="13.739" width="29.989" height="29.451" filterUnits="userSpaceOnUse">
      <feOffset dx="0.5" dy="1" input="SourceAlpha"/>
      <feGaussianBlur stdDeviation="0.75" result="blur"/>
      <feFlood flood-opacity="0.902"/>
      <feComposite operator="in" in2="blur"/>
      <feComposite in="SourceGraphic"/>
    </filter>
    <filter id="Path_17524" x="24.607" y="13.364" width="29.918" height="37.123" filterUnits="userSpaceOnUse">
      <feOffset dx="0.5" dy="1" input="SourceAlpha"/>
      <feGaussianBlur stdDeviation="0.75" result="blur-2"/>
      <feFlood flood-opacity="0.902"/>
      <feComposite operator="in" in2="blur-2"/>
      <feComposite in="SourceGraphic"/>
    </filter>
    <filter id="Path_17525" x="51.204" y="13.739" width="13.57" height="29.201" filterUnits="userSpaceOnUse">
      <feOffset dx="0.5" dy="1" input="SourceAlpha"/>
      <feGaussianBlur stdDeviation="0.75" result="blur-3"/>
      <feFlood flood-opacity="0.902"/>
      <feComposite operator="in" in2="blur-3"/>
      <feComposite in="SourceGraphic"/>
    </filter>
    <filter id="Path_17526" x="70.313" y="13.739" width="28.282" height="29.139" filterUnits="userSpaceOnUse">
      <feOffset dx="0.5" dy="1" input="SourceAlpha"/>
      <feGaussianBlur stdDeviation="0.75" result="blur-4"/>
      <feFlood flood-opacity="0.902"/>
      <feComposite operator="in" in2="blur-4"/>
      <feComposite in="SourceGraphic"/>
    </filter>
    <filter id="Path_17527" x="95.155" y="7.064" width="28.578" height="43.673" filterUnits="userSpaceOnUse">
      <feOffset dx="0.5" dy="1" input="SourceAlpha"/>
      <feGaussianBlur stdDeviation="0.75" result="blur-5"/>
      <feFlood flood-opacity="0.902"/>
      <feComposite operator="in" in2="blur-5"/>
      <feComposite in="SourceGraphic"/>
    </filter>
    <filter id="Path_17528" x="121.128" y="13.739" width="13.57" height="29.201" filterUnits="userSpaceOnUse">
      <feOffset dx="0.5" dy="1" input="SourceAlpha"/>
      <feGaussianBlur stdDeviation="0.75" result="blur-6"/>
      <feFlood flood-opacity="0.902"/>
      <feComposite operator="in" in2="blur-6"/>
      <feComposite in="SourceGraphic"/>
    </filter>
    <filter id="Path_17529" x="139.504" y="13.739" width="29.989" height="29.451" filterUnits="userSpaceOnUse">
      <feOffset dx="0.5" dy="1" input="SourceAlpha"/>
      <feGaussianBlur stdDeviation="0.75" result="blur-7"/>
      <feFlood flood-opacity="0.902"/>
      <feComposite operator="in" in2="blur-7"/>
      <feComposite in="SourceGraphic"/>
    </filter>
    <filter id="Path_17530" x="166.357" y="3.603" width="32.351" height="39.275" filterUnits="userSpaceOnUse">
      <feOffset dx="0.5" dy="1" input="SourceAlpha"/>
      <feGaussianBlur stdDeviation="0.75" result="blur-8"/>
      <feFlood flood-opacity="0.902"/>
      <feComposite operator="in" in2="blur-8"/>
      <feComposite in="SourceGraphic"/>
    </filter>
    <filter id="Path_17531" x="191.846" y="13.926" width="28.347" height="29.295" filterUnits="userSpaceOnUse">
      <feOffset dx="0.5" dy="1" input="SourceAlpha"/>
      <feGaussianBlur stdDeviation="0.75" result="blur-9"/>
      <feFlood flood-opacity="0.902"/>
      <feComposite operator="in" in2="blur-9"/>
      <feComposite in="SourceGraphic"/>
    </filter>
    <filter id="Path_17532" x="217.34" y="13.739" width="27.09" height="32.133" filterUnits="userSpaceOnUse">
      <feOffset dx="0.5" dy="1" input="SourceAlpha"/>
      <feGaussianBlur stdDeviation="0.75" result="blur-10"/>
      <feFlood flood-opacity="0.902"/>
      <feComposite operator="in" in2="blur-10"/>
      <feComposite in="SourceGraphic"/>
    </filter>
    <filter id="Path_17533" x="249.816" y="13.77" width="25.583" height="29.108" filterUnits="userSpaceOnUse">
      <feOffset dx="0.5" dy="1" input="SourceAlpha"/>
      <feGaussianBlur stdDeviation="0.75" result="blur-11"/>
      <feFlood flood-opacity="0.902"/>
      <feComposite operator="in" in2="blur-11"/>
      <feComposite in="SourceGraphic"/>
    </filter>
    <filter id="Path_17534" x="271.616" y="0" width="30.199" height="42.878" filterUnits="userSpaceOnUse">
      <feOffset dx="0.5" dy="1" input="SourceAlpha"/>
      <feGaussianBlur stdDeviation="0.75" result="blur-12"/>
      <feFlood flood-opacity="0.902"/>
      <feComposite operator="in" in2="blur-12"/>
      <feComposite in="SourceGraphic"/>
    </filter>
    <filter id="Path_17535" x="305.019" y="13.739" width="29.989" height="29.451" filterUnits="userSpaceOnUse">
      <feOffset dx="0.5" dy="1" input="SourceAlpha"/>
      <feGaussianBlur stdDeviation="0.75" result="blur-13"/>
      <feFlood flood-opacity="0.902"/>
      <feComposite operator="in" in2="blur-13"/>
      <feComposite in="SourceGraphic"/>
    </filter>
    <filter id="Path_17536" x="331.872" y="7.064" width="28.577" height="35.813" filterUnits="userSpaceOnUse">
      <feOffset dx="0.5" dy="1" input="SourceAlpha"/>
      <feGaussianBlur stdDeviation="0.75" result="blur-14"/>
      <feFlood flood-opacity="0.902"/>
      <feComposite operator="in" in2="blur-14"/>
      <feComposite in="SourceGraphic"/>
    </filter>
    <filter id="Path_17537" x="357.361" y="13.926" width="28.346" height="29.295" filterUnits="userSpaceOnUse">
      <feOffset dx="0.5" dy="1" input="SourceAlpha"/>
      <feGaussianBlur stdDeviation="0.75" result="blur-15"/>
      <feFlood flood-opacity="0.902"/>
      <feComposite operator="in" in2="blur-15"/>
      <feComposite in="SourceGraphic"/>
    </filter>
    <filter id="Path_17538" x="382.855" y="13.739" width="27.089" height="32.133" filterUnits="userSpaceOnUse">
      <feOffset dx="0.5" dy="1" input="SourceAlpha"/>
      <feGaussianBlur stdDeviation="0.75" result="blur-16"/>
      <feFlood flood-opacity="0.902"/>
      <feComposite operator="in" in2="blur-16"/>
      <feComposite in="SourceGraphic"/>
    </filter>
    <filter id="Path_17539" x="414.302" y="12.46" width="24.554" height="30.293" filterUnits="userSpaceOnUse">
      <feOffset dx="0.5" dy="1" input="SourceAlpha"/>
      <feGaussianBlur stdDeviation="0.75" result="blur-17"/>
      <feFlood flood-opacity="0.902"/>
      <feComposite operator="in" in2="blur-17"/>
      <feComposite in="SourceGraphic"/>
    </filter>
    <filter id="Path_17540" x="434.526" y="13.739" width="28.282" height="29.139" filterUnits="userSpaceOnUse">
      <feOffset dx="0.5" dy="1" input="SourceAlpha"/>
      <feGaussianBlur stdDeviation="0.75" result="blur-18"/>
      <feFlood flood-opacity="0.902"/>
      <feComposite operator="in" in2="blur-18"/>
      <feComposite in="SourceGraphic"/>
    </filter>
    <filter id="Path_17541" x="459.794" y="9.341" width="30.991" height="33.661" filterUnits="userSpaceOnUse">
      <feOffset dx="0.5" dy="1" input="SourceAlpha"/>
      <feGaussianBlur stdDeviation="0.75" result="blur-19"/>
      <feFlood flood-opacity="0.902"/>
      <feComposite operator="in" in2="blur-19"/>
      <feComposite in="SourceGraphic"/>
    </filter>
    <filter id="Path_17542" x="483.976" y="4.881" width="31.249" height="37.996" filterUnits="userSpaceOnUse">
      <feOffset dx="0.5" dy="1" input="SourceAlpha"/>
      <feGaussianBlur stdDeviation="0.75" result="blur-20"/>
      <feFlood flood-opacity="0.902"/>
      <feComposite operator="in" in2="blur-20"/>
      <feComposite in="SourceGraphic"/>
    </filter>
    <filter id="Path_17543" x="509.465" y="13.926" width="28.346" height="29.295" filterUnits="userSpaceOnUse">
      <feOffset dx="0.5" dy="1" input="SourceAlpha"/>
      <feGaussianBlur stdDeviation="0.75" result="blur-21"/>
      <feFlood flood-opacity="0.902"/>
      <feComposite operator="in" in2="blur-21"/>
      <feComposite in="SourceGraphic"/>
    </filter>
    <filter id="Path_17544" x="534.959" y="13.739" width="27.09" height="32.133" filterUnits="userSpaceOnUse">
      <feOffset dx="0.5" dy="1" input="SourceAlpha"/>
      <feGaussianBlur stdDeviation="0.75" result="blur-22"/>
      <feFlood flood-opacity="0.902"/>
      <feComposite operator="in" in2="blur-22"/>
      <feComposite in="SourceGraphic"/>
    </filter>
    <filter id="Path_17545" x="567.475" y="13.926" width="28.346" height="29.295" filterUnits="userSpaceOnUse">
      <feOffset dx="0.5" dy="1" input="SourceAlpha"/>
      <feGaussianBlur stdDeviation="0.75" result="blur-23"/>
      <feFlood flood-opacity="0.902"/>
      <feComposite operator="in" in2="blur-23"/>
      <feComposite in="SourceGraphic"/>
    </filter>
    <filter id="Path_17546" x="593.502" y="13.739" width="13.57" height="29.201" filterUnits="userSpaceOnUse">
      <feOffset dx="0.5" dy="1" input="SourceAlpha"/>
      <feGaussianBlur stdDeviation="0.75" result="blur-24"/>
      <feFlood flood-opacity="0.902"/>
      <feComposite operator="in" in2="blur-24"/>
      <feComposite in="SourceGraphic"/>
    </filter>
    <filter id="Path_17547" x="604.159" y="6.815" width="23.665" height="36.063" filterUnits="userSpaceOnUse">
      <feOffset dx="0.5" dy="1" input="SourceAlpha"/>
      <feGaussianBlur stdDeviation="0.75" result="blur-25"/>
      <feFlood flood-opacity="0.902"/>
      <feComposite operator="in" in2="blur-25"/>
      <feComposite in="SourceGraphic"/>
    </filter>
    <filter id="Path_17548" x="624.268" y="13.926" width="28.346" height="29.295" filterUnits="userSpaceOnUse">
      <feOffset dx="0.5" dy="1" input="SourceAlpha"/>
      <feGaussianBlur stdDeviation="0.75" result="blur-26"/>
      <feFlood flood-opacity="0.902"/>
      <feComposite operator="in" in2="blur-26"/>
      <feComposite in="SourceGraphic"/>
    </filter>
    <filter id="Path_17549" x="658.379" y="15.08" width="21.997" height="27.642" filterUnits="userSpaceOnUse">
      <feOffset dx="0.5" dy="1" input="SourceAlpha"/>
      <feGaussianBlur stdDeviation="0.75" result="blur-27"/>
      <feFlood flood-opacity="0.902"/>
      <feComposite operator="in" in2="blur-27"/>
      <feComposite in="SourceGraphic"/>
    </filter>
    <filter id="Path_17550" x="677.778" y="13.77" width="28.578" height="29.108" filterUnits="userSpaceOnUse">
      <feOffset dx="0.5" dy="1" input="SourceAlpha"/>
      <feGaussianBlur stdDeviation="0.75" result="blur-28"/>
      <feFlood flood-opacity="0.902"/>
      <feComposite operator="in" in2="blur-28"/>
      <feComposite in="SourceGraphic"/>
    </filter>
    <filter id="Path_17551" x="703.726" y="15.08" width="21.997" height="27.642" filterUnits="userSpaceOnUse">
      <feOffset dx="0.5" dy="1" input="SourceAlpha"/>
      <feGaussianBlur stdDeviation="0.75" result="blur-29"/>
      <feFlood flood-opacity="0.902"/>
      <feComposite operator="in" in2="blur-29"/>
      <feComposite in="SourceGraphic"/>
    </filter>
    <filter id="Path_17572" x="723.599" y="14.418" width="22.466" height="28" filterUnits="userSpaceOnUse">
      <feOffset dx="0.5" dy="1" input="SourceAlpha"/>
      <feGaussianBlur stdDeviation="0.75" result="blur-30"/>
      <feFlood flood-opacity="0.902"/>
      <feComposite operator="in" in2="blur-30"/>
      <feComposite in="SourceGraphic"/>
    </filter>
  </defs>
  <g id="Group_11990" data-name="Group 11990" transform="translate(0.743 0.238)">
    <g id="Group_11961" data-name="Group 11961">
      <g id="Group_11960" data-name="Group 11960" transform="translate(1.007 1.012)">
        <g transform="matrix(1, 0, 0, 1, -1.75, -1.25)" filter="url(#Path_17523)">
          <path id="Path_17523-2" data-name="Path 17523" d="M1365.731,938.373a13.4,13.4,0,0,1-3.852,9.934,14.131,14.131,0,0,1-4.585,3.088,14.825,14.825,0,0,1-5.879,1.138q-.53,0-1.076-.031t-1.169-.094l-1.653-1.9-6.456,1.871q.468-2.682.858-5.224t.7-5.068h-2.37l.406-3.462h2.37q.124-1.185.234-2.324t.2-2.292l-1.591.343a26.8,26.8,0,0,1-.327-2.776,18.027,18.027,0,0,1,.016-2.5,45.1,45.1,0,0,1,11.29-1.5,18.082,18.082,0,0,1,5.13.686,11.505,11.505,0,0,1,4.008,2.043,9.768,9.768,0,0,1,2.667,3.368A11.515,11.515,0,0,1,1365.731,938.373Zm-7.641.561a5.717,5.717,0,0,0-1.965-4.569,8.37,8.37,0,0,0-5.209-1.419q-.156,0-.826.031t-1.2.093a5.522,5.522,0,0,1,.9.717q.374.374.811.9-.187,2.058-.374,3.93h4.023l-.405,3.462h-4.055q-.187,1.279-.405,2.573t-.468,2.7a5.265,5.265,0,0,0,.749.078q.4.016.748.016a7.122,7.122,0,0,0,3.259-.733,7.687,7.687,0,0,0,2.448-1.918,8.23,8.23,0,0,0,1.513-2.729A8.757,8.757,0,0,0,1358.09,938.935Z" transform="translate(-1338.5 -912.59)" fill="#e50019"/>
        </g>
        <g transform="matrix(1, 0, 0, 1, -1.75, -1.25)" filter="url(#Path_17524)">
          <path id="Path_17524-2" data-name="Path 17524" d="M1549.363,949.9a12.961,12.961,0,0,1-1.061-2.2q-.437-1.17-.9-2.635-1.092,0-2.339.094t-2.464.25l-1.466-2.152q-.374.811-.624,1.388t-.484,1.154q-.234.577-.468,1.247t-.608,1.669l-7.36,1a65.244,65.244,0,0,1,2.417-6.752q1.388-3.29,2.948-6.347t3.243-5.863q1.684-2.807,3.337-5.3l6.144-.78q.936,2.651,1.731,5.848t1.622,6.362q.826,3.166,1.778,6.019a21.95,21.95,0,0,0,2.2,4.819Zm-1.248,4.023a2.734,2.734,0,0,1-.374,1.435,3.629,3.629,0,0,1-.967,1.06,4.253,4.253,0,0,1-1.341.655,5.238,5.238,0,0,1-1.466.218,5.656,5.656,0,0,1-1.248-.14,3.781,3.781,0,0,1-1.138-.452,2.511,2.511,0,0,1-.842-.842,2.385,2.385,0,0,1-.328-1.279,2.875,2.875,0,0,1,.374-1.481,3.2,3.2,0,0,1,.967-1.045,4.365,4.365,0,0,1,1.341-.608,5.371,5.371,0,0,1,2.682-.062,3.773,3.773,0,0,1,1.138.452,2.713,2.713,0,0,1,.858.827A2.229,2.229,0,0,1,1548.115,953.927Zm-1.84-14.659q-.094-.405-.25-.983t-.327-1.185q-.172-.608-.343-1.2t-.3-1.029q-.25.437-.593,1.06t-.7,1.279q-.359.655-.686,1.279t-.546,1.06q.343-.031.842-.062t1.029-.078q.53-.047,1.029-.094T1546.275,939.268Z" transform="translate(-1505.23 -910.06)" fill="#e50019"/>
        </g>
        <g transform="matrix(1, 0, 0, 1, -1.75, -1.25)" filter="url(#Path_17525)">
          <path id="Path_17525-2" data-name="Path 17525" d="M1747.24,933.554q-.328,2.885-.717,5.739t-.608,5.754a31.811,31.811,0,0,0,.125,5.957l-7.3,1.279a33.068,33.068,0,0,1-.328-5.941q.109-2.884.452-5.707t.764-5.676q.421-2.854.608-5.848l7.173-1.528A36.553,36.553,0,0,1,1747.24,933.554Z" transform="translate(-1685.44 -912.59)" fill="#e50019"/>
        </g>
        <g transform="matrix(1, 0, 0, 1, -1.75, -1.25)" filter="url(#Path_17526)">
          <path id="Path_17526-2" data-name="Path 17526" d="M1909.688,933.648q-.437,3.134-.655,6.175t-.172,5.848a37.8,37.8,0,0,0,.39,5.052l-7.236,1.5a33.029,33.029,0,0,1-.483-4.3q-.11-2.246-.047-4.522a10.145,10.145,0,0,1-1.06.109q-.718.047-1.544.078t-1.637.047q-.812.016-1.279-.016l-1.247-2.651q-.094,1.029-.187,2.339t-.14,2.682q-.047,1.373-.031,2.713t.109,2.433l-7.142,1.092a34.456,34.456,0,0,1-.343-5.957q.093-2.869.437-5.676t.764-5.645q.421-2.838.608-5.832l7.111-1.528a50.112,50.112,0,0,1-.125,5.13q-.187,2.292-.5,4.444.686.031,1.559.047t1.778-.016q.9-.03,1.762-.078t1.544-.109q.125-1.06.3-2.183t.374-2.23q.2-1.107.437-2.121t.483-1.825l7.236-1Q1910.124,930.514,1909.688,933.648Z" transform="translate(-1814.9 -912.59)" fill="#e50019"/>
        </g>
        <g transform="matrix(1, 0, 0, 1, -1.75, -1.25)" filter="url(#Path_17527)">
          <path id="Path_17527-2" data-name="Path 17527" d="M2104.2,892.684a15.9,15.9,0,0,1-1,5.707,13.587,13.587,0,0,1-2.807,4.538,12.641,12.641,0,0,1-4.382,2.994,14.616,14.616,0,0,1-5.692,1.076q-5.053,0-7.626-2.7t-2.573-7.688a15.9,15.9,0,0,1,1-5.708,13.236,13.236,0,0,1,2.807-4.507,12.7,12.7,0,0,1,4.367-2.947,14.772,14.772,0,0,1,5.707-1.06q4.927,0,7.563,2.7T2104.2,892.684Zm-9.98,18.807a2.733,2.733,0,0,1-.375,1.435,3.63,3.63,0,0,1-.967,1.06,4.254,4.254,0,0,1-1.341.655,5.236,5.236,0,0,1-1.466.218,5.661,5.661,0,0,1-1.248-.14,3.783,3.783,0,0,1-1.138-.452,2.511,2.511,0,0,1-.842-.842,2.388,2.388,0,0,1-.327-1.279,2.878,2.878,0,0,1,.374-1.482,3.21,3.21,0,0,1,.967-1.045,4.376,4.376,0,0,1,1.341-.608,5.376,5.376,0,0,1,2.682-.062,3.78,3.78,0,0,1,1.139.452,2.712,2.712,0,0,1,.858.826A2.228,2.228,0,0,1,2094.224,911.49Zm2.339-29.941q-.593-.436-1.248-.967t-1.31-1.029a10.79,10.79,0,0,0-1.481.873q-.765.531-1.481,1.092l-3.462-2.277q1.153-1.091,2.167-1.9a13.237,13.237,0,0,1,2.074-1.372l5.364-.281a17.733,17.733,0,0,0,1.731,2.105,13.265,13.265,0,0,0,2.136,1.856Zm-.219,11.072a10.136,10.136,0,0,0-.14-1.638,5.2,5.2,0,0,0-.514-1.575,3.615,3.615,0,0,0-1-1.2,2.522,2.522,0,0,0-1.591-.483,3.305,3.305,0,0,0-1.762.468,4.952,4.952,0,0,0-1.341,1.216,6.833,6.833,0,0,0-.951,1.715,14.594,14.594,0,0,0-.608,1.981,17.367,17.367,0,0,0-.343,2,15.784,15.784,0,0,0-.109,1.731,10.674,10.674,0,0,0,.125,1.559,5.414,5.414,0,0,0,.468,1.559,3.291,3.291,0,0,0,.936,1.185,2.393,2.393,0,0,0,1.529.468,3.872,3.872,0,0,0,2.682-.92,6.459,6.459,0,0,0,1.622-2.292,10.917,10.917,0,0,0,.8-2.932A22.153,22.153,0,0,0,2096.345,892.621Z" transform="translate(-1983.22 -867.37)" fill="#e50019"/>
        </g>
        <g transform="matrix(1, 0, 0, 1, -1.75, -1.25)" filter="url(#Path_17528)">
          <path id="Path_17528-2" data-name="Path 17528" d="M2290.932,933.554q-.327,2.885-.717,5.739t-.608,5.754a31.872,31.872,0,0,0,.125,5.957l-7.3,1.279a33.056,33.056,0,0,1-.328-5.941q.109-2.884.452-5.707t.764-5.676q.422-2.854.608-5.848l7.174-1.528A36.607,36.607,0,0,1,2290.932,933.554Z" transform="translate(-2159.21 -912.59)" fill="#e50019"/>
        </g>
        <g transform="matrix(1, 0, 0, 1, -1.75, -1.25)" filter="url(#Path_17529)">
          <path id="Path_17529-2" data-name="Path 17529" d="M2450.448,938.373a13.4,13.4,0,0,1-3.852,9.934,14.135,14.135,0,0,1-4.585,3.088,14.822,14.822,0,0,1-5.879,1.138q-.531,0-1.076-.031t-1.17-.094l-1.653-1.9-6.456,1.871q.468-2.682.858-5.224t.7-5.068h-2.37l.406-3.462h2.371q.124-1.185.233-2.324t.2-2.292l-1.591.343a26.767,26.767,0,0,1-.328-2.776,18.142,18.142,0,0,1,.016-2.5,45.1,45.1,0,0,1,11.29-1.5,18.081,18.081,0,0,1,5.13.686,11.5,11.5,0,0,1,4.008,2.043,9.762,9.762,0,0,1,2.667,3.368A11.51,11.51,0,0,1,2450.448,938.373Zm-7.641.561a5.718,5.718,0,0,0-1.965-4.569,8.371,8.371,0,0,0-5.208-1.419q-.157,0-.826.031t-1.2.093a5.532,5.532,0,0,1,.9.717q.374.374.811.9-.187,2.058-.374,3.93h4.023l-.405,3.462h-4.055q-.187,1.279-.405,2.573t-.468,2.7a5.26,5.26,0,0,0,.748.078q.4.016.749.016a7.119,7.119,0,0,0,3.259-.733,7.686,7.686,0,0,0,2.449-1.918,8.241,8.241,0,0,0,1.513-2.729A8.765,8.765,0,0,0,2442.807,938.935Z" transform="translate(-2283.71 -912.59)" fill="#e50019"/>
        </g>
        <g transform="matrix(1, 0, 0, 1, -1.75, -1.25)" filter="url(#Path_17530)">
          <path id="Path_17530-2" data-name="Path 17530" d="M2657.84,869.228a15.9,15.9,0,0,1-1,5.707,13.581,13.581,0,0,1-2.807,4.538,12.637,12.637,0,0,1-4.382,2.994,14.614,14.614,0,0,1-5.691,1.076q-5.053,0-7.626-2.7t-2.573-7.688a15.9,15.9,0,0,1,1-5.708,13.232,13.232,0,0,1,2.807-4.507,12.71,12.71,0,0,1,4.367-2.947,14.774,14.774,0,0,1,5.707-1.06q4.928,0,7.563,2.7T2657.84,869.228Zm-7.641-11.134q-.593-.436-1.248-.967t-1.31-1.029a10.811,10.811,0,0,0-1.481.873q-.764.531-1.481,1.092l-3.462-2.277q1.154-1.091,2.168-1.9a13.233,13.233,0,0,1,2.074-1.372l5.364-.281a17.739,17.739,0,0,0,1.731,2.105,13.282,13.282,0,0,0,2.136,1.856Zm-.219,11.072a10.109,10.109,0,0,0-.14-1.638,5.183,5.183,0,0,0-.515-1.575,3.615,3.615,0,0,0-1-1.2,2.521,2.521,0,0,0-1.59-.483,3.3,3.3,0,0,0-1.762.468,4.94,4.94,0,0,0-1.341,1.216,6.819,6.819,0,0,0-.951,1.715,14.6,14.6,0,0,0-.608,1.981,17.422,17.422,0,0,0-.343,2,15.783,15.783,0,0,0-.109,1.731,10.708,10.708,0,0,0,.125,1.559,5.413,5.413,0,0,0,.468,1.559,3.288,3.288,0,0,0,.936,1.185,2.391,2.391,0,0,0,1.528.468,3.872,3.872,0,0,0,2.682-.92,6.452,6.452,0,0,0,1.622-2.292,10.908,10.908,0,0,0,.8-2.932A22.154,22.154,0,0,0,2649.98,869.165Zm6.768-13.6a8.783,8.783,0,0,1-2.948-2.791,11.012,11.012,0,0,1-1.606-3.727l6.55-.281a7.953,7.953,0,0,0,.452,1.294,11.143,11.143,0,0,0,.686,1.31q.39.639.826,1.232a7.409,7.409,0,0,0,.9,1.029Z" transform="translate(-2465.66 -843.92)" fill="#e50019"/>
        </g>
        <g transform="matrix(1, 0, 0, 1, -1.75, -1.25)" filter="url(#Path_17531)">
          <path id="Path_17531-2" data-name="Path 17531" d="M2855.633,935.8q-.234,2.776-.624,5.536t-.811,5.489q-.421,2.73-.7,5.411l-5.583,1.591a43.55,43.55,0,0,0-3.743-6.986q-2.214-3.368-4.616-6.581-.5,2.807-.764,6a50.62,50.62,0,0,0-.14,6.253q-1.186.187-2.37.405l-2.168.405q-1.17.218-2.105.374a39.594,39.594,0,0,1,.141-6.019q.3-2.9.8-5.739t1.06-5.692q.561-2.854.9-5.879l5.988-1.341q.717,1.373,1.684,2.9t2,3.1q1.029,1.575,2.059,3.1t1.9,2.869q.281-2.931.421-5.988t.078-5.832l6.737,1.06A47.152,47.152,0,0,1,2855.633,935.8Z" transform="translate(-2638.36 -913.86)" fill="#e50019"/>
        </g>
        <g transform="matrix(1, 0, 0, 1, -1.75, -1.25)" filter="url(#Path_17532)">
          <path id="Path_17532-2" data-name="Path 17532" d="M3051.835,948.363a18.057,18.057,0,0,0,.873,6.29l-7.142.561a15.5,15.5,0,0,1-.53-2.012,16.188,16.188,0,0,1-.25-1.825,11.294,11.294,0,0,1-2.245.639,13.515,13.515,0,0,1-2.339.2,11.153,11.153,0,0,1-4.413-.8,8.5,8.5,0,0,1-3.072-2.167,9.251,9.251,0,0,1-1.84-3.212,13.4,13.4,0,0,1-.686-3.93,15.458,15.458,0,0,1,.733-5.255,14.1,14.1,0,0,1,2.5-4.663,12.84,12.84,0,0,1,4.148-3.337,12.244,12.244,0,0,1,5.692-1.279,16.225,16.225,0,0,1,2.979.265,8.429,8.429,0,0,1,2.589.92,6.769,6.769,0,0,1,2.043,1.778,8,8,0,0,1,1.341,2.838l-5.895,3.119a4.414,4.414,0,0,0-1.2-2.557,3.2,3.2,0,0,0-2.417-.9,2.686,2.686,0,0,0-1.949.858,7.921,7.921,0,0,0-1.481,2.121,11.966,11.966,0,0,0-.951,2.76,13.05,13.05,0,0,0-.327,2.776,7.088,7.088,0,0,0,.234,1.84,4.683,4.683,0,0,0,.717,1.544,3.573,3.573,0,0,0,1.248,1.076,3.841,3.841,0,0,0,1.825.406,4.559,4.559,0,0,0,1.481-.25,3.677,3.677,0,0,0,1.263-.717,14.826,14.826,0,0,1,.39-2.386,17.75,17.75,0,0,1,.764-2.23l6.861.967A33.6,33.6,0,0,0,3051.835,948.363Z" transform="translate(-2811.09 -912.59)" fill="#e50019"/>
        </g>
        <g transform="matrix(1, 0, 0, 1, -1.75, -1.25)" filter="url(#Path_17533)">
          <path id="Path_17533-2" data-name="Path 17533" d="M3297.827,936.87a11.4,11.4,0,0,0-.327-1.294,4.348,4.348,0,0,0-.531-1.123,2.53,2.53,0,0,0-.842-.78,2.567,2.567,0,0,0-1.295-.3,2.5,2.5,0,0,0-1.622.655,5.783,5.783,0,0,0-1.372,1.793,11.018,11.018,0,0,0-.936,2.635,14.2,14.2,0,0,0-.343,3.181,5.5,5.5,0,0,0,.967,3.4,3.81,3.81,0,0,0,3.244,1.279,9.124,9.124,0,0,0,1.918-.218,12.065,12.065,0,0,0,1.98-.608,14.1,14.1,0,0,0,1.825-.889,8.9,8.9,0,0,0,1.481-1.06l.437,6.238a14.21,14.21,0,0,1-4.866,2.074,24.454,24.454,0,0,1-5.271.577,9.968,9.968,0,0,1-4.155-.811,8.585,8.585,0,0,1-3-2.214,9.281,9.281,0,0,1-1.817-3.337,13.912,13.912,0,0,1-.606-4.179,16.021,16.021,0,0,1,.9-5.364,13.744,13.744,0,0,1,2.578-4.491,12.425,12.425,0,0,1,4.042-3.072,12.134,12.134,0,0,1,5.328-1.138,14.221,14.221,0,0,1,2.885.281,7.2,7.2,0,0,1,2.433.967,6.249,6.249,0,0,1,1.824,1.793,7.667,7.667,0,0,1,1.092,2.729Z" transform="translate(-3031.13 -912.81)" fill="#e50019"/>
        </g>
        <g transform="matrix(1, 0, 0, 1, -1.75, -1.25)" filter="url(#Path_17534)">
          <path id="Path_17534-2" data-name="Path 17534" d="M3476.287,844.818a15.9,15.9,0,0,1-1,5.707,13.587,13.587,0,0,1-2.807,4.538,12.645,12.645,0,0,1-4.382,2.994,14.615,14.615,0,0,1-5.692,1.076q-5.052,0-7.625-2.7t-2.573-7.688a15.9,15.9,0,0,1,1-5.708,13.223,13.223,0,0,1,2.807-4.507,12.7,12.7,0,0,1,4.366-2.947,14.775,14.775,0,0,1,5.707-1.06q4.928,0,7.563,2.7T3476.287,844.818Zm-7.642-11.134q-.592-.436-1.247-.967t-1.31-1.029a10.753,10.753,0,0,0-1.481.873q-.764.531-1.481,1.092l-3.462-2.277q1.153-1.092,2.168-1.9a13.232,13.232,0,0,1,2.074-1.372l5.365-.281a17.754,17.754,0,0,0,1.731,2.105,13.284,13.284,0,0,0,2.136,1.856Zm-.218,11.072a10.135,10.135,0,0,0-.14-1.637,5.2,5.2,0,0,0-.515-1.575,3.612,3.612,0,0,0-1-1.2,2.523,2.523,0,0,0-1.591-.483,3.306,3.306,0,0,0-1.762.468,4.944,4.944,0,0,0-1.341,1.216,6.849,6.849,0,0,0-.951,1.715,14.663,14.663,0,0,0-.608,1.981,17.48,17.48,0,0,0-.343,2,15.966,15.966,0,0,0-.109,1.731,10.642,10.642,0,0,0,.125,1.559,5.414,5.414,0,0,0,.468,1.559,3.289,3.289,0,0,0,.936,1.185,2.391,2.391,0,0,0,1.528.468,3.872,3.872,0,0,0,2.682-.92,6.455,6.455,0,0,0,1.622-2.292,10.909,10.909,0,0,0,.8-2.932A22.2,22.2,0,0,0,3468.427,844.756Zm9.481-20.4a4.088,4.088,0,0,1-.437,1.824,7,7,0,0,1-1.138,1.653,9.524,9.524,0,0,1-1.544,1.357,7.4,7.4,0,0,1-1.684.9l-1.653-2.37q.53-.311,1.044-.686a6.17,6.17,0,0,0,.9-.8,2.958,2.958,0,0,0,.577-.873,1.473,1.473,0,0,0,.093-.889.745.745,0,0,0-.421-.577,1.555,1.555,0,0,0-.686-.125,2.041,2.041,0,0,0-.671.14.9.9,0,0,0-.374.218l-1.435-2.152a4.1,4.1,0,0,1,2.121-1.107,5.4,5.4,0,0,1,2.448.031,4.223,4.223,0,0,1,2.011,1.154A3.132,3.132,0,0,1,3477.909,824.359Z" transform="translate(-3178.84 -819.51)" fill="#e50019"/>
        </g>
        <g transform="matrix(1, 0, 0, 1, -1.75, -1.25)" filter="url(#Path_17535)">
          <path id="Path_17535-2" data-name="Path 17535" d="M3737.411,938.373a13.4,13.4,0,0,1-3.851,9.934,14.134,14.134,0,0,1-4.585,3.088,14.825,14.825,0,0,1-5.879,1.138q-.531,0-1.076-.031t-1.169-.094l-1.653-1.9-6.456,1.871q.467-2.682.857-5.224t.7-5.068h-2.37l.405-3.462h2.37q.124-1.185.234-2.324t.2-2.292l-1.591.343a26.834,26.834,0,0,1-.328-2.776,18.1,18.1,0,0,1,.016-2.5,45.1,45.1,0,0,1,11.29-1.5,18.084,18.084,0,0,1,5.131.686,11.505,11.505,0,0,1,4.008,2.043,9.762,9.762,0,0,1,2.667,3.368A11.5,11.5,0,0,1,3737.411,938.373Zm-7.641.561a5.716,5.716,0,0,0-1.965-4.569,8.37,8.37,0,0,0-5.208-1.419q-.156,0-.826.031t-1.2.093a5.5,5.5,0,0,1,.9.717q.375.374.811.9-.187,2.058-.374,3.93h4.023l-.405,3.462h-4.055q-.186,1.279-.4,2.573t-.468,2.7a5.267,5.267,0,0,0,.749.078q.4.016.749.016a7.125,7.125,0,0,0,3.259-.733,7.688,7.688,0,0,0,2.448-1.918,8.232,8.232,0,0,0,1.513-2.729A8.748,8.748,0,0,0,3729.77,938.935Z" transform="translate(-3405.16 -912.59)" fill="#e50019"/>
        </g>
        <g transform="matrix(1, 0, 0, 1, -1.75, -1.25)" filter="url(#Path_17536)">
          <path id="Path_17536-2" data-name="Path 17536" d="M3944.8,892.684a15.91,15.91,0,0,1-1,5.707,13.583,13.583,0,0,1-2.807,4.538,12.644,12.644,0,0,1-4.382,2.994,14.617,14.617,0,0,1-5.692,1.076q-5.053,0-7.626-2.7t-2.573-7.688a15.9,15.9,0,0,1,1-5.708,13.228,13.228,0,0,1,2.807-4.507,12.706,12.706,0,0,1,4.366-2.947,14.773,14.773,0,0,1,5.708-1.06q4.927,0,7.563,2.7T3944.8,892.684Zm-7.641-11.134q-.593-.436-1.248-.967t-1.31-1.029a10.761,10.761,0,0,0-1.481.873q-.765.531-1.482,1.092l-3.462-2.277q1.154-1.091,2.168-1.9a13.233,13.233,0,0,1,2.074-1.372l5.365-.281a17.754,17.754,0,0,0,1.731,2.105,13.267,13.267,0,0,0,2.136,1.856Zm-.218,11.072a10.192,10.192,0,0,0-.14-1.638,5.217,5.217,0,0,0-.515-1.575,3.62,3.62,0,0,0-1-1.2,2.523,2.523,0,0,0-1.591-.483,3.306,3.306,0,0,0-1.762.468,4.948,4.948,0,0,0-1.341,1.216,6.825,6.825,0,0,0-.951,1.715,14.559,14.559,0,0,0-.608,1.981,17.477,17.477,0,0,0-.343,2,15.833,15.833,0,0,0-.109,1.731,10.672,10.672,0,0,0,.125,1.559,5.43,5.43,0,0,0,.468,1.559,3.288,3.288,0,0,0,.936,1.185,2.393,2.393,0,0,0,1.528.468,3.873,3.873,0,0,0,2.682-.92,6.45,6.45,0,0,0,1.622-2.292,10.918,10.918,0,0,0,.8-2.932A22.156,22.156,0,0,0,3936.943,892.621Z" transform="translate(-3587.1 -867.37)" fill="#e50019"/>
        </g>
        <g transform="matrix(1, 0, 0, 1, -1.75, -1.25)" filter="url(#Path_17537)">
          <path id="Path_17537-2" data-name="Path 17537" d="M4142.6,935.8q-.233,2.776-.624,5.536t-.811,5.489q-.421,2.73-.7,5.411l-5.583,1.591a43.589,43.589,0,0,0-3.743-6.986q-2.216-3.368-4.616-6.581-.5,2.807-.764,6a50.571,50.571,0,0,0-.14,6.253q-1.186.187-2.371.405l-2.167.405q-1.17.218-2.105.374a39.594,39.594,0,0,1,.141-6.019q.3-2.9.795-5.739t1.06-5.692q.563-2.854.905-5.879l5.988-1.341q.717,1.373,1.684,2.9t2,3.1q1.029,1.575,2.058,3.1t1.9,2.869q.281-2.931.422-5.988t.078-5.832l6.737,1.06A47.047,47.047,0,0,1,4142.6,935.8Z" transform="translate(-3759.81 -913.86)" fill="#e50019"/>
        </g>
        <g transform="matrix(1, 0, 0, 1, -1.75, -1.25)" filter="url(#Path_17538)">
          <path id="Path_17538-2" data-name="Path 17538" d="M4338.8,948.363a18.046,18.046,0,0,0,.873,6.29l-7.142.561a15.581,15.581,0,0,1-.53-2.012,16.118,16.118,0,0,1-.249-1.825,11.3,11.3,0,0,1-2.246.639,13.512,13.512,0,0,1-2.339.2,11.157,11.157,0,0,1-4.414-.8,8.509,8.509,0,0,1-3.072-2.167,9.259,9.259,0,0,1-1.84-3.212,13.428,13.428,0,0,1-.686-3.93,15.458,15.458,0,0,1,.733-5.255,14.1,14.1,0,0,1,2.5-4.663,12.841,12.841,0,0,1,4.148-3.337,12.245,12.245,0,0,1,5.692-1.279,16.221,16.221,0,0,1,2.979.265,8.429,8.429,0,0,1,2.589.92,6.77,6.77,0,0,1,2.043,1.778,8.026,8.026,0,0,1,1.341,2.838l-5.9,3.119a4.412,4.412,0,0,0-1.2-2.557,3.2,3.2,0,0,0-2.417-.9,2.687,2.687,0,0,0-1.95.858,7.932,7.932,0,0,0-1.481,2.121,11.989,11.989,0,0,0-.951,2.76,13.08,13.08,0,0,0-.327,2.776,7.068,7.068,0,0,0,.234,1.84,4.669,4.669,0,0,0,.717,1.544,3.574,3.574,0,0,0,1.247,1.076,3.844,3.844,0,0,0,1.825.406,4.559,4.559,0,0,0,1.481-.25,3.673,3.673,0,0,0,1.263-.717,14.828,14.828,0,0,1,.39-2.386,17.869,17.869,0,0,1,.764-2.23l6.861.967A33.611,33.611,0,0,0,4338.8,948.363Z" transform="translate(-3932.54 -912.59)" fill="#e50019"/>
        </g>
        <g transform="matrix(1, 0, 0, 1, -1.75, -1.25)" filter="url(#Path_17539)">
          <path id="Path_17539-2" data-name="Path 17539" d="M4580.374,924.221a8.038,8.038,0,0,1-1.652.561,13.288,13.288,0,0,1-2.168.3,28.282,28.282,0,0,1-2.854.016,2.412,2.412,0,0,0,.452.234q.327.14.7.3t.7.327a2.046,2.046,0,0,1,.483.328q-.25,1.622-.531,3.789t-.483,4.429q-.2,2.262-.25,4.366a21.969,21.969,0,0,0,.171,3.6l-7.455.967a30.343,30.343,0,0,1-.249-4.881q.062-2.635.375-5.286.281-2.4.608-4.522t.515-3.493q-.936,0-1.638.016a9.234,9.234,0,0,0-1.4.14,11.254,11.254,0,0,0-1.513.39q-.812.265-1.965.733l-.562-5.926a12.93,12.93,0,0,1,3.6-.982,30.008,30.008,0,0,1,3.7-.234h3.743q1.31,0,2.573-.125a22.456,22.456,0,0,0,2.385-.359,16.332,16.332,0,0,0,2.059-.561,9.682,9.682,0,0,0,1.59-.7l.406,5.8A9.4,9.4,0,0,1,4580.374,924.221Z" transform="translate(-4145.61 -903.93)" fill="#e50019"/>
        </g>
        <g transform="matrix(1, 0, 0, 1, -1.75, -1.25)" filter="url(#Path_17540)">
          <path id="Path_17540-2" data-name="Path 17540" d="M4741.64,933.648q-.437,3.134-.655,6.175t-.172,5.848a37.9,37.9,0,0,0,.39,5.052l-7.235,1.5a32.923,32.923,0,0,1-.483-4.3q-.11-2.246-.047-4.522a10.155,10.155,0,0,1-1.06.109q-.719.047-1.544.078t-1.638.047q-.811.016-1.279-.016l-1.248-2.651q-.094,1.029-.187,2.339t-.14,2.682q-.046,1.373-.031,2.713t.109,2.433l-7.143,1.092a34.492,34.492,0,0,1-.343-5.957q.094-2.869.437-5.676t.764-5.645q.42-2.838.608-5.832l7.11-1.528a49.83,49.83,0,0,1-.125,5.13q-.186,2.292-.5,4.444.685.031,1.559.047t1.778-.016q.9-.03,1.761-.078t1.544-.109q.124-1.06.3-2.183t.374-2.23q.2-1.107.437-2.121t.483-1.825l7.236-1Q4742.076,930.514,4741.64,933.648Z" transform="translate(-4282.64 -912.59)" fill="#e50019"/>
        </g>
        <g transform="matrix(1, 0, 0, 1, -1.75, -1.25)" filter="url(#Path_17541)">
          <path id="Path_17541-2" data-name="Path 17541" d="M4941.61,895.447a6.052,6.052,0,0,1-.452,4.631,4.667,4.667,0,0,1-1.466,1.669,3.962,3.962,0,0,1-1.029.515,5.491,5.491,0,0,1-1.091.234q-.375,2.932-.546,5.614t-.14,4.709q0,.936.078,2.059t.25,2.261q.171,1.139.437,2.183a9.749,9.749,0,0,0,.64,1.825l-7.33,1.4q-.187-.468-.359-1.06a10.831,10.831,0,0,1-.3-1.5,11.793,11.793,0,0,1-3.446,1.809,12.2,12.2,0,0,1-3.79.593,7.524,7.524,0,0,1-5.847-2.168q-1.982-2.167-1.825-6.627a29.054,29.054,0,0,1,.343-3.571q.281-1.762.546-3.524t.405-3.54a20.085,20.085,0,0,0-.047-3.618l7.236-1.5a18.645,18.645,0,0,1,.218,2.433q.031,1.248-.047,2.479t-.233,2.386q-.157,1.154-.281,2.121-.094.78-.2,1.466t-.2,1.341q-.094.655-.14,1.326t-.047,1.419a6.1,6.1,0,0,0,.592,2.885,2.25,2.25,0,0,0,2.183,1.107,4.265,4.265,0,0,0,1.809-.437,5.288,5.288,0,0,0,1.746-1.372q0-1.9.11-4.086t.312-4.366q.2-2.183.5-4.179t.639-3.524l7.423-.936a2.265,2.265,0,0,0-.811-1.871l2.932-2.651A4.867,4.867,0,0,1,4941.61,895.447Z" transform="translate(-4453.84 -882.8)" fill="#e50019"/>
        </g>
        <g transform="matrix(1, 0, 0, 1, -1.75, -1.25)" filter="url(#Path_17542)">
          <path id="Path_17542-2" data-name="Path 17542" d="M5127.491,877.891a15.909,15.909,0,0,1-1,5.707,13.575,13.575,0,0,1-2.807,4.538,12.64,12.64,0,0,1-4.382,2.994,14.615,14.615,0,0,1-5.692,1.076q-5.053,0-7.625-2.7t-2.573-7.688a15.89,15.89,0,0,1,1-5.708,13.236,13.236,0,0,1,2.807-4.507,12.7,12.7,0,0,1,4.367-2.947,14.768,14.768,0,0,1,5.707-1.06,11.7,11.7,0,0,1,5.458,1.17,8.031,8.031,0,0,1,3.431,3.353,2.161,2.161,0,0,0-.592-2.682l2.932-2.651a5.34,5.34,0,0,1,1.278,2.027,6.329,6.329,0,0,1,.359,2.355,6.641,6.641,0,0,1-.5,2.292,5.151,5.151,0,0,1-1.263,1.84,10.161,10.161,0,0,1-1.03.78q.064.437.094.889T5127.491,877.891Zm-7.859-.062a10.189,10.189,0,0,0-.14-1.637,5.216,5.216,0,0,0-.515-1.575,3.622,3.622,0,0,0-1-1.2,2.523,2.523,0,0,0-1.591-.483,3.3,3.3,0,0,0-1.762.468,4.943,4.943,0,0,0-1.341,1.216,6.812,6.812,0,0,0-.951,1.715,14.454,14.454,0,0,0-.608,1.981,17.473,17.473,0,0,0-.343,2,15.783,15.783,0,0,0-.109,1.731,10.64,10.64,0,0,0,.125,1.559,5.406,5.406,0,0,0,.468,1.56,3.294,3.294,0,0,0,.935,1.185,2.393,2.393,0,0,0,1.528.468,3.873,3.873,0,0,0,2.683-.92,6.457,6.457,0,0,0,1.622-2.292,10.879,10.879,0,0,0,.795-2.932A22.157,22.157,0,0,0,5119.631,877.828ZM5117.1,866.2a8.989,8.989,0,0,1-1.684-1.357,10.4,10.4,0,0,1-1.372-1.731,12.426,12.426,0,0,1-1.654-4.086l6.769-.312a11.241,11.241,0,0,0,1.185,2.885,12.2,12.2,0,0,0,1.809,2.479Z" transform="translate(-4617.69 -852.58)" fill="#e50019"/>
        </g>
        <g transform="matrix(1, 0, 0, 1, -1.75, -1.25)" filter="url(#Path_17543)">
          <path id="Path_17543-2" data-name="Path 17543" d="M5325.283,935.8q-.234,2.776-.624,5.536t-.811,5.489q-.42,2.73-.7,5.411l-5.583,1.591a43.553,43.553,0,0,0-3.743-6.986q-2.214-3.368-4.615-6.581-.5,2.807-.764,6a50.476,50.476,0,0,0-.14,6.253q-1.186.187-2.371.405l-2.167.405q-1.17.218-2.105.374a39.594,39.594,0,0,1,.141-6.019q.3-2.9.795-5.739t1.061-5.692q.562-2.854.9-5.879l5.989-1.341q.716,1.373,1.684,2.9t2,3.1q1.029,1.575,2.058,3.1t1.9,2.869q.281-2.931.421-5.988t.078-5.832l6.736,1.06A47.152,47.152,0,0,1,5325.283,935.8Z" transform="translate(-4790.39 -913.86)" fill="#e50019"/>
        </g>
        <g transform="matrix(1, 0, 0, 1, -1.75, -1.25)" filter="url(#Path_17544)">
          <path id="Path_17544-2" data-name="Path 17544" d="M5521.486,948.363a18.057,18.057,0,0,0,.873,6.29l-7.142.561a15.424,15.424,0,0,1-.53-2.012,16.133,16.133,0,0,1-.25-1.825,11.312,11.312,0,0,1-2.245.639,13.524,13.524,0,0,1-2.34.2,11.154,11.154,0,0,1-4.413-.8,8.52,8.52,0,0,1-3.072-2.167,9.273,9.273,0,0,1-1.84-3.212,13.38,13.38,0,0,1-.686-3.93,15.457,15.457,0,0,1,.732-5.255,14.119,14.119,0,0,1,2.5-4.663,12.836,12.836,0,0,1,4.148-3.337,12.245,12.245,0,0,1,5.692-1.279,16.225,16.225,0,0,1,2.979.265,8.438,8.438,0,0,1,2.589.92,6.768,6.768,0,0,1,2.042,1.778,8,8,0,0,1,1.341,2.838l-5.895,3.119a4.416,4.416,0,0,0-1.2-2.557,3.2,3.2,0,0,0-2.417-.9,2.688,2.688,0,0,0-1.95.858,7.953,7.953,0,0,0-1.481,2.121,11.989,11.989,0,0,0-.951,2.76,13.019,13.019,0,0,0-.328,2.776,7.088,7.088,0,0,0,.234,1.84,4.669,4.669,0,0,0,.717,1.544,3.571,3.571,0,0,0,1.248,1.076,3.838,3.838,0,0,0,1.825.406,4.556,4.556,0,0,0,1.481-.25,3.685,3.685,0,0,0,1.264-.717,14.832,14.832,0,0,1,.389-2.386,17.789,17.789,0,0,1,.764-2.23l6.862.967A33.539,33.539,0,0,0,5521.486,948.363Z" transform="translate(-4963.12 -912.59)" fill="#e50019"/>
        </g>
        <g transform="matrix(1, 0, 0, 1, -1.75, -1.25)" filter="url(#Path_17545)">
          <path id="Path_17545-2" data-name="Path 17545" d="M5776.339,935.8q-.234,2.776-.624,5.536t-.811,5.489q-.422,2.73-.7,5.411l-5.582,1.591a43.706,43.706,0,0,0-3.743-6.986q-2.215-3.368-4.616-6.581-.5,2.807-.765,6a50.571,50.571,0,0,0-.14,6.253q-1.187.187-2.371.405l-2.167.405q-1.17.218-2.105.374a39.594,39.594,0,0,1,.141-6.019q.3-2.9.795-5.739t1.061-5.692q.562-2.854.9-5.879l5.988-1.341q.717,1.373,1.685,2.9t2,3.1q1.029,1.575,2.059,3.1t1.9,2.869q.281-2.931.42-5.988t.079-5.832l6.737,1.06A47.258,47.258,0,0,1,5776.339,935.8Z" transform="translate(-5183.44 -913.86)" fill="#e50019"/>
        </g>
        <g transform="matrix(1, 0, 0, 1, -1.75, -1.25)" filter="url(#Path_17546)">
          <path id="Path_17546-2" data-name="Path 17546" d="M5963.882,933.554q-.327,2.885-.717,5.739t-.608,5.754a31.769,31.769,0,0,0,.125,5.957l-7.3,1.279a33.079,33.079,0,0,1-.328-5.941q.108-2.884.452-5.707t.765-5.676q.42-2.854.608-5.848l7.173-1.528A36.444,36.444,0,0,1,5963.882,933.554Z" transform="translate(-5359.78 -912.59)" fill="#e50019"/>
        </g>
        <g transform="matrix(1, 0, 0, 1, -1.75, -1.25)" filter="url(#Path_17547)">
          <path id="Path_17547-2" data-name="Path 17547" d="M6057.064,886.408a25.324,25.324,0,0,0-2.728-.156q-1.3,0-2.511.093t-2.386.25l-2.323.312q-.064.749-.141,1.5t-.2,1.5q.656-.062,1.544-.125t1.9-.125q1.013-.062,2.105-.125t2.121-.094l.562,5.77q-.936.031-2.012.094t-2.105.14q-1.03.078-1.95.156t-1.543.14l-1.279-1.248a15.654,15.654,0,0,0-.093,1.591,3.338,3.338,0,0,0,.7,2.479,3.642,3.642,0,0,0,2.6.733,11.255,11.255,0,0,0,1.98-.187,14.691,14.691,0,0,0,2-.5q.951-.311,1.763-.671a9.76,9.76,0,0,0,1.34-.7l.156,6.425a9.929,9.929,0,0,1-1.778.686,18.961,18.961,0,0,1-2.308.515q-1.248.2-2.651.328t-2.838.125a13.5,13.5,0,0,1-3.4-.405,7.3,7.3,0,0,1-2.713-1.31,6.086,6.086,0,0,1-1.794-2.308,7.967,7.967,0,0,1-.608-3.431,16.046,16.046,0,0,1,.157-2.261q.155-1.107.374-2.246t.422-2.324q.2-1.185.358-2.464l1.9-1.123a5.476,5.476,0,0,0-.639.062q-.453.063-.982.125c-.354.042-.7.078-1.046.109s-.619.047-.826.047q-.157-1.278-.25-2.729a20.488,20.488,0,0,1,0-2.76q2.246-.187,4.46-.546t4.413-.686q2.2-.327,4.429-.468a24.677,24.677,0,0,1,4.538.14Zm-7.391-6.768q-.593-.436-1.248-.967t-1.31-1.029a10.739,10.739,0,0,0-1.482.873q-.764.531-1.482,1.092l-3.461-2.277q1.154-1.091,2.167-1.9a13.213,13.213,0,0,1,2.074-1.372l5.365-.312a17.727,17.727,0,0,0,1.73,2.105,13.276,13.276,0,0,0,2.137,1.856Z" transform="translate(-5431.99 -865.68)" fill="#e50019"/>
        </g>
        <g transform="matrix(1, 0, 0, 1, -1.75, -1.25)" filter="url(#Path_17548)">
          <path id="Path_17548-2" data-name="Path 17548" d="M6217.935,935.8q-.234,2.776-.624,5.536t-.811,5.489q-.421,2.73-.7,5.411l-5.583,1.591a43.586,43.586,0,0,0-3.742-6.986q-2.215-3.368-4.616-6.581-.5,2.807-.764,6a50.575,50.575,0,0,0-.141,6.253q-1.184.187-2.37.405l-2.167.405q-1.17.218-2.105.374a39.531,39.531,0,0,1,.141-6.019q.3-2.9.795-5.739t1.061-5.692q.562-2.854.9-5.879l5.988-1.341q.716,1.373,1.684,2.9t2,3.1q1.03,1.575,2.059,3.1t1.9,2.869q.281-2.931.421-5.988t.078-5.832l6.736,1.06A47.047,47.047,0,0,1,6217.935,935.8Z" transform="translate(-5568.24 -913.86)" fill="#e50019"/>
        </g>
        <g transform="matrix(1, 0, 0, 1, -1.75, -1.25)" filter="url(#Path_17549)">
          <path id="Path_17549-2" data-name="Path 17549" d="M6475.924,961.027q-1.03.062-2.386.094t-2.386.031q-2.744,0-5.646-.171t-5.614-.546l-.405-4.647a26.246,26.246,0,0,0,4.007-2.183,15.048,15.048,0,0,0,2.917-2.5,8.09,8.09,0,0,0,1.637-2.729,4.87,4.87,0,0,0,.11-2.854,2.422,2.422,0,0,0-.625-1.138,3.192,3.192,0,0,0-1.341-.764,8.827,8.827,0,0,0-2.245-.343,24.949,24.949,0,0,0-3.369.125l1.029-5.053q.5-.094,1.17-.156c.446-.042.9-.078,1.373-.109s.925-.052,1.372-.062.847-.016,1.2-.016a13.793,13.793,0,0,1,3.259.374,9.848,9.848,0,0,1,2.745,1.092,6.259,6.259,0,0,1,1.965,1.824,5.767,5.767,0,0,1,.951,2.6,10.923,10.923,0,0,1-1.138,6.472,13.093,13.093,0,0,1-1.871,2.7,22.708,22.708,0,0,1-2.542,2.433q.53.032,1.31.031h2.48q.514,0,.982-.016t.966-.047q.5-.031,1.154-.094Z" transform="translate(-5799.36 -921.68)" fill="#e50019"/>
        </g>
        <g transform="matrix(1, 0, 0, 1, -1.75, -1.25)" filter="url(#Path_17550)">
          <path id="Path_17550-2" data-name="Path 17550" d="M6634.4,938.117a15.9,15.9,0,0,1-1,5.707,13.583,13.583,0,0,1-2.807,4.538,12.651,12.651,0,0,1-4.382,2.994,14.618,14.618,0,0,1-5.693,1.076q-5.051,0-7.625-2.7t-2.573-7.688a15.9,15.9,0,0,1,1-5.707,13.229,13.229,0,0,1,2.807-4.507,12.709,12.709,0,0,1,4.366-2.947,14.772,14.772,0,0,1,5.708-1.06q4.927,0,7.563,2.7T6634.4,938.117Zm-7.86-.062a10.134,10.134,0,0,0-.14-1.637,5.216,5.216,0,0,0-.514-1.575,3.624,3.624,0,0,0-1-1.2,2.523,2.523,0,0,0-1.59-.483,3.306,3.306,0,0,0-1.763.468,4.947,4.947,0,0,0-1.341,1.216,6.845,6.845,0,0,0-.952,1.715,14.662,14.662,0,0,0-.608,1.981,17.264,17.264,0,0,0-.343,2,15.786,15.786,0,0,0-.109,1.731,10.638,10.638,0,0,0,.125,1.559,5.437,5.437,0,0,0,.468,1.559,3.292,3.292,0,0,0,.936,1.185,2.391,2.391,0,0,0,1.528.468,3.873,3.873,0,0,0,2.682-.92,6.446,6.446,0,0,0,1.622-2.292,10.883,10.883,0,0,0,.8-2.932A22.243,22.243,0,0,0,6626.541,938.055Z" transform="translate(-5930.8 -912.81)" fill="#e50019"/>
        </g>
        <g transform="matrix(1, 0, 0, 1, -1.75, -1.25)" filter="url(#Path_17551)">
          <path id="Path_17551-2" data-name="Path 17551" d="M6828.523,961.027q-1.031.062-2.387.094t-2.386.031q-2.744,0-5.645-.171t-5.614-.546l-.405-4.647a26.293,26.293,0,0,0,4.007-2.183,15.048,15.048,0,0,0,2.917-2.5,8.089,8.089,0,0,0,1.637-2.729,4.862,4.862,0,0,0,.11-2.854,2.417,2.417,0,0,0-.624-1.138,3.189,3.189,0,0,0-1.341-.764,8.827,8.827,0,0,0-2.246-.343,24.949,24.949,0,0,0-3.369.125l1.029-5.053q.5-.094,1.169-.156t1.373-.109q.7-.047,1.372-.062t1.2-.016a13.8,13.8,0,0,1,3.26.374,9.844,9.844,0,0,1,2.745,1.092,6.257,6.257,0,0,1,1.964,1.824,5.785,5.785,0,0,1,.952,2.6,10.923,10.923,0,0,1-1.139,6.472,13.055,13.055,0,0,1-1.871,2.7,22.619,22.619,0,0,1-2.542,2.433q.53.032,1.31.031h2.48q.514,0,.982-.016t.967-.047q.5-.031,1.154-.094Z" transform="translate(-6106.61 -921.68)" fill="#e50019"/>
        </g>
        <g transform="matrix(1, 0, 0, 1, -1.75, -1.25)" filter="url(#Path_17572)">
          <path id="Path_17572-2" data-name="Path 17572" d="M8.117-1.545l-17.511.537.207-4.873q.289,0,1.156-.041t1.9-.083q1.033-.041,1.982-.083t1.4-.041q.083-1.239.207-2.932t.289-3.407q.165-1.714.31-3.221t.227-2.375l-5.906,1.652-1.2-4.626,8.88-3.015,5.245-.454q-.041,2.106-.248,4.5t-.454,4.791q-.248,2.4-.475,4.708t-.31,4.213q.413,0,1.115-.021t1.446-.062q.743-.041,1.363-.062t.826-.021Z" transform="translate(734.74 40.18)" fill="#e50019"/>
        </g>
      </g>
    </g>
  </g>
</svg>
