<svg xmlns="http://www.w3.org/2000/svg" width="16" height="16.354" viewBox="0 0 16 16.354">
  <g id="door-key" transform="translate(-9.062 0)">
    <path id="Path_17379" data-name="Path 17379" d="M25.062,5.158a5.158,5.158,0,1,0-9.68,2.482L9.206,13.809a.505.505,0,0,0-.1.565.36.36,0,0,0,.08.115l1.383,1.383a.394.394,0,0,0,.115.08.5.5,0,0,0,.565-.1L12.105,15l1.23,1.23a.4.4,0,0,0,.115.08.5.5,0,0,0,.565-.1l1.363-1.363a.4.4,0,0,0,.08-.115.5.5,0,0,0-.1-.565l-1.211-1.211,3.27-3.272a5.159,5.159,0,0,0,7.642-4.524ZM21.711,6.967a2.562,2.562,0,1,1,.747-1.809A2.518,2.518,0,0,1,21.711,6.967Z" transform="translate(0 0)" fill="#8a94a5"/>
  </g>
</svg>
