<svg xmlns="http://www.w3.org/2000/svg" width="16" height="16" viewBox="0 0 16 16">
  <path id="Fill_3" data-name="Fill 3" d="M8,16H7.758l-.051,0H7.682l-.053,0H7.6l-.042,0-.043,0-.037,0-.036,0-.024,0-.081-.006H7.334l-.047,0H7.28a7.954,7.954,0,0,1-3.724-1.317v0a8,8,0,1,1,8.888,0v0a7.958,7.958,0,0,1-3.722,1.316H8.712l-.046,0H8.658l-.077.006-.025,0-.035,0-.038,0-.042,0-.043,0H8.371l-.053,0H8.293l-.051,0H8ZM1.778,8a6.2,6.2,0,0,0,1.778,4.351V11.119A2.222,2.222,0,0,1,5.778,8.9h4.443a2.222,2.222,0,0,1,2.222,2.222v1.232A6.221,6.221,0,1,0,1.778,8ZM5.334,5.334A2.666,2.666,0,1,1,8,8,2.667,2.667,0,0,1,5.334,5.334Z" fill="#8a94a5"/>
</svg>
