<svg xmlns="http://www.w3.org/2000/svg" xmlns:xlink="http://www.w3.org/1999/xlink" viewBox="0 0 246.88 93.38"><defs><style>.cls-1{fill:none;}.cls-2{fill:#c9252c;}.cls-2,.cls-3{fill-rule:evenodd;}.cls-3,.cls-8{fill:#58595b;}.cls-4{clip-path:url(#clip-path);}.cls-5{fill:url(#linear-gradient);}.cls-6{clip-path:url(#clip-path-2);}.cls-7{fill:url(#linear-gradient-2);}</style><clipPath id="clip-path"><path class="cls-1" d="M187.24,20.71c0,2.73,1.79,3.6,4.7,3.68a77.94,77.94,0,0,0,12.88-1.18c.1,0,.08-.07,0-.08-7.22-2.61-5.73-15.06-6-15.89a.62.62,0,0,0-.66-.47c-2.51,0-11,8.17-11,13.94"/></clipPath><linearGradient id="linear-gradient" x1="-226.87" y1="648.13" x2="-225.87" y2="648.13" gradientTransform="matrix(0, -29.95, -31.52, 0, 20626.22, -6765.74)" gradientUnits="userSpaceOnUse"><stop offset="0" stop-color="#faa61a"/><stop offset="0.2" stop-color="#ffc20e"/><stop offset="0.45" stop-color="#fd0"/><stop offset="1" stop-color="#fd0"/></linearGradient><clipPath id="clip-path-2"><path class="cls-1" d="M239.78,18.65c-4.65,2.05-23.86,8.57-43.19,9.19.75,11.15,8.06,23.37,14,23.37,15.17,0,27.35-25.28,29.92-30.69.74-1.5.51-2-.07-2a1.78,1.78,0,0,0-.69.17"/></clipPath><linearGradient id="linear-gradient-2" x1="-226.87" y1="648.11" x2="-225.87" y2="648.11" gradientTransform="matrix(0, 59.8, 58.92, 0, -37967.08, 13567.47)" gradientUnits="userSpaceOnUse"><stop offset="0" stop-color="#faa61a"/><stop offset="0.5" stop-color="#fd0"/><stop offset="1" stop-color="#fd0"/></linearGradient></defs><title>logo</title><g id="Layer_2" data-name="Layer 2"><g id="Layer_1-2" data-name="Layer 1"><path class="cls-2" d="M0,69.91V36.4a3.84,3.84,0,0,1,1.12-2.77,3.69,3.69,0,0,1,2.73-1.14H7.59V46.41H22.76V32.49h7.7V69.91h-7.7V53.26H7.59V69.91Z"/><path class="cls-2" d="M34.24,69.91V36.4a3.88,3.88,0,0,1,3.91-3.91h9.47q8.58,0,12.83,4.57,4.24,4.77,4.24,14.13a25.45,25.45,0,0,1-1.52,9,15,15,0,0,1-4.57,6.31,14.6,14.6,0,0,1-5.11,2.61,30.38,30.38,0,0,1-7.94.77Zm7.5-6.75h4.9q5.32,0,7.83-2.83c1.59-1.74,2.39-4.78,2.39-9.14q0-6.3-2.29-9.24t-7-2.94H41.74Z"/><path class="cls-3" d="M68.44,69.91V36.4a3.78,3.78,0,0,1,1.14-2.77,3.74,3.74,0,0,1,2.75-1.14H85.94c3.82,0,6.74.79,8.75,2.39a8.89,8.89,0,0,1,3,7.07,9.12,9.12,0,0,1-1.19,4.79,8.35,8.35,0,0,1-3.35,2.93A9.86,9.86,0,0,1,97.5,53a9.54,9.54,0,0,1,1.4,5.45A10.69,10.69,0,0,1,95.45,67q-3.57,2.94-10,3ZM75.79,47h8.75a6.83,6.83,0,0,0,4.11-1,3.57,3.57,0,0,0,1.29-3,3.56,3.56,0,0,0-1.29-3c-.73-.59-2.13-.88-4.22-.88H75.79Zm0,16.2h9.08A7.7,7.7,0,0,0,89.51,62,4.24,4.24,0,0,0,91,58.27a4.58,4.58,0,0,0-1.51-3.81c-.94-.73-2.53-1.09-4.76-1.09h-9Z"/><path class="cls-3" d="M157.66,69.91h-3.87a3.68,3.68,0,0,1-2.69-1A3.52,3.52,0,0,1,150,66.21V50.67a4.44,4.44,0,0,0-1.59-3.81,5.89,5.89,0,0,0-3.59-1.19,5.66,5.66,0,0,0-3.53,1.19,4.52,4.52,0,0,0-1.53,3.81V69.91h-7.73V52.19q0-7.38,3.92-9.9a17.44,17.44,0,0,1,8.65-2.72,16.88,16.88,0,0,1,8.94,2.51q4.08,2.51,4.08,10.11Z"/><path class="cls-3" d="M122.75,67.16c-2.92,2.39-6.21,2.75-9.84,2.75a12.27,12.27,0,0,1-7.18-2.14c-2-1.43-3.08-3.78-3.08-7.07q0-4.61,2.79-6.57a16.36,16.36,0,0,1,7.13-2.63,7.06,7.06,0,0,0,1.37-.17c.52-.11,1.13-.19,1.82-.27,3.34-.44,5-1.39,5-2.85A2.11,2.11,0,0,0,119,46.07a12.16,12.16,0,0,0-3.25-.49,8.94,8.94,0,0,0-2.85.43,3.13,3.13,0,0,0-1.83,1.65h-7.63a8.32,8.32,0,0,1,3.2-5.59q3.06-2.52,8.76-2.52c4.26,0,7.45.69,9.58,2.09a7,7,0,0,1,3.31,6.13v10a12.32,12.32,0,0,1-1.65,6.85c-1.42,1.33-2.38,1.55-3.9,2.57m-1.87-12.49a21.46,21.46,0,0,1-4.44,1.43l-2.62.54a6.74,6.74,0,0,0-3,1.43,4.36,4.36,0,0,0-.8,2.41,3.49,3.49,0,0,0,1,2.63,4.43,4.43,0,0,0,3,.88,6.92,6.92,0,0,0,5-1.76,6.37,6.37,0,0,0,1.82-4.82Z"/><path class="cls-3" d="M128.3,70h-3.41a3.08,3.08,0,0,1-2.39-1,3.79,3.79,0,0,1-.92-2.66V57.49h6.72Z"/><path class="cls-3" d="M168.93,41V51.11L178,39.55h9L176.86,52.06l10.29,17.85h-9l-5.24-9.8c-1.07-2-2-2.79-2.79-2.49s-1.18.72-1.18,1.3v11h-7.5V32.49h3.87a3.67,3.67,0,0,1,3.63,3.59Z"/><g class="cls-4"><rect class="cls-5" x="184.33" y="3.87" width="23.51" height="23.53" transform="translate(11.77 84.33) rotate(-25)"/></g><g class="cls-6"><rect class="cls-7" x="198.94" y="10" width="40" height="49.7" transform="translate(146.6 244.41) rotate(-80)"/></g><path class="cls-3" d="M7.61,78.79v1.52H6.51a5.4,5.4,0,0,0-1.91.34,4.64,4.64,0,0,0-1.53.95,4.21,4.21,0,0,0-1,1.45,4.33,4.33,0,0,0-.37,1.8,4.64,4.64,0,0,0,.65,2.51,4.26,4.26,0,0,0,3.55,2H7.61V90.9H5.89a5.87,5.87,0,0,1-3-.78A5.58,5.58,0,0,1,.76,87.93,6.36,6.36,0,0,1,0,84.85,5.93,5.93,0,0,1,.78,82a6.24,6.24,0,0,1,5.56-3.16Z"/><path class="cls-3" d="M17.84,90.9H16.32V86.23A2.17,2.17,0,0,0,16,85a2.36,2.36,0,0,0-1-.8,3.31,3.31,0,0,0-1.34-.27,2.63,2.63,0,0,0-1.44.39,2.55,2.55,0,0,0-1,1.07,3.26,3.26,0,0,0-.34,1.45,3,3,0,0,0,.35,1.41,2.62,2.62,0,0,0,2.37,1.42,2.64,2.64,0,0,0,2.1-1.14v1.8a5,5,0,0,1-1,.59,3.35,3.35,0,0,1-1.22.2,3.91,3.91,0,0,1-2.94-1.28,4.44,4.44,0,0,1-.85-1.42,4.88,4.88,0,0,1-.3-1.71,4.41,4.41,0,0,1,.52-2.15A3.81,3.81,0,0,1,11.38,83a4.52,4.52,0,0,1,2.27-.56,5,5,0,0,1,1.74.29,3.81,3.81,0,0,1,1.32.79,3.51,3.51,0,0,1,.85,1.25,4.45,4.45,0,0,1,.28,1.62Z"/><path class="cls-3" d="M21.77,90.9H20.25V85.26a2.8,2.8,0,0,1,1.47-2.46,3.07,3.07,0,0,1,1.5-.38,3.21,3.21,0,0,1,1.38.31,2.59,2.59,0,0,1,1,.87,2.68,2.68,0,0,1,1-.88,3.17,3.17,0,0,1,1.38-.3,3.23,3.23,0,0,1,1.19.22,3.11,3.11,0,0,1,.94.61,3,3,0,0,1,.62.9A2.78,2.78,0,0,1,31,85.26V90.9H29.51V85.6a1.81,1.81,0,0,0-.41-1.26A1.35,1.35,0,0,0,28,83.88c-1.09,0-1.64.65-1.64,2V90.9H24.88V85.85c0-1.32-.54-2-1.62-2a1.37,1.37,0,0,0-1.08.46,1.85,1.85,0,0,0-.41,1.26Z"/><path class="cls-3" d="M42.5,90.9H41V78.79H42.5v6.9h.64a1.37,1.37,0,0,0,1.28-.63l1.43-2.46h1.74L46.5,84.47a6.78,6.78,0,0,1-.65,1,1.29,1.29,0,0,1-.66.53v0a2.31,2.31,0,0,1,1.43.78,2.56,2.56,0,0,1,.48,1.66V90.9H45.58V88.64a1.63,1.63,0,0,0-.36-1.13,1.33,1.33,0,0,0-1-.37H42.5Z"/><path class="cls-3" d="M57.46,85.05l-5.6,3.12L51.23,87l4.11-2.29a3.05,3.05,0,0,0-.83-.61,2.63,2.63,0,0,0-1.06-.18,2.53,2.53,0,0,0-2,.8,2.86,2.86,0,0,0-.77,2.06,2.9,2.9,0,0,0,.77,2.07,2.54,2.54,0,0,0,2,.81,2.5,2.5,0,0,0,1.9-.68A3.82,3.82,0,0,0,56.23,87l1.54.19a4.16,4.16,0,0,1-.66,2,3.88,3.88,0,0,1-1.54,1.38,4.63,4.63,0,0,1-3.76.19,4.62,4.62,0,0,1-1.39-.9,4.13,4.13,0,0,1-.94-1.38,4.57,4.57,0,0,1,0-3.46,4,4,0,0,1,1-1.38,4.24,4.24,0,0,1,1.39-.91,4.46,4.46,0,0,1,1.63-.31,4.18,4.18,0,0,1,2.42.69,4.74,4.74,0,0,1,1.59,1.94"/><polygon class="cls-3" points="51.16 81.77 52.63 79.7 53.99 79.7 55.46 81.77 54.28 81.77 53.31 80.41 52.34 81.77 51.16 81.77"/><polygon class="cls-3" points="55.06 80.81 56.37 78.73 57.95 78.73 56.04 80.81 55.06 80.81"/><path class="cls-3" d="M64.62,82.6v1.46h-3v4.35a1,1,0,0,0,.28.81,1.35,1.35,0,0,0,.87.23h1.83V90.9h-2a2.3,2.3,0,0,1-1.81-.72,2.82,2.82,0,0,1-.65-2V80.52h1.51V82.6Z"/><rect class="cls-8" x="74.57" y="78.79" width="1.52" height="12.11"/><path class="cls-3" d="M78.63,86.75A4.41,4.41,0,0,1,79,85a4,4,0,0,1,1-1.38,4.24,4.24,0,0,1,1.39-.91,4.5,4.5,0,0,1,1.63-.31,4.27,4.27,0,0,1,1.48.26,4.43,4.43,0,0,1,1.23.68,3.92,3.92,0,0,1,.88,1,1.35,1.35,0,0,0,.71-.23c.24-.15.36-.3.36-.46h-.43v-1.2h1v1.13a1.17,1.17,0,0,1-.41,1,1.48,1.48,0,0,1-.94.33,3,3,0,0,1,.29.85,4.23,4.23,0,0,1,.12,1,4.54,4.54,0,0,1-.34,1.74A4.3,4.3,0,0,1,86,89.86a4.36,4.36,0,0,1-1.38.89,4.18,4.18,0,0,1-1.65.32,4.38,4.38,0,0,1-1.64-.31,4.22,4.22,0,0,1-1.38-.9A4,4,0,0,1,79,88.48a4.24,4.24,0,0,1-.34-1.73m1.59,0A2.88,2.88,0,0,0,81,88.81a2.75,2.75,0,0,0,3.9,0,3.15,3.15,0,0,0,0-4.13,2.78,2.78,0,0,0-3.9,0,2.86,2.86,0,0,0-.76,2.07M82,92.62a.76.76,0,0,1,.21-.53.69.69,0,0,1,.55-.23.76.76,0,0,1,.55.22.79.79,0,0,1,0,1.07.73.73,0,0,1-.55.23.71.71,0,0,1-.55-.22.76.76,0,0,1-.21-.54"/><path class="cls-3" d="M90.25,80.74a.82.82,0,0,1,.2-.54A.75.75,0,0,1,91,80a.71.71,0,0,1,.55.22.79.79,0,0,1,0,1.07.72.72,0,0,1-.55.23.75.75,0,0,1-.56-.23.79.79,0,0,1-.2-.53M91.77,90.9H90.25V82.6h1.52Z"/><path class="cls-3" d="M101.72,81.58,103,79.5h1.57l-1.9,2.08Zm2,9.32h-1.52V82.6h1.52Z"/><path class="cls-3" d="M112.62,82.6v1.46h-1.19a3.14,3.14,0,0,0-1.39.31,2.54,2.54,0,0,0-1.05.93,2.62,2.62,0,0,0-.41,1.45,2.47,2.47,0,0,0,.85,2,3,3,0,0,0,2,.73h1.19V90.9h-1.45a4.25,4.25,0,0,1-2-.49A4.16,4.16,0,0,1,107.61,89a4,4,0,0,1-.61-2.21,4,4,0,0,1,.35-1.72,3.87,3.87,0,0,1,1-1.32,4.46,4.46,0,0,1,1.37-.82,4.1,4.1,0,0,1,1.48-.29Z"/><path class="cls-3" d="M116.14,90.9h-1.52V78.79h1.52v4.53a3,3,0,0,1,2.13-.9c2.3,0,3.45,1.22,3.45,3.64V90.9H120.2V86.06c0-1.46-.68-2.18-2-2.18a1.88,1.88,0,0,0-1.43.61,2.15,2.15,0,0,0-.6,1.57Z"/><path class="cls-3" d="M137.29,82.6v1.46h-1.18a3.11,3.11,0,0,0-1.39.31,2.45,2.45,0,0,0-1.06.93,2.62,2.62,0,0,0-.41,1.45,2.47,2.47,0,0,0,.85,2,3,3,0,0,0,2,.73h1.18V90.9h-1.45a4.25,4.25,0,0,1-2-.49A4.16,4.16,0,0,1,132.28,89a4,4,0,0,1-.61-2.21A4,4,0,0,1,132,85a3.87,3.87,0,0,1,1-1.32,4.53,4.53,0,0,1,1.36-.82,4.19,4.19,0,0,1,1.49-.29Z"/><path class="cls-3" d="M147.45,90.9h-1.53V86.23a2.17,2.17,0,0,0-.37-1.28,2.36,2.36,0,0,0-1-.8,3.31,3.31,0,0,0-1.34-.27,2.68,2.68,0,0,0-1.44.39,2.62,2.62,0,0,0-1,1.07,3.25,3.25,0,0,0-.33,1.45,3,3,0,0,0,.34,1.41,2.72,2.72,0,0,0,1,1,2.66,2.66,0,0,0,1.39.38,2.63,2.63,0,0,0,2.1-1.14v1.8a4.75,4.75,0,0,1-1,.59,3.27,3.27,0,0,1-1.22.2,4,4,0,0,1-1.61-.33,3.91,3.91,0,0,1-1.33-.95,4.44,4.44,0,0,1-.85-1.42,4.88,4.88,0,0,1-.3-1.71,4.42,4.42,0,0,1,.53-2.15A3.78,3.78,0,0,1,141,83a4.52,4.52,0,0,1,2.27-.56,5,5,0,0,1,1.74.29,3.72,3.72,0,0,1,1.32.79,3.39,3.39,0,0,1,.85,1.25,4.45,4.45,0,0,1,.29,1.62Z"/><path class="cls-3" d="M149.51,86.75a4.41,4.41,0,0,1,.33-1.73,4,4,0,0,1,.95-1.38,4.24,4.24,0,0,1,1.39-.91,4.46,4.46,0,0,1,1.63-.31,4.55,4.55,0,0,1,1.64.31,4.2,4.2,0,0,1,1.38.89,4.26,4.26,0,0,1,.94,1.4,4.31,4.31,0,0,1,.34,1.73,4.23,4.23,0,0,1-.35,1.74,3.89,3.89,0,0,1-.92,1.37,4.32,4.32,0,0,1-1.37.89,4.45,4.45,0,0,1-3.29,0,4.26,4.26,0,0,1-2.34-2.28,4.41,4.41,0,0,1-.33-1.73m1.59,0a2.88,2.88,0,0,0,.76,2.06,2.75,2.75,0,0,0,3.9,0,3.19,3.19,0,0,0,0-4.13,2.78,2.78,0,0,0-3.9,0,2.86,2.86,0,0,0-.76,2.07"/><path class="cls-3" d="M169.58,90.9h-1.52V86.06a3.94,3.94,0,0,1,.46-1.89,3.31,3.31,0,0,1,1.28-1.29,3.66,3.66,0,0,1,1.81-.46,3.73,3.73,0,0,1,1.82.46,3.19,3.19,0,0,1,1.26,1.29,3.84,3.84,0,0,1,.47,1.89V90.9h-1.52V86.06a2.36,2.36,0,0,0-.28-1.13,2,2,0,0,0-.74-.77,1.9,1.9,0,0,0-1-.28,1.93,1.93,0,0,0-1,.28,2,2,0,0,0-.74.77,2.26,2.26,0,0,0-.28,1.13Z"/><path class="cls-3" d="M179.1,90.9h-1.52V78.79h1.52v4.53a2.7,2.7,0,0,1,.92-.64,2.86,2.86,0,0,1,1.21-.26c2.3,0,3.44,1.22,3.44,3.64V90.9h-1.52V86.06c0-1.46-.67-2.18-2-2.18a1.9,1.9,0,0,0-1.43.61,2.14,2.14,0,0,0-.59,1.57Z"/><path class="cls-3" d="M195.24,90.9h-1.52V86.23a2.18,2.18,0,0,0-.38-1.28,2.36,2.36,0,0,0-1-.8,3.23,3.23,0,0,0-1.33-.27,2.63,2.63,0,0,0-1.44.39,2.49,2.49,0,0,0-1,1.07,3.13,3.13,0,0,0-.34,1.45,3.09,3.09,0,0,0,.34,1.41,2.8,2.8,0,0,0,1,1,2.67,2.67,0,0,0,1.4.38,2.63,2.63,0,0,0,2.09-1.14v1.8a4.47,4.47,0,0,1-1,.59,3.35,3.35,0,0,1-1.22.2,4,4,0,0,1-1.62-.33,3.87,3.87,0,0,1-1.32-.95,4.46,4.46,0,0,1-.86-1.42,5.12,5.12,0,0,1-.29-1.71,4.41,4.41,0,0,1,.52-2.15,3.81,3.81,0,0,1,1.5-1.53,4.49,4.49,0,0,1,2.27-.56,4.86,4.86,0,0,1,1.73.29,3.76,3.76,0,0,1,1.33.79,3.37,3.37,0,0,1,.84,1.25,4.45,4.45,0,0,1,.29,1.62Z"/><polygon class="cls-3" points="188.87 81.83 190.34 79.75 191.69 79.75 193.16 81.83 191.99 81.83 191.02 80.46 190.05 81.83 188.87 81.83"/><polygon class="cls-3" points="192.76 80.81 194.08 78.73 195.66 78.73 193.75 80.81 192.76 80.81"/><path class="cls-3" d="M202.31,82.6v1.46h-3v4.35a1,1,0,0,0,.27.81,1.35,1.35,0,0,0,.87.23h1.83V90.9h-2a2.31,2.31,0,0,1-1.81-.72,2.77,2.77,0,0,1-.65-2V80.52h1.52V82.6Z"/></g></g></svg>