<svg xmlns="http://www.w3.org/2000/svg" width="130" height="46.883" viewBox="0 0 130 46.883">
  <g id="logo_scb" transform="translate(-774.137 -435.874)">
    <g id="Group_12084" data-name="Group 12084" transform="translate(774.137 435.874)">
      <path id="Path_17585" data-name="Path 17585" d="M794.01,463.277v4.688h1.032v-1.5l.368-.33h0l1.85,1.833h1.475l-2.549-2.529h0l2.4-2.159H797.26l-2.218,1.99v-1.99Z" transform="translate(-775.098 -437.199)" fill="#fafafc"/>
      <path id="Path_17586" data-name="Path 17586" d="M784.62,466.939l.485,1.026h1.182l-2.068-4.376-.148-.312h-.889l-.147.312-2.07,4.376h1.185l.484-1.026Zm-.991-2.1.576,1.22h-1.154Z" transform="translate(-774.467 -437.199)" fill="#fafafc"/>
      <path id="Path_17587" data-name="Path 17587" d="M778.408,463.277h-3.03v4.688h3.327a1.4,1.4,0,0,0,1.4-1.391,1.269,1.269,0,0,0-.587-1.084,1.283,1.283,0,0,0,.291-.821A1.4,1.4,0,0,0,778.408,463.277Zm-2,.878h1.774a.513.513,0,1,1,0,1.026h-1.774Zm2.069,2.93h-2.069V466.06h2.069a.513.513,0,1,1,0,1.026Z" transform="translate(-774.197 -437.199)" fill="#fafafc"/>
      <path id="Path_17588" data-name="Path 17588" d="M791.337,467.965h1.035v-4.688h-1.035V466.5l-2.659-3.223h-1.034v4.688h1.034v-3.224Z" transform="translate(-774.79 -437.199)" fill="#fafafc"/>
      <path id="Path_17589" data-name="Path 17589" d="M786.915,454.592h-12.08a23.342,23.342,0,0,0-.455,2.346h10.171Z" transform="translate(-774.149 -436.779)" fill="#e1001e"/>
      <path id="Path_17590" data-name="Path 17590" d="M811.991,440.554H784.272a23.36,23.36,0,0,0-2.785,2.344h33.287A23.5,23.5,0,0,0,811.991,440.554Z" transform="translate(-774.492 -436.1)" fill="#e1001e"/>
      <path id="Path_17591" data-name="Path 17591" d="M821.383,459.273H774.167c-.021.389-.03.779-.03,1.173s.009.783.03,1.171h35.425v3.516l-11.818,11.722-7.681-7.62H775.858a23.669,23.669,0,0,0,45.552-8.789C821.41,460.052,821.4,459.662,821.383,459.273Z" transform="translate(-774.137 -437.005)" fill="#e1001e"/>
      <path id="Path_17592" data-name="Path 17592" d="M798.451,435.874a23.737,23.737,0,0,0-10.314,2.343h20.628A23.725,23.725,0,0,0,798.451,435.874Z" transform="translate(-774.814 -435.874)" fill="#e1001e"/>
      <path id="Path_17593" data-name="Path 17593" d="M808.045,452.258h13.573a23.827,23.827,0,0,0-.973-2.343H805.682Z" transform="translate(-775.662 -436.553)" fill="#e1001e"/>
      <path id="Path_17594" data-name="Path 17594" d="M803.326,447.577h15.938a23.4,23.4,0,0,0-1.648-2.343H800.963Z" transform="translate(-775.434 -436.326)" fill="#e1001e"/>
      <path id="Path_17595" data-name="Path 17595" d="M796.06,445.234H779.4a23.54,23.54,0,0,0-1.646,2.343H793.7Z" transform="translate(-774.312 -436.326)" fill="#e1001e"/>
      <path id="Path_17596" data-name="Path 17596" d="M791.461,449.915H776.494a22.913,22.913,0,0,0-.971,2.343H789.1Z" transform="translate(-774.204 -436.553)" fill="#e1001e"/>
    </g>
    <g id="Group_12085" data-name="Group 12085" transform="translate(827.321 438.217)">
      <path id="Path_17597" data-name="Path 17597" d="M871.153,462.95a9.377,9.377,0,1,1,7.275-15.366,38.467,38.467,0,0,1,4.957-3.228,15.237,15.237,0,1,0,0,18.434,38.512,38.512,0,0,1-4.955-3.23A9.469,9.469,0,0,1,871.153,462.95Z" transform="translate(-831.267 -438.336)" fill="#fafafc"/>
      <path id="Path_17598" data-name="Path 17598" d="M906.016,452.411a7.994,7.994,0,0,0,2.095-5.4,8.09,8.09,0,0,0-8.123-8.058H886.923a8.713,8.713,0,0,1,.508,2.931v26.37h13.294a8.775,8.775,0,0,0,5.291-15.841ZM893.34,444.52h5.612a2.93,2.93,0,1,1,0,5.86H893.34Zm6.5,18.167h-6.5v-7.034h6.5a3.517,3.517,0,1,1,0,7.034Z" transform="translate(-832.772 -438.366)" fill="#fafafc"/>
      <path id="Path_17599" data-name="Path 17599" d="M845.458,451.728c-1.421-.408-4.293-1-6.446-1.55-1.2-.305-2.824-1.146-2.824-2.9,0-1.277,1.331-3.515,5.318-3.443,3.248.061,5.019,2.121,5.169,3.877a38.524,38.524,0,0,1,5.681-1.844c-1.269-4.261-5.149-7.527-10.85-7.527a12.676,12.676,0,0,0-7.375,2.081,8.434,8.434,0,0,0-3.849,6.836,7.923,7.923,0,0,0,4.445,7.027c1.888,1.1,5.971,1.943,7.354,2.288,2.316.577,3.84.846,4.6,1.547a2.166,2.166,0,0,1,.738,1.758c0,1.812-1.974,3.466-5.465,3.466-4.387,0-5.943-2.08-6.172-3.85a38.694,38.694,0,0,1-5.757,1.844,10.171,10.171,0,0,0,3.95,5.279,13.49,13.49,0,0,0,7.979,2.2c6.682,0,11.374-4.1,11.374-9.23C853.325,453.72,847.417,452.292,845.458,451.728Z" transform="translate(-830.022 -438.336)" fill="#fafafc"/>
    </g>
    <g id="Group_12086" data-name="Group 12086" transform="translate(827.32 472.354)">
      <path id="Path_17600" data-name="Path 17600" d="M843.754,474.793l.591.439h1.034l-1.181-1.026h-.886l-1.181,1.026h1.034Z" transform="translate(-830.607 -474.206)" fill="#fafafc"/>
      <path id="Path_17601" data-name="Path 17601" d="M903.015,475.232l-1.035-1.026h-1.329l1.329,1.026Z" transform="translate(-833.436 -474.206)" fill="#fafafc"/>
      <path id="Path_17602" data-name="Path 17602" d="M887.646,475.232l-1.035-1.026h-1.327l1.327,1.026Z" transform="translate(-832.693 -474.206)" fill="#fafafc"/>
      <path id="Path_17603" data-name="Path 17603" d="M863.742,475.232l-1.034-1.026H861.38l1.328,1.026Z" transform="translate(-831.537 -474.206)" fill="#fafafc"/>
      <path id="Path_17604" data-name="Path 17604" d="M842.96,475.9l-1.979,5.86h1.3l.457-1.465h1.922l.456,1.465h1.3l-1.98-5.86Zm.1,3.37.641-2.05.641,2.05Z" transform="translate(-830.551 -474.288)" fill="#fafafc"/>
      <path id="Path_17605" data-name="Path 17605" d="M862.209,475.9l-1.98,5.86h1.3l.456-1.465h1.923l.457,1.465h1.3l-1.977-5.86Zm.1,3.37.64-2.05.641,2.05Z" transform="translate(-831.482 -474.288)" fill="#fafafc"/>
      <path id="Path_17606" data-name="Path 17606" d="M886.113,475.9l-1.979,5.86h1.3l.457-1.465h1.921l.459,1.465h1.3l-1.98-5.86Zm.1,3.37.64-2.05.638,2.05Z" transform="translate(-832.637 -474.288)" fill="#fafafc"/>
      <path id="Path_17607" data-name="Path 17607" d="M833.567,479.562l-2.513-3.662h-1.032v5.86H831.2V478.1l2.511,3.663h1.034V475.9h-1.182Z" transform="translate(-830.022 -474.288)" fill="#fafafc"/>
      <path id="Path_17608" data-name="Path 17608" d="M850.641,479.562,848.13,475.9H847.1v5.86h1.182V478.1l2.513,3.663h1.034V475.9h-1.183Z" transform="translate(-830.847 -474.288)" fill="#fafafc"/>
      <path id="Path_17609" data-name="Path 17609" d="M869.887,479.562l-2.51-3.662h-1.034v5.86h1.181V478.1l2.511,3.663h1.035V475.9h-1.184Z" transform="translate(-831.777 -474.288)" fill="#fafafc"/>
      <path id="Path_17610" data-name="Path 17610" d="M909.317,475.9v3.662l-2.51-3.662h-1.035v5.86h1.182V478.1l2.511,3.663H910.5V475.9Z" transform="translate(-833.683 -474.288)" fill="#fafafc"/>
      <path id="Path_17611" data-name="Path 17611" d="M838.275,476.891c.74,0,1.034.323,1.124.893h1.241a2.126,2.126,0,0,0-2.365-2.006c-1.772,0-2.51,1.142-2.51,2.753v.587c0,1.611.738,2.753,2.51,2.753a2.114,2.114,0,0,0,2.365-2.136v-1.2h-2.365v1.026h1.18v.2c0,.587-.411,1-1.18,1-.887,0-1.246-.616-1.246-1.641v-.587C837.03,477.36,837.449,476.891,838.275,476.891Z" transform="translate(-830.299 -474.282)" fill="#fafafc"/>
      <path id="Path_17612" data-name="Path 17612" d="M874.6,476.891c.738,0,1.034.323,1.123.893h1.242a2.127,2.127,0,0,0-2.365-2.006c-1.772,0-2.511,1.142-2.511,2.753v.587c0,1.611.739,2.753,2.511,2.753a2.115,2.115,0,0,0,2.365-2.136v-1.2H874.6v1.026h1.182v.2c0,.587-.414,1-1.182,1-.887,0-1.246-.616-1.246-1.641v-.587C873.354,477.36,873.771,476.891,874.6,476.891Z" transform="translate(-832.055 -474.282)" fill="#fafafc"/>
      <path id="Path_17613" data-name="Path 17613" d="M896.333,476.891c.737,0,1.034.323,1.12.893H898.7a2.125,2.125,0,0,0-2.362-2.006c-1.775,0-2.515,1.142-2.515,2.753v.587c0,1.611.74,2.753,2.515,2.753a2.113,2.113,0,0,0,2.362-2.136v-1.2h-2.362v1.026h1.18v.2c0,.587-.413,1-1.18,1-.888,0-1.248-.616-1.248-1.641v-.587C895.086,477.36,895.5,476.891,896.333,476.891Z" transform="translate(-833.105 -474.282)" fill="#fafafc"/>
      <path id="Path_17614" data-name="Path 17614" d="M858.4,478.244h-2.363V475.9h-1.18v5.86h1.18v-2.49H858.4v2.49h1.184V475.9H858.4Z" transform="translate(-831.222 -474.288)" fill="#fafafc"/>
      <path id="Path_17615" data-name="Path 17615" d="M882.272,478.339l-.89-.2c-.531-.109-.826-.314-.826-.665,0-.47.411-.7,1.034-.7.678,0,1,.323,1,.733h1.18c0-1.026-.855-1.728-2.218-1.728-1.3,0-2.242.585-2.242,1.758a1.673,1.673,0,0,0,1.527,1.663l.9.2c.6.135.887.3.887.724,0,.455-.385.75-1.124.75s-1.123-.293-1.123-.733h-1.21c0,.791.561,1.728,2.332,1.728,1.478,0,2.365-.7,2.365-1.875C883.864,478.941,883.155,478.531,882.272,478.339Z" transform="translate(-832.397 -474.282)" fill="#fafafc"/>
      <rect id="Rectangle_8388" data-name="Rectangle 8388" width="1.181" height="5.86" transform="translate(57.317 1.612)" fill="#fafafc"/>
      <path id="Path_17616" data-name="Path 17616" d="M902.229,475.778c-1.624,0-2.51,1-2.51,2.753v.587c0,1.758.887,2.753,2.5,2.753,1.632,0,2.519-1,2.519-2.753v-.587C904.742,476.773,903.855,475.778,902.229,475.778Zm1.271,3.34c0,1.172-.53,1.641-1.271,1.641s-1.269-.469-1.269-1.641v-.587c0-1.172.532-1.64,1.269-1.64s1.271.468,1.271,1.64Z" transform="translate(-833.39 -474.282)" fill="#fafafc"/>
    </g>
  </g>
</svg>
