<svg xmlns="http://www.w3.org/2000/svg" width="134.542" height="48.52" viewBox="0 0 134.542 48.52">
  <g id="logo_scb" transform="translate(-774.137 -435.874)">
    <g id="Group_12084" data-name="Group 12084" transform="translate(774.137 435.874)">
      <path id="Path_17585" data-name="Path 17585" d="M794.01,463.277v4.852h1.069v-1.555l.381-.341h0l1.915,1.9H798.9l-2.639-2.618h0l2.486-2.234h-1.374l-2.3,2.059v-2.059Z" transform="translate(-774.437 -436.288)" fill="#fafafc"/>
      <path id="Path_17586" data-name="Path 17586" d="M784.748,467.067l.5,1.062h1.223l-2.14-4.529-.153-.323h-.92l-.152.323-2.142,4.529h1.226l.5-1.062Zm-1.025-2.173.6,1.263h-1.195Z" transform="translate(-774.24 -436.288)" fill="#fafafc"/>
      <path id="Path_17587" data-name="Path 17587" d="M778.514,463.277h-3.136v4.852h3.443a1.446,1.446,0,0,0,1.451-1.44,1.313,1.313,0,0,0-.608-1.122,1.328,1.328,0,0,0,.3-.85A1.446,1.446,0,0,0,778.514,463.277Zm-2.065.909h1.836a.531.531,0,1,1,0,1.062h-1.836Zm2.141,3.032h-2.141v-1.062h2.141a.531.531,0,1,1,0,1.062Z" transform="translate(-774.156 -436.288)" fill="#fafafc"/>
      <path id="Path_17588" data-name="Path 17588" d="M791.466,468.129h1.071v-4.852h-1.071v3.335l-2.752-3.335h-1.07v4.852h1.07v-3.337Z" transform="translate(-774.341 -436.288)" fill="#fafafc"/>
      <path id="Path_17589" data-name="Path 17589" d="M787.353,454.592h-12.5a24.167,24.167,0,0,0-.471,2.428h10.527Z" transform="translate(-774.141 -436.157)" fill="#e1001e"/>
      <path id="Path_17590" data-name="Path 17590" d="M813.056,440.554H784.369a24.175,24.175,0,0,0-2.882,2.426h34.45A24.325,24.325,0,0,0,813.056,440.554Z" transform="translate(-774.248 -435.945)" fill="#e1001e"/>
      <path id="Path_17591" data-name="Path 17591" d="M823.034,459.273H774.169c-.022.4-.031.807-.031,1.214s.01.811.031,1.211h36.662v3.639L798.6,477.469l-7.949-7.886H775.918a24.5,24.5,0,0,0,47.143-9.1C823.061,460.08,823.051,459.676,823.034,459.273Z" transform="translate(-774.137 -436.227)" fill="#e1001e"/>
      <path id="Path_17592" data-name="Path 17592" d="M798.811,435.874a24.566,24.566,0,0,0-10.674,2.425h21.349A24.554,24.554,0,0,0,798.811,435.874Z" transform="translate(-774.348 -435.874)" fill="#e1001e"/>
      <path id="Path_17593" data-name="Path 17593" d="M808.127,452.34h14.047a24.648,24.648,0,0,0-1.007-2.425H805.682Z" transform="translate(-774.613 -436.086)" fill="#e1001e"/>
      <path id="Path_17594" data-name="Path 17594" d="M803.408,447.659h16.5a24.215,24.215,0,0,0-1.706-2.425H800.963Z" transform="translate(-774.542 -436.015)" fill="#e1001e"/>
      <path id="Path_17595" data-name="Path 17595" d="M796.7,445.234H779.46a24.368,24.368,0,0,0-1.7,2.425h16.5Z" transform="translate(-774.192 -436.015)" fill="#e1001e"/>
      <path id="Path_17596" data-name="Path 17596" d="M792.018,449.915H776.528a23.706,23.706,0,0,0-1,2.425h14.049Z" transform="translate(-774.158 -436.086)" fill="#e1001e"/>
    </g>
    <g id="Group_12085" data-name="Group 12085" transform="translate(829.178 438.299)">
      <path id="Path_17597" data-name="Path 17597" d="M871.689,463.81a9.7,9.7,0,1,1,7.529-15.9,39.818,39.818,0,0,1,5.13-3.341,15.769,15.769,0,1,0,0,19.078,39.858,39.858,0,0,1-5.128-3.343A9.8,9.8,0,0,1,871.689,463.81Z" transform="translate(-830.411 -438.336)" fill="#fafafc"/>
      <path id="Path_17598" data-name="Path 17598" d="M906.683,452.882a8.273,8.273,0,0,0,2.168-5.59,8.373,8.373,0,0,0-8.407-8.339H886.923a9.017,9.017,0,0,1,.526,3.034v27.291h13.758a9.082,9.082,0,0,0,5.476-16.395Zm-13.119-8.167h5.808a3.033,3.033,0,1,1,0,6.065h-5.808Zm6.725,18.8h-6.725v-7.279h6.725a3.64,3.64,0,1,1,0,7.279Z" transform="translate(-830.881 -438.345)" fill="#fafafc"/>
      <path id="Path_17599" data-name="Path 17599" d="M846,452.2c-1.47-.422-4.443-1.038-6.671-1.6-1.241-.316-2.922-1.186-2.922-3.006,0-1.322,1.378-3.638,5.5-3.563,3.361.063,5.194,2.2,5.35,4.013a39.867,39.867,0,0,1,5.879-1.909c-1.313-4.409-5.329-7.79-11.229-7.79a13.118,13.118,0,0,0-7.633,2.154,8.728,8.728,0,0,0-3.984,7.075,8.2,8.2,0,0,0,4.6,7.273c1.954,1.142,6.179,2.011,7.611,2.368,2.4.6,3.974.876,4.758,1.6a2.241,2.241,0,0,1,.763,1.819c0,1.875-2.043,3.587-5.656,3.587-4.54,0-6.151-2.153-6.388-3.985a40.046,40.046,0,0,1-5.958,1.909,10.526,10.526,0,0,0,4.088,5.463,13.961,13.961,0,0,0,8.257,2.275c6.915,0,11.772-4.246,11.772-9.553C854.139,454.257,848.024,452.78,846,452.2Z" transform="translate(-830.022 -438.336)" fill="#fafafc"/>
    </g>
    <g id="Group_12086" data-name="Group 12086" transform="translate(829.178 473.628)">
      <path id="Path_17600" data-name="Path 17600" d="M843.811,474.814l.612.455h1.07l-1.222-1.062h-.917l-1.223,1.062h1.07Z" transform="translate(-830.204 -474.206)" fill="#fafafc"/>
      <path id="Path_17601" data-name="Path 17601" d="M903.1,475.268l-1.072-1.062h-1.375l1.375,1.062Z" transform="translate(-831.088 -474.206)" fill="#fafafc"/>
      <path id="Path_17602" data-name="Path 17602" d="M887.729,475.268l-1.071-1.062h-1.374l1.374,1.062Z" transform="translate(-830.856 -474.206)" fill="#fafafc"/>
      <path id="Path_17603" data-name="Path 17603" d="M863.824,475.268l-1.07-1.062H861.38l1.374,1.062Z" transform="translate(-830.495 -474.206)" fill="#fafafc"/>
      <path id="Path_17604" data-name="Path 17604" d="M843.03,475.9l-2.049,6.065h1.345l.473-1.516h1.989l.472,1.516h1.346l-2.05-6.065Zm.1,3.488.664-2.122.664,2.122Z" transform="translate(-830.187 -474.232)" fill="#fafafc"/>
      <path id="Path_17605" data-name="Path 17605" d="M862.279,475.9l-2.05,6.065h1.345l.472-1.516h1.991l.473,1.516h1.343l-2.046-6.065Zm.1,3.488.663-2.122.664,2.122Z" transform="translate(-830.477 -474.232)" fill="#fafafc"/>
      <path id="Path_17606" data-name="Path 17606" d="M886.182,475.9l-2.048,6.065h1.345l.473-1.516h1.989l.475,1.516h1.345l-2.05-6.065Zm.1,3.488.662-2.122.661,2.122Z" transform="translate(-830.838 -474.232)" fill="#fafafc"/>
      <path id="Path_17607" data-name="Path 17607" d="M833.69,479.69l-2.6-3.79h-1.068v6.064h1.223v-3.791l2.6,3.791h1.07V475.9H833.69Z" transform="translate(-830.021 -474.232)" fill="#fafafc"/>
      <path id="Path_17608" data-name="Path 17608" d="M850.765,479.69l-2.6-3.79H847.1v6.064h1.223v-3.791l2.6,3.791h1.07V475.9h-1.224Z" transform="translate(-830.279 -474.232)" fill="#fafafc"/>
      <path id="Path_17609" data-name="Path 17609" d="M870.011,479.69l-2.6-3.79h-1.07v6.064h1.222v-3.791l2.6,3.791h1.071V475.9h-1.225Z" transform="translate(-830.57 -474.232)" fill="#fafafc"/>
      <path id="Path_17610" data-name="Path 17610" d="M909.441,475.9v3.79l-2.6-3.79h-1.071v6.064H907v-3.791l2.6,3.791h1.07V475.9Z" transform="translate(-831.165 -474.232)" fill="#fafafc"/>
      <path id="Path_17611" data-name="Path 17611" d="M838.363,476.93c.766,0,1.07.334,1.163.924h1.284a2.2,2.2,0,0,0-2.447-2.076c-1.834,0-2.6,1.182-2.6,2.849v.608c0,1.667.764,2.849,2.6,2.849a2.188,2.188,0,0,0,2.447-2.21v-1.247h-2.447v1.062h1.221v.212c0,.608-.425,1.032-1.221,1.032-.918,0-1.289-.637-1.289-1.7v-.608C837.074,477.415,837.508,476.93,838.363,476.93Z" transform="translate(-830.108 -474.23)" fill="#fafafc"/>
      <path id="Path_17612" data-name="Path 17612" d="M874.687,476.93c.763,0,1.071.334,1.162.924h1.285a2.2,2.2,0,0,0-2.448-2.076c-1.834,0-2.6,1.182-2.6,2.849v.608c0,1.667.765,2.849,2.6,2.849a2.189,2.189,0,0,0,2.448-2.21v-1.247h-2.448v1.062h1.223v.212c0,.608-.428,1.032-1.223,1.032-.918,0-1.289-.637-1.289-1.7v-.608C873.4,477.415,873.829,476.93,874.687,476.93Z" transform="translate(-830.656 -474.23)" fill="#fafafc"/>
      <path id="Path_17613" data-name="Path 17613" d="M896.421,476.93c.762,0,1.07.334,1.159.924h1.285a2.2,2.2,0,0,0-2.445-2.076c-1.837,0-2.6,1.182-2.6,2.849v.608c0,1.667.766,2.849,2.6,2.849a2.187,2.187,0,0,0,2.445-2.21v-1.247h-2.445v1.062h1.221v.212c0,.608-.427,1.032-1.221,1.032-.919,0-1.291-.637-1.291-1.7v-.608C895.13,477.415,895.563,476.93,896.421,476.93Z" transform="translate(-830.984 -474.23)" fill="#fafafc"/>
      <path id="Path_17614" data-name="Path 17614" d="M858.526,478.326H856.08V475.9h-1.221v6.064h1.221v-2.577h2.446v2.577h1.225V475.9h-1.225Z" transform="translate(-830.396 -474.232)" fill="#fafafc"/>
      <path id="Path_17615" data-name="Path 17615" d="M882.381,478.428l-.921-.2c-.55-.113-.855-.325-.855-.688,0-.487.425-.729,1.07-.729.7,0,1.039.334,1.039.758h1.221c0-1.062-.884-1.789-2.3-1.789-1.341,0-2.321.606-2.321,1.819a1.732,1.732,0,0,0,1.581,1.721l.927.211c.618.14.918.314.918.75,0,.471-.4.776-1.163.776s-1.162-.3-1.162-.758h-1.252c0,.818.581,1.789,2.414,1.789,1.53,0,2.448-.727,2.448-1.94C884.029,479.052,883.295,478.627,882.381,478.428Z" transform="translate(-830.763 -474.23)" fill="#fafafc"/>
      <rect id="Rectangle_8388" data-name="Rectangle 8388" width="1.223" height="6.064" transform="translate(59.32 1.668)" fill="#fafafc"/>
      <path id="Path_17616" data-name="Path 17616" d="M902.317,475.778c-1.68,0-2.6,1.03-2.6,2.849v.608c0,1.819.918,2.849,2.591,2.849,1.689,0,2.607-1.03,2.607-2.849v-.608C904.917,476.808,904,475.778,902.317,475.778Zm1.315,3.457c0,1.212-.549,1.7-1.316,1.7s-1.313-.486-1.313-1.7v-.608c0-1.212.55-1.7,1.314-1.7s1.315.485,1.315,1.7Z" transform="translate(-831.073 -474.23)" fill="#fafafc"/>
    </g>
  </g>
</svg>
