<svg xmlns="http://www.w3.org/2000/svg" width="20" height="20" viewBox="0 0 20 20">
  <g id="icon-time-alert" transform="translate(-161 -20245)">
    <rect id="Rectangle" width="20" height="20" transform="translate(161 20245)" fill="#fff" opacity="0"/>
    <path id="Path" d="M8.285,2.126a6.93,6.93,0,0,0,2.7-.547,3.953,3.953,0,0,1-.745-1.2A5.606,5.606,0,0,1,8.285.738,5.654,5.654,0,0,1,2.618-4.936,5.642,5.642,0,0,1,8.278-10.6a5.65,5.65,0,0,1,5.6,4.806,3.805,3.805,0,0,1,1.415.062A7.109,7.109,0,0,0,8.278-12,7.1,7.1,0,0,0,1.224-4.936,7.1,7.1,0,0,0,8.285,2.126ZM4.826-4.088H8.278a.533.533,0,0,0,.54-.54V-9.112a.533.533,0,0,0-.54-.54.537.537,0,0,0-.54.54v3.944H4.826a.528.528,0,0,0-.54.54A.533.533,0,0,0,4.826-4.088ZM14.349,2.16A3.555,3.555,0,0,0,17.869-1.36a3.536,3.536,0,0,0-3.521-3.514A3.536,3.536,0,0,0,10.828-1.36,3.538,3.538,0,0,0,14.349,2.16Zm0-2.926a.455.455,0,0,1-.472-.451l-.055-1.928a.49.49,0,0,1,.526-.52.5.5,0,0,1,.533.52L14.82-1.217A.451.451,0,0,1,14.349-.766Zm0,1.7A.621.621,0,0,1,13.72.314.62.62,0,0,1,14.349-.3a.612.612,0,0,1,.629.615A.617.617,0,0,1,14.349.937Z" transform="translate(161 20260)" fill="#d32f2f"/>
  </g>
</svg>
