<svg xmlns="http://www.w3.org/2000/svg" width="12" height="10.8" viewBox="0 0 12 10.8">
  <path id="Combined_Shape" data-name="Combined Shape" d="M10.8,10.8H1.2A1.2,1.2,0,0,1,0,9.6V2.4A1.2,1.2,0,0,1,1.2,1.2H3.6A1.2,1.2,0,0,1,4.8,0H7.2A1.2,1.2,0,0,1,8.4,1.2h2.4A1.2,1.2,0,0,1,12,2.4V9.6A1.2,1.2,0,0,1,10.8,10.8ZM1.2,2.4V9.6h9.6V2.4ZM6,8.4A2.4,2.4,0,1,1,8.4,6,2.4,2.4,0,0,1,6,8.4ZM6,4.8A1.2,1.2,0,1,0,7.2,6,1.2,1.2,0,0,0,6,4.8Zm3.6-.6a.6.6,0,1,1,.6-.6A.6.6,0,0,1,9.6,4.2Z" transform="translate(0)" fill="#172b4d"/>
</svg>
