<svg xmlns="http://www.w3.org/2000/svg" width="24" height="24" viewBox="0 0 24 24">
  <g id="Group_11927" data-name="Group 11927" transform="translate(-474 -351)">
    <circle id="Ellipse_61" data-name="Ellipse 61" cx="12" cy="12" r="12" transform="translate(474 351)" fill="#388e3c"/>
    <path id="Page_1" data-name="Page 1" d="M1.735,4.322A1,1,0,0,0,.265,5.678L3.877,9.6a1.289,1.289,0,0,0,1.834.029l.364-.358.976-.961c1.01-.994,2.02-1.991,2.962-2.923l.04-.04C11.729,3.689,13,2.424,13.712,1.7A1,1,0,0,0,12.288.3c-.7.714-1.971,1.975-3.64,3.625l-.04.04c-.942.931-1.951,1.926-2.959,2.92l-.815.8Z" transform="translate(479 358.002)" fill="#fff"/>
  </g>
</svg>
