<svg xmlns="http://www.w3.org/2000/svg" width="14" height="14" viewBox="0 0 14 14">
    <path data-name="9 dot" d="M11.375 14a.875.875 0 0 1-.875-.875v-1.75a.875.875 0 0 1 .875-.875h1.751a.875.875 0 0 1 .875.875v1.751a.875.875 0 0 1-.875.875zm-5.25 0a.875.875 0 0 1-.875-.875v-1.75a.875.875 0 0 1 .875-.875h1.75a.875.875 0 0 1 .875.875v1.751a.875.875 0 0 1-.875.874zm-5.25 0A.875.875 0 0 1 0 13.125v-1.75a.875.875 0 0 1 .875-.875h1.75a.875.875 0 0 1 .875.875v1.751a.875.875 0 0 1-.875.874zm10.5-5.25a.875.875 0 0 1-.875-.875v-1.75a.875.875 0 0 1 .875-.875h1.751a.875.875 0 0 1 .874.875v1.75a.875.875 0 0 1-.875.875zm-5.249 0a.874.874 0 0 1-.875-.875v-1.75a.874.874 0 0 1 .875-.875h1.75a.874.874 0 0 1 .875.875v1.75a.874.874 0 0 1-.875.875zm-5.25 0A.874.874 0 0 1 0 7.875v-1.75a.874.874 0 0 1 .875-.875h1.75a.874.874 0 0 1 .875.875v1.75a.874.874 0 0 1-.875.875zm10.5-5.25a.875.875 0 0 1-.875-.875V.875A.875.875 0 0 1 11.375 0h1.751A.875.875 0 0 1 14 .875v1.75a.875.875 0 0 1-.875.875zm-5.249 0a.874.874 0 0 1-.875-.875V.875A.874.874 0 0 1 6.125 0h1.75a.874.874 0 0 1 .875.875v1.75a.874.874 0 0 1-.875.875zm-5.25 0A.874.874 0 0 1 0 2.625V.875A.874.874 0 0 1 .875 0h1.75A.874.874 0 0 1 3.5.875v1.75a.874.874 0 0 1-.875.875z" style="fill:#5c6a82"/>
</svg>
