<svg xmlns="http://www.w3.org/2000/svg" width="20" height="20" viewBox="0 0 20 20">
  <path id="icon-user-fill" d="M10.115,20H9.986A9.966,9.966,0,0,1,.757,13.816,10.149,10.149,0,0,1,0,9.844,9.675,9.675,0,0,1,.211,7.929,9.9,9.9,0,0,1,.785,6.115,10.12,10.12,0,0,1,4.351,1.749,9.9,9.9,0,0,1,9.989,0h.017a9.876,9.876,0,0,1,5.631,1.75,10.1,10.1,0,0,1,1.472,1.238,10.152,10.152,0,0,1,2.153,3.27,9.981,9.981,0,0,1,.565,1.906,9.879,9.879,0,0,1-.667,5.829,10.191,10.191,0,0,1-3.607,4.323,9.934,9.934,0,0,1-1.664.908A9.549,9.549,0,0,1,10.115,20Zm-.156-7.54a7.047,7.047,0,0,0-3.066.7,6.863,6.863,0,0,0-2.5,2.067.408.408,0,0,0-.111.277.418.418,0,0,0,.158.246A8.254,8.254,0,0,0,7.007,17.42a8.194,8.194,0,0,0,3.009.57h.017l.165,0a7.017,7.017,0,0,0,1.413-.156,7.585,7.585,0,0,0,3.878-2.063.349.349,0,0,0,.031-.564,9.414,9.414,0,0,0-1.073-1.092,6.8,6.8,0,0,0-2.133-1.247A6.916,6.916,0,0,0,9.959,12.46Zm.025-7.429A2.95,2.95,0,0,0,7,8.053a2.959,2.959,0,0,0,.882,2.1A3,3,0,0,0,10,11.011h.02a3.093,3.093,0,0,0,1.2-.245,2.984,2.984,0,0,0,.963-.654,2.907,2.907,0,0,0,.841-2.078,3.035,3.035,0,0,0-.869-2.147,3,3,0,0,0-2.141-.855Z" fill="#133fa2"/>
</svg>
