<svg xmlns="http://www.w3.org/2000/svg" xmlns:xlink="http://www.w3.org/1999/xlink" width="1440" height="709.915" viewBox="0 0 1440 709.915">
  <defs>
    <clipPath id="clip-path">
      <rect id="Rectangle_8560" data-name="Rectangle 8560" width="1440" height="709.915" transform="translate(-166.343 0)" fill="#175fc9"/>
    </clipPath>
    <linearGradient id="linear-gradient" x1="0.5" y1="-0.187" x2="0.5" y2="1.072" gradientUnits="objectBoundingBox">
      <stop offset="0" stop-color="#fff"/>
      <stop offset="1" stop-color="#57f"/>
    </linearGradient>
    <linearGradient id="linear-gradient-17" x1="0.5" y1="-0.132" x2="0.5" y2="0.946" xlink:href="#linear-gradient"/>
    <linearGradient id="linear-gradient-18" x1="0.5" y1="-0.317" x2="0.5" y2="0.727" xlink:href="#linear-gradient"/>
    <linearGradient id="linear-gradient-19" x1="0.5" y1="-0.065" x2="0.5" y2="0.813" xlink:href="#linear-gradient"/>
    <linearGradient id="linear-gradient-20" x1="0.5" y1="-1.401" x2="0.5" y2="0.694" xlink:href="#linear-gradient"/>
    <linearGradient id="linear-gradient-21" x1="0.5" y1="-0.481" x2="0.5" y2="0.754" xlink:href="#linear-gradient"/>
    <linearGradient id="linear-gradient-22" x1="0.5" y1="0.023" x2="0.5" y2="1.046" xlink:href="#linear-gradient"/>
    <linearGradient id="linear-gradient-24" x1="0.5" y1="-0.279" x2="0.5" y2="0.783" xlink:href="#linear-gradient"/>
    <linearGradient id="linear-gradient-25" x1="0.5" y1="-0.025" x2="0.5" y2="0.742" xlink:href="#linear-gradient"/>
    <linearGradient id="linear-gradient-26" x1="0.5" y1="-0.496" x2="0.5" y2="1.131" xlink:href="#linear-gradient"/>
    <linearGradient id="linear-gradient-27" x1="0.5" y1="-0.336" x2="0.5" y2="0.697" gradientUnits="objectBoundingBox">
      <stop offset="0" stop-color="#fff"/>
      <stop offset="1" stop-color="#3f64f5"/>
    </linearGradient>
  </defs>
  <g id="Mask_Group_1" data-name="Mask Group 1" transform="translate(166.343)" opacity="0.5" clip-path="url(#clip-path)">
    <g id="Group_12211" data-name="Group 12211" transform="translate(0 0)">
      <g id="Group_12202" data-name="Group 12202" transform="translate(0 627.925)">
        <path id="Path_28655" data-name="Path 28655" d="M1557.877,1297.234v-.665h12.137V1309.4h1.745v-38.6h17.126v20.119h9.976v6.151h6.236v11.973h1.913v-23.112h6.316V1269.8h4.074v-12.137h17.209v55.369h6.7v18.456h-93.827v-34.253Z" transform="translate(-1227.665 -1247.274)" fill="url(#linear-gradient)"/>
        <path id="Path_28656" data-name="Path 28656" d="M1660.449,1288.135v-.759h13.846v14.638h1.991v-44.037h19.536v22.95H1707.2v7.018h7.113V1301.6h2.181v-26.363h7.207v-18.4h4.646v-13.846h19.631v63.159h7.645v21.053h-107.03v-39.071Z" transform="translate(-1413.587 -1242.994)" fill="url(#linear-gradient)"/>
        <path id="Path_28657" data-name="Path 28657" d="M1877.961,1306.6v-.569h10.381V1317h1.493v-33.016h14.646v17.206h8.533v5.262h5.332v10.239h1.636v-19.767h5.4v-13.793h3.483V1272.75h14.718V1320.1h5.732v15.783h-80.246V1306.6Z" transform="translate(-1763.434 -1251.676)" fill="url(#linear-gradient)"/>
        <path id="Path_28658" data-name="Path 28658" d="M1937.4,1322.961v-.4h7.309v7.727h1.051v-23.246h10.312v12.115h6.007v3.7h3.754v7.209h1.152v-13.917h3.8v-9.711h2.453v-7.308H1983.6v33.339h4.036v11.112h-56.5v-20.625Z" transform="translate(-1845.71 -1259.374)" fill="url(#linear-gradient)"/>
        <path id="Path_28659" data-name="Path 28659" d="M1995.979,1322.961v-.4h7.309v7.727h1.051v-23.246h10.311v12.115h6.008v3.7h3.754v7.209h1.151v-13.917h3.8v-9.711h2.453v-7.308h10.363v33.339h4.034v11.112h-56.5v-20.625Z" transform="translate(-1945.78 -1259.374)" fill="url(#linear-gradient)"/>
        <path id="Path_28660" data-name="Path 28660" d="M2016.354,1271.575v76.46h81.576V1324.79h-8.43v-69.76h-21.685v15.3h-5.138v20.316h-7.972v29.128h-2.4v-15.1h-7.852v-7.732h-12.584v-25.359Z" transform="translate(-2016.354 -1246.506)" fill="url(#linear-gradient)"/>
        <path id="Path_28661" data-name="Path 28661" d="M1783.229,1332.479v-.3h5.523v5.837h.794V1320.45h7.792v9.154h4.539v2.8h2.836v5.446h.871v-10.514h2.874V1320h1.853v-5.522h7.83v25.191h3.049v8.4H1778.5v-15.583Z" transform="translate(-1571.156 -1263.85)" fill="url(#linear-gradient)"/>
        <path id="Path_28662" data-name="Path 28662" d="M1898.7,1310.776v-.526h-9.6v10.144h-1.38v-30.52h-13.54v15.906H1866.3v4.864h-4.929v9.464h-1.512v-18.272h-4.995v-12.75h-3.221v-9.6h-13.6v43.773h-5.3v14.59h74.177v-27.078Z" transform="translate(-1695.302 -1253.643)" fill="url(#linear-gradient)"/>
      </g>
      <g id="Group_12293" data-name="Group 12293" transform="translate(-239 627.925)">
        <path id="Path_28655-2" data-name="Path 28655" d="M1557.877,1297.234v-.665h12.137V1309.4h1.745v-38.6h17.126v20.119h9.976v6.151h6.236v11.973h1.913v-23.112h6.316V1269.8h4.074v-12.137h17.209v55.369h6.7v18.456h-93.827v-34.253Z" transform="translate(-1227.665 -1247.274)" fill="url(#linear-gradient)"/>
        <path id="Path_28656-2" data-name="Path 28656" d="M1660.449,1288.135v-.759h13.846v14.638h1.991v-44.037h19.536v22.95H1707.2v7.018h7.113V1301.6h2.181v-26.363h7.207v-18.4h4.646v-13.846h19.631v63.159h7.645v21.053h-107.03v-39.071Z" transform="translate(-1413.587 -1242.994)" fill="url(#linear-gradient)"/>
        <path id="Path_28657-2" data-name="Path 28657" d="M1877.961,1306.6v-.569h10.381V1317h1.493v-33.016h14.646v17.206h8.533v5.262h5.332v10.239h1.636v-19.767h5.4v-13.793h3.483V1272.75h14.718V1320.1h5.732v15.783h-80.246V1306.6Z" transform="translate(-1763.434 -1251.676)" fill="url(#linear-gradient)"/>
        <path id="Path_28658-2" data-name="Path 28658" d="M1937.4,1322.961v-.4h7.309v7.727h1.051v-23.246h10.312v12.115h6.007v3.7h3.754v7.209h1.152v-13.917h3.8v-9.711h2.453v-7.308H1983.6v33.339h4.036v11.112h-56.5v-20.625Z" transform="translate(-1845.71 -1259.374)" fill="url(#linear-gradient)"/>
        <path id="Path_28659-2" data-name="Path 28659" d="M1995.979,1322.961v-.4h7.309v7.727h1.051v-23.246h10.311v12.115h6.008v3.7h3.754v7.209h1.151v-13.917h3.8v-9.711h2.453v-7.308h10.363v33.339h4.034v11.112h-56.5v-20.625Z" transform="translate(-1945.78 -1259.374)" fill="url(#linear-gradient)"/>
        <path id="Path_28660-2" data-name="Path 28660" d="M2016.354,1271.575v76.46h81.576V1324.79h-8.43v-69.76h-21.685v15.3h-5.138v20.316h-7.972v29.128h-2.4v-15.1h-7.852v-7.732h-12.584v-25.359Z" transform="translate(-2016.354 -1246.506)" fill="url(#linear-gradient)"/>
        <path id="Path_28661-2" data-name="Path 28661" d="M1783.229,1332.479v-.3h5.523v5.837h.794V1320.45h7.792v9.154h4.539v2.8h2.836v5.446h.871v-10.514h2.874V1320h1.853v-5.522h7.83v25.191h3.049v8.4H1778.5v-15.583Z" transform="translate(-1571.156 -1263.85)" fill="url(#linear-gradient)"/>
        <path id="Path_28662-2" data-name="Path 28662" d="M1898.7,1310.776v-.526h-9.6v10.144h-1.38v-30.52h-13.54v15.906H1866.3v4.864h-4.929v9.464h-1.512v-18.272h-4.995v-12.75h-3.221v-9.6h-13.6v43.773h-5.3v14.59h74.177v-27.078Z" transform="translate(-1695.302 -1253.643)" fill="url(#linear-gradient)"/>
      </g>
      <path id="Path_28663" data-name="Path 28663" d="M619.819,356.39c21.959,0,39.761,3.611,39.761,8.067v19.015c0,4.455-17.8,8.067-39.761,8.067s-39.76-3.612-39.76-8.067V364.457C580.059,360,597.86,356.39,619.819,356.39Z" transform="translate(439.234 -356.39)" fill="#1e79ff"/>
      <rect id="Rectangle_8462" data-name="Rectangle 8462" width="165.954" height="131.205" transform="translate(381.653 586.613)" fill="#1e5fee"/>
      <rect id="Rectangle_8463" data-name="Rectangle 8463" width="101.746" height="360.555" transform="translate(519.948 357.262)" fill="url(#linear-gradient-17)"/>
      <rect id="Rectangle_8464" data-name="Rectangle 8464" width="110.143" height="241.029" transform="translate(570.821 484.691)" fill="#57f"/>
      <rect id="Rectangle_8465" data-name="Rectangle 8465" width="88.904" height="204.479" transform="translate(636.511 521.241)" fill="#3f64f5"/>
      <rect id="Rectangle_8466" data-name="Rectangle 8466" width="81.002" height="189.316" transform="translate(653.304 528.502)" fill="url(#linear-gradient-18)"/>
      <rect id="Rectangle_8467" data-name="Rectangle 8467" width="54.331" height="270.663" transform="translate(729.366 442.215)" fill="#3f64f5"/>
      <rect id="Rectangle_8468" data-name="Rectangle 8468" width="48.404" height="366.482" transform="translate(766.903 351.336)" fill="url(#linear-gradient-19)"/>
      <rect id="Rectangle_8469" data-name="Rectangle 8469" width="102.24" height="438.593" transform="translate(791.105 274.285)" fill="#57f"/>
      <rect id="Rectangle_8470" data-name="Rectangle 8470" width="66.481" height="109.648" transform="translate(866.674 600.267)" fill="url(#linear-gradient-20)"/>
      <path id="Path_28664" data-name="Path 28664" d="M828.353,1133.778v-20.5h14.323v20.5h7.9v165.461H825.538V1133.778Z" transform="translate(74.377 -577.223)" fill="url(#linear-gradient-21)"/>
      <rect id="Rectangle_8471" data-name="Rectangle 8471" width="50.05" height="136.32" transform="translate(933.155 576.559)" fill="#57f"/>
      <rect id="Rectangle_8472" data-name="Rectangle 8472" width="51.366" height="133.274" transform="translate(968.733 593.023)" fill="#57f"/>
      <path id="Path_28665" data-name="Path 28665" d="M685.223,939.6,674.686,406.83l-28.976-27.66-79.026,13.172L544.261,1022.7H685.223Z" transform="translate(438.944 -363.036)" fill="url(#linear-gradient-22)"/>
      <rect id="Rectangle_8473" data-name="Rectangle 8473" width="81.989" height="169.742" transform="translate(1115.605 556.555)" fill="#1e5fee"/>
      <path id="Path_28666" data-name="Path 28666" d="M437.9,1067.209V741.227L406.285,735.3v19.756L348,746.167l-14.817,6.915v415.874H437.9Z" transform="translate(835.761 -442.862)" fill="#3f64f5"/>
      <rect id="Rectangle_8474" data-name="Rectangle 8474" width="72.111" height="207.443" transform="translate(437.465 505.436)" fill="url(#linear-gradient)"/>
      <path id="Path_28667" data-name="Path 28667" d="M1529.135,1084.685v-14.818h9.385v-20.743h10.866v20.743h9.878v14.818h15.312v203.491h-64.209V1084.685Z" transform="translate(-1134.641 -558.505)" fill="url(#linear-gradient-24)"/>
      <g id="Group_12203" data-name="Group 12203" transform="translate(514.021 371.75)">
        <rect id="Rectangle_8475" data-name="Rectangle 8475" width="77.05" height="3.294" transform="translate(0 0)" fill="#abbcff"/>
        <rect id="Rectangle_8476" data-name="Rectangle 8476" width="77.05" height="3.293" transform="translate(0 14.441)" fill="#abbcff"/>
        <rect id="Rectangle_8477" data-name="Rectangle 8477" width="77.05" height="3.292" transform="translate(0 28.883)" fill="#abbcff"/>
        <rect id="Rectangle_8478" data-name="Rectangle 8478" width="77.05" height="3.293" transform="translate(0 43.323)" fill="#abbcff"/>
        <rect id="Rectangle_8479" data-name="Rectangle 8479" width="77.05" height="3.294" transform="translate(0 57.764)" fill="#abbcff"/>
        <rect id="Rectangle_8480" data-name="Rectangle 8480" width="77.05" height="3.293" transform="translate(0 72.205)" fill="#abbcff"/>
        <rect id="Rectangle_8481" data-name="Rectangle 8481" width="77.05" height="3.292" transform="translate(0 86.647)" fill="#abbcff"/>
        <rect id="Rectangle_8482" data-name="Rectangle 8482" width="77.05" height="3.293" transform="translate(0 101.088)" fill="#abbcff"/>
      </g>
      <g id="Group_12204" data-name="Group 12204" transform="translate(370.046 600.025)">
        <rect id="Rectangle_8483" data-name="Rectangle 8483" width="60.504" height="2.26" transform="translate(0 0)" fill="#8fa5ff"/>
        <rect id="Rectangle_8484" data-name="Rectangle 8484" width="60.504" height="2.259" transform="translate(0 9.908)" fill="#8fa5ff"/>
        <rect id="Rectangle_8485" data-name="Rectangle 8485" width="60.504" height="2.259" transform="translate(0 19.815)" fill="#8fa5ff"/>
        <rect id="Rectangle_8486" data-name="Rectangle 8486" width="60.504" height="2.259" transform="translate(0 29.723)" fill="#8fa5ff"/>
        <rect id="Rectangle_8487" data-name="Rectangle 8487" width="60.504" height="2.259" transform="translate(0 39.631)" fill="#8fa5ff"/>
        <rect id="Rectangle_8488" data-name="Rectangle 8488" width="60.504" height="2.259" transform="translate(0 49.538)" fill="#8fa5ff"/>
        <rect id="Rectangle_8489" data-name="Rectangle 8489" width="60.504" height="2.26" transform="translate(0 59.446)" fill="#8fa5ff"/>
        <rect id="Rectangle_8490" data-name="Rectangle 8490" width="60.504" height="2.259" transform="translate(0 69.353)" fill="#8fa5ff"/>
      </g>
      <g id="Group_12210" data-name="Group 12210" transform="translate(449.195 515.314)">
        <g id="Group_12205" data-name="Group 12205" transform="translate(0)">
          <rect id="Rectangle_8491" data-name="Rectangle 8491" width="8.15" height="8.149" transform="translate(44.823)" fill="#b3c2ff"/>
          <rect id="Rectangle_8492" data-name="Rectangle 8492" width="8.15" height="8.149" transform="translate(33.617)" fill="#b3c2ff"/>
          <rect id="Rectangle_8493" data-name="Rectangle 8493" width="8.15" height="8.149" transform="translate(22.411)" fill="#b3c2ff"/>
          <rect id="Rectangle_8494" data-name="Rectangle 8494" width="8.15" height="8.149" transform="translate(11.206)" fill="#b3c2ff"/>
          <rect id="Rectangle_8495" data-name="Rectangle 8495" width="8.15" height="8.149" fill="#b3c2ff"/>
        </g>
        <g id="Group_12206" data-name="Group 12206" transform="translate(0 12.811)">
          <rect id="Rectangle_8496" data-name="Rectangle 8496" width="8.15" height="8.149" transform="translate(44.823)" fill="#b3c2ff"/>
          <rect id="Rectangle_8497" data-name="Rectangle 8497" width="8.15" height="8.149" transform="translate(33.617)" fill="#b3c2ff"/>
          <rect id="Rectangle_8498" data-name="Rectangle 8498" width="8.15" height="8.149" transform="translate(22.411)" fill="#b3c2ff"/>
          <rect id="Rectangle_8499" data-name="Rectangle 8499" width="8.15" height="8.149" transform="translate(11.206)" fill="#b3c2ff"/>
          <rect id="Rectangle_8500" data-name="Rectangle 8500" width="8.15" height="8.149" fill="#b3c2ff"/>
        </g>
        <g id="Group_12207" data-name="Group 12207" transform="translate(0 25.621)">
          <rect id="Rectangle_8501" data-name="Rectangle 8501" width="8.15" height="8.15" transform="translate(44.823)" fill="#b3c2ff"/>
          <rect id="Rectangle_8502" data-name="Rectangle 8502" width="8.15" height="8.15" transform="translate(33.617)" fill="#b3c2ff"/>
          <rect id="Rectangle_8503" data-name="Rectangle 8503" width="8.15" height="8.15" transform="translate(22.411)" fill="#b3c2ff"/>
          <rect id="Rectangle_8504" data-name="Rectangle 8504" width="8.15" height="8.15" transform="translate(11.206)" fill="#b3c2ff"/>
          <rect id="Rectangle_8505" data-name="Rectangle 8505" width="8.15" height="8.15" fill="#b3c2ff"/>
        </g>
        <g id="Group_12208" data-name="Group 12208" transform="translate(0 38.432)">
          <rect id="Rectangle_8506" data-name="Rectangle 8506" width="8.15" height="8.15" transform="translate(44.823)" fill="#b3c2ff"/>
          <rect id="Rectangle_8507" data-name="Rectangle 8507" width="8.15" height="8.15" transform="translate(33.617)" fill="#b3c2ff"/>
          <rect id="Rectangle_8508" data-name="Rectangle 8508" width="8.15" height="8.15" transform="translate(22.411)" fill="#b3c2ff"/>
          <rect id="Rectangle_8509" data-name="Rectangle 8509" width="8.15" height="8.15" transform="translate(11.206)" fill="#b3c2ff"/>
          <rect id="Rectangle_8510" data-name="Rectangle 8510" width="8.15" height="8.15" fill="#b3c2ff"/>
        </g>
        <g id="Group_12209" data-name="Group 12209" transform="translate(0 51.243)">
          <rect id="Rectangle_8511" data-name="Rectangle 8511" width="8.15" height="8.15" transform="translate(44.823)" fill="#b3c2ff"/>
          <rect id="Rectangle_8512" data-name="Rectangle 8512" width="8.15" height="8.15" transform="translate(33.617)" fill="#b3c2ff"/>
          <rect id="Rectangle_8513" data-name="Rectangle 8513" width="8.15" height="8.15" transform="translate(22.411)" fill="#b3c2ff"/>
          <rect id="Rectangle_8514" data-name="Rectangle 8514" width="8.15" height="8.15" transform="translate(11.206)" fill="#b3c2ff"/>
          <rect id="Rectangle_8515" data-name="Rectangle 8515" width="8.15" height="8.15" fill="#b3c2ff"/>
        </g>
      </g>
      <rect id="Rectangle_8516" data-name="Rectangle 8516" width="9.755" height="4.074" transform="translate(600.579 496.175)" fill="#1e79ff"/>
      <rect id="Rectangle_8517" data-name="Rectangle 8517" width="5.063" height="5.063" transform="translate(605.271 502.472)" fill="#1e79ff"/>
      <rect id="Rectangle_8518" data-name="Rectangle 8518" width="5.289" height="5.289" transform="translate(652.625 492.923)" fill="#1e79ff"/>
      <rect id="Rectangle_8519" data-name="Rectangle 8519" width="4.939" height="4.939" transform="translate(655.938 509.716)" fill="#1e79ff"/>
      <rect id="Rectangle_8520" data-name="Rectangle 8520" width="4.939" height="4.94" transform="translate(626.962 512.185)" fill="#1e79ff"/>
      <rect id="Rectangle_8521" data-name="Rectangle 8521" width="5.187" height="5.186" transform="translate(657.667 544.125)" fill="#1e79ff"/>
      <rect id="Rectangle_8522" data-name="Rectangle 8522" width="5.187" height="5.186" transform="translate(657.667 554.169)" fill="#1e79ff"/>
      <rect id="Rectangle_8523" data-name="Rectangle 8523" width="6.091" height="6.092" transform="translate(704.836 601.748)" fill="#f5f6f7"/>
      <rect id="Rectangle_8524" data-name="Rectangle 8524" width="6.092" height="6.092" transform="translate(695.616 601.748)" fill="#f5f6f7"/>
      <rect id="Rectangle_8525" data-name="Rectangle 8525" width="6.092" height="6.091" transform="translate(695.616 613.602)" fill="#f5f6f7"/>
      <rect id="Rectangle_8526" data-name="Rectangle 8526" width="6.091" height="6.092" transform="translate(704.836 625.456)" fill="#f5f6f7"/>
      <rect id="Rectangle_8527" data-name="Rectangle 8527" width="6.092" height="6.092" transform="translate(695.616 625.456)" fill="#f5f6f7"/>
      <rect id="Rectangle_8528" data-name="Rectangle 8528" width="6.091" height="6.091" transform="translate(704.836 637.31)" fill="#f5f6f7"/>
      <rect id="Rectangle_8529" data-name="Rectangle 8529" width="6.092" height="6.092" transform="translate(758.507 616.483)" fill="#f5f6f7"/>
      <rect id="Rectangle_8530" data-name="Rectangle 8530" width="6.092" height="6.092" transform="translate(749.287 616.483)" fill="#f5f6f7"/>
      <rect id="Rectangle_8531" data-name="Rectangle 8531" width="6.091" height="6.092" transform="translate(739.862 616.483)" fill="#f5f6f7"/>
      <rect id="Rectangle_8532" data-name="Rectangle 8532" width="6.092" height="6.092" transform="translate(730.642 616.483)" fill="#f5f6f7"/>
      <rect id="Rectangle_8533" data-name="Rectangle 8533" width="6.091" height="6.091" transform="translate(739.862 628.338)" fill="#f5f6f7"/>
      <rect id="Rectangle_8534" data-name="Rectangle 8534" width="6.092" height="6.092" transform="translate(730.642 640.191)" fill="#f5f6f7"/>
      <rect id="Rectangle_8535" data-name="Rectangle 8535" width="6.091" height="6.091" transform="translate(739.862 652.046)" fill="#f5f6f7"/>
      <rect id="Rectangle_8536" data-name="Rectangle 8536" width="6.092" height="6.091" transform="translate(730.642 652.046)" fill="#f5f6f7"/>
      <rect id="Rectangle_8537" data-name="Rectangle 8537" width="6.092" height="6.091" transform="translate(749.287 628.338)" fill="#f5f6f7"/>
      <rect id="Rectangle_8538" data-name="Rectangle 8538" width="6.092" height="6.092" transform="translate(758.507 640.191)" fill="#f5f6f7"/>
      <rect id="Rectangle_8539" data-name="Rectangle 8539" width="6.092" height="6.092" transform="translate(749.287 640.191)" fill="#f5f6f7"/>
      <rect id="Rectangle_8540" data-name="Rectangle 8540" width="6.092" height="6.091" transform="translate(758.507 652.046)" fill="#f5f6f7"/>
      <rect id="Rectangle_8541" data-name="Rectangle 8541" width="54.331" height="5.927" transform="translate(729.366 442.215)" fill="#3f64f5"/>
      <rect id="Rectangle_8542" data-name="Rectangle 8542" width="54.331" height="5.927" transform="translate(729.366 522.575)" fill="#a0b3ff"/>
      <rect id="Rectangle_8543" data-name="Rectangle 8543" width="54.659" height="133.356" transform="translate(725.416 576.559)" fill="#3f64f5"/>
      <rect id="Rectangle_8544" data-name="Rectangle 8544" width="25.683" height="5.762" transform="translate(855.149 391.343)" fill="#1e5fee"/>
      <rect id="Rectangle_8545" data-name="Rectangle 8545" width="25.684" height="5.763" transform="translate(825.163 403.035)" fill="#1e5fee"/>
      <rect id="Rectangle_8546" data-name="Rectangle 8546" width="25.683" height="5.762" transform="translate(855.149 426.422)" fill="#1e5fee"/>
      <rect id="Rectangle_8547" data-name="Rectangle 8547" width="25.684" height="5.762" transform="translate(825.163 426.422)" fill="#1e5fee"/>
      <rect id="Rectangle_8548" data-name="Rectangle 8548" width="83.965" height="5.433" transform="translate(809.38 323.182)" fill="#1e5fee"/>
      <path id="Path_28668" data-name="Path 28668" d="M679.078,379.17l-54,584.133L600.052,392.342Z" transform="translate(405.575 -363.036)" fill="url(#linear-gradient-25)"/>
      <path id="Path_28669" data-name="Path 28669" d="M559.139,379.17,583.505,963.3l4.61-556.473Z" transform="translate(525.515 -363.036)" fill="#57f"/>
      <path id="Path_28670" data-name="Path 28670" d="M613.98,407.867l13.253-2.781,1.014-4.29L615,403.577Z" transform="translate(446.54 -369.346)" fill="#94c0ff"/>
      <path id="Path_28671" data-name="Path 28671" d="M639.783,427.393l13.252-2.781,1.015-4.289L640.8,423.1Z" transform="translate(402.463 -375.043)" fill="#94c0ff"/>
      <path id="Path_28672" data-name="Path 28672" d="M669.771,422.4l13.253-2.782,1.014-4.289-13.253,2.782Z" transform="translate(351.237 -373.587)" fill="#94c0ff"/>
      <path id="Path_28673" data-name="Path 28673" d="M622.175,503.646l13.253-2.78,1.015-4.29-13.253,2.781Z" transform="translate(432.542 -397.291)" fill="#94c0ff"/>
      <path id="Path_28674" data-name="Path 28674" d="M625.836,519.163l13.253-2.781,1.015-4.29-13.253,2.782Z" transform="translate(426.289 -401.818)" fill="#94c0ff"/>
      <path id="Path_28675" data-name="Path 28675" d="M629.846,534.68,643.1,531.9l1.014-4.29L630.86,530.39Z" transform="translate(419.439 -406.346)" fill="#94c0ff"/>
      <rect id="Rectangle_8549" data-name="Rectangle 8549" width="5.865" height="5.866" transform="translate(1028.369 156.24)" fill="#94c0ff"/>
      <rect id="Rectangle_8550" data-name="Rectangle 8550" width="5.865" height="5.865" transform="translate(1029.85 169.205)" fill="#94c0ff"/>
      <rect id="Rectangle_8551" data-name="Rectangle 8551" width="5.865" height="5.865" transform="translate(1042.208 193.407)" fill="#94c0ff"/>
      <rect id="Rectangle_8552" data-name="Rectangle 8552" width="5.865" height="5.865" transform="translate(1041.221 207.113)" fill="#94c0ff"/>
      <rect id="Rectangle_8553" data-name="Rectangle 8553" width="5.866" height="5.865" transform="translate(1070.525 241.718)" fill="#94c0ff"/>
      <rect id="Rectangle_8554" data-name="Rectangle 8554" width="5.866" height="5.865" transform="translate(1071.637 264.932)" fill="#94c0ff"/>
      <rect id="Rectangle_8555" data-name="Rectangle 8555" width="5.866" height="5.865" transform="translate(1063.076 314.323)" fill="#94c0ff"/>
      <rect id="Rectangle_8556" data-name="Rectangle 8556" width="5.865" height="5.865" transform="translate(1082.668 323.707)" fill="#94c0ff"/>
      <rect id="Rectangle_8557" data-name="Rectangle 8557" width="86.928" height="284.082" transform="translate(1055.677 442.215)" fill="#3f64f5"/>
      <rect id="Rectangle_8558" data-name="Rectangle 8558" width="72.441" height="144.716" transform="translate(1005.627 581.004)" fill="#57f"/>
      <rect id="Rectangle_8559" data-name="Rectangle 8559" width="27.165" height="127.429" transform="translate(594.529 357.262)" fill="url(#linear-gradient-26)"/>
      <path id="Path_28676" data-name="Path 28676" d="M333.187,746.167v321.043l89.892-147.084v-178.9L391.468,735.3v19.756Z" transform="translate(850.578 -442.862)" fill="url(#linear-gradient-27)"/>
    </g>
  </g>
</svg>
